<ttFont>
    <TTGlyph name="A" xMin="-10" yMin="0" xMax="576" yMax="630">
      <contour>
        <pt x="576" y="0" on="1"/>
        <pt x="371" y="0" on="1"/>
        <pt x="371" y="18" on="1"/>
        <pt x="436" y="18" on="1"/>
        <pt x="366" y="211" on="1"/>
        <pt x="146" y="211" on="1"/>
        <pt x="76" y="18" on="1"/>
        <pt x="141" y="18" on="1"/>
        <pt x="141" y="0" on="1"/>
        <pt x="-10" y="0" on="1"/>
        <pt x="-10" y="18" on="1"/>
        <pt x="27" y="18" on="1"/>
        <pt x="41" y="18" on="0"/>
        <pt x="46" y="32" on="1"/>
        <pt x="266" y="630" on="1"/>
        <pt x="300" y="630" on="1"/>
        <pt x="520" y="32" on="1"/>
        <pt x="525" y="18" on="0"/>
        <pt x="539" y="18" on="1"/>
        <pt x="576" y="18" on="1"/>
      </contour>
      <contour>
        <pt x="257" y="512" on="1"/>
        <pt x="157" y="239" on="1"/>
        <pt x="356" y="239" on="1"/>
      </contour>
    </TTGlyph>
    <TTGlyph name="AE" xMin="-24" yMin="-9" xMax="780" yMax="639">
      <contour>
        <pt x="338" y="0" on="1"/>
        <pt x="338" y="18" on="1"/>
        <pt x="385" y="18" on="1"/>
        <pt x="399" y="18" on="0"/>
        <pt x="399" y="32" on="1"/>
        <pt x="399" y="276" on="1"/>
        <pt x="199" y="276" on="1"/>
        <pt x="62" y="18" on="1"/>
        <pt x="127" y="18" on="1"/>
        <pt x="127" y="0" on="1"/>
        <pt x="-24" y="0" on="1"/>
        <pt x="-24" y="18" on="1"/>
        <pt x="13" y="18" on="1"/>
        <pt x="25" y="18" on="0"/>
        <pt x="32" y="32" on="1"/>
        <pt x="333" y="591" on="1"/>
        <pt x="337" y="599" on="0"/>
        <pt x="337" y="604" on="1"/>
        <pt x="337" y="612" on="0"/>
        <pt x="327" y="612" on="1"/>
        <pt x="293" y="612" on="1"/>
        <pt x="293" y="630" on="1"/>
        <pt x="655" y="630" on="1"/>
        <pt x="734" y="630" on="0"/>
        <pt x="766" y="639" on="1"/>
        <pt x="757" y="598" on="0"/>
        <pt x="757" y="510" on="1"/>
        <pt x="757" y="463" on="1"/>
        <pt x="734" y="463" on="1"/>
        <pt x="719" y="580" on="1"/>
        <pt x="717" y="602" on="0"/>
        <pt x="691" y="602" on="1"/>
        <pt x="481" y="602" on="1"/>
        <pt x="481" y="304" on="1"/>
        <pt x="682" y="304" on="1"/>
        <pt x="694" y="304" on="0"/>
        <pt x="696" y="318" on="1"/>
        <pt x="701" y="380" on="1"/>
        <pt x="719" y="380" on="1"/>
        <pt x="719" y="200" on="1"/>
        <pt x="701" y="200" on="1"/>
        <pt x="696" y="262" on="1"/>
        <pt x="694" y="276" on="0"/>
        <pt x="682" y="276" on="1"/>
        <pt x="481" y="276" on="1"/>
        <pt x="481" y="28" on="1"/>
        <pt x="705" y="28" on="1"/>
        <pt x="731" y="28" on="0"/>
        <pt x="733" y="50" on="1"/>
        <pt x="748" y="167" on="1"/>
        <pt x="771" y="167" on="1"/>
        <pt x="771" y="120" on="1"/>
        <pt x="771" y="32" on="0"/>
        <pt x="780" y="-9" on="1"/>
        <pt x="748" y="0" on="0"/>
        <pt x="669" y="0" on="1"/>
      </contour>
      <contour>
        <pt x="373" y="602" on="1"/>
        <pt x="214" y="304" on="1"/>
        <pt x="399" y="304" on="1"/>
        <pt x="399" y="602" on="1"/>
      </contour>
    </TTGlyph>
    <TTGlyph name="Aacute" xMin="-10" yMin="0" xMax="576" yMax="846">
      <component glyphName="A" x="0" y="0" flags="0x1004"/>
      <component glyphName="acute" x="208" y="198" flags="0x1004"/>
    </TTGlyph>
    <TTGlyph name="Acircumflex" xMin="-10" yMin="0" xMax="576" yMax="846">
      <contour>
        <pt x="576" y="0" on="1"/>
        <pt x="371" y="0" on="1"/>
        <pt x="371" y="18" on="1"/>
        <pt x="436" y="18" on="1"/>
        <pt x="366" y="211" on="1"/>
        <pt x="146" y="211" on="1"/>
        <pt x="76" y="18" on="1"/>
        <pt x="141" y="18" on="1"/>
        <pt x="141" y="0" on="1"/>
        <pt x="-10" y="0" on="1"/>
        <pt x="-10" y="18" on="1"/>
        <pt x="27" y="18" on="1"/>
        <pt x="41" y="18" on="0"/>
        <pt x="46" y="32" on="1"/>
        <pt x="266" y="630" on="1"/>
        <pt x="300" y="630" on="1"/>
        <pt x="520" y="32" on="1"/>
        <pt x="525" y="18" on="0"/>
        <pt x="539" y="18" on="1"/>
        <pt x="576" y="18" on="1"/>
      </contour>
      <contour>
        <pt x="257" y="512" on="1"/>
        <pt x="157" y="239" on="1"/>
        <pt x="356" y="239" on="1"/>
      </contour>
      <contour>
        <pt x="240" y="812" on="1"/>
        <pt x="256" y="846" on="0"/>
        <pt x="310" y="846" on="0"/>
        <pt x="326" y="812" on="1"/>
        <pt x="387" y="678" on="1"/>
        <pt x="371" y="666" on="1"/>
        <pt x="282" y="781" on="1"/>
        <pt x="195" y="666" on="1"/>
        <pt x="179" y="678" on="1"/>
      </contour>
    </TTGlyph>
    <TTGlyph name="Adieresis" xMin="-10" yMin="0" xMax="576" yMax="821">
      <component glyphName="A" x="0" y="0" flags="0x1004"/>
      <component glyphName="dieresis" x="149" y="198" flags="0x1004"/>
    </TTGlyph>
    <TTGlyph name="Agrave" xMin="-10" yMin="0" xMax="576" yMax="846">
      <contour>
        <pt x="576" y="0" on="1"/>
        <pt x="371" y="0" on="1"/>
        <pt x="371" y="18" on="1"/>
        <pt x="436" y="18" on="1"/>
        <pt x="366" y="211" on="1"/>
        <pt x="146" y="211" on="1"/>
        <pt x="76" y="18" on="1"/>
        <pt x="141" y="18" on="1"/>
        <pt x="141" y="0" on="1"/>
        <pt x="-10" y="0" on="1"/>
        <pt x="-10" y="18" on="1"/>
        <pt x="27" y="18" on="1"/>
        <pt x="41" y="18" on="0"/>
        <pt x="46" y="32" on="1"/>
        <pt x="266" y="630" on="1"/>
        <pt x="300" y="630" on="1"/>
        <pt x="520" y="32" on="1"/>
        <pt x="525" y="18" on="0"/>
        <pt x="539" y="18" on="1"/>
        <pt x="576" y="18" on="1"/>
      </contour>
      <contour>
        <pt x="257" y="512" on="1"/>
        <pt x="157" y="239" on="1"/>
        <pt x="356" y="239" on="1"/>
      </contour>
      <contour>
        <pt x="287" y="812" on="1"/>
        <pt x="358" y="678" on="1"/>
        <pt x="342" y="666" on="1"/>
        <pt x="208" y="800" on="1"/>
        <pt x="208" y="823" on="0"/>
        <pt x="230" y="846" on="0"/>
        <pt x="244" y="846" on="1"/>
        <pt x="269" y="846" on="0"/>
      </contour>
    </TTGlyph>
    <TTGlyph name="Aring" xMin="-10" yMin="0" xMax="576" yMax="867">
      <component glyphName="A" x="0" y="0" flags="0x1004"/>
      <component glyphName="ring" x="154" y="198" flags="0x1004"/>
    </TTGlyph>
    <TTGlyph name="Atilde" xMin="-10" yMin="0" xMax="576" yMax="822">
      <component glyphName="A" x="0" y="0" flags="0x1004"/>
      <component glyphName="tilde" x="144" y="198" flags="0x1004"/>
    </TTGlyph>
    <TTGlyph name="B" xMin="35" yMin="0" xMax="496" yMax="630">
      <contour>
        <pt x="35" y="0" on="1"/>
        <pt x="35" y="18" on="1"/>
        <pt x="82" y="18" on="1"/>
        <pt x="96" y="18" on="0"/>
        <pt x="96" y="30" on="1"/>
        <pt x="96" y="600" on="1"/>
        <pt x="96" y="612" on="0"/>
        <pt x="82" y="612" on="1"/>
        <pt x="35" y="612" on="1"/>
        <pt x="35" y="630" on="1"/>
        <pt x="269" y="630" on="1"/>
        <pt x="344" y="630" on="0"/>
        <pt x="451" y="548" on="0"/>
        <pt x="451" y="483" on="1"/>
        <pt x="451" y="433" on="0"/>
        <pt x="398" y="358" on="0"/>
        <pt x="354" y="339" on="1"/>
        <pt x="417" y="325" on="0"/>
        <pt x="496" y="239" on="0"/>
        <pt x="496" y="96" on="0"/>
        <pt x="378" y="0" on="0"/>
        <pt x="294" y="0" on="1"/>
      </contour>
      <contour>
        <pt x="289" y="321" on="1"/>
        <pt x="178" y="321" on="1"/>
        <pt x="178" y="28" on="1"/>
        <pt x="289" y="28" on="1"/>
        <pt x="349" y="28" on="0"/>
        <pt x="416" y="116" on="0"/>
        <pt x="416" y="234" on="0"/>
        <pt x="349" y="321" on="0"/>
      </contour>
      <contour>
        <pt x="248" y="602" on="1"/>
        <pt x="178" y="602" on="1"/>
        <pt x="178" y="346" on="1"/>
        <pt x="254" y="346" on="1"/>
        <pt x="313" y="346" on="0"/>
        <pt x="371" y="426" on="0"/>
        <pt x="371" y="533" on="0"/>
        <pt x="311" y="602" on="0"/>
      </contour>
    </TTGlyph>
    <TTGlyph name="C" xMin="35" yMin="-12" xMax="518" yMax="642">
      <contour>
        <pt x="499" y="0" on="1"/>
        <pt x="498" y="14" on="1"/>
        <pt x="497" y="35" on="0"/>
        <pt x="482" y="35" on="1"/>
        <pt x="474" y="35" on="0"/>
        <pt x="453" y="24" on="1"/>
        <pt x="388" y="-12" on="0"/>
        <pt x="322" y="-12" on="1"/>
        <pt x="196" y="-12" on="0"/>
        <pt x="35" y="162" on="0"/>
        <pt x="35" y="467" on="0"/>
        <pt x="194" y="642" on="0"/>
        <pt x="322" y="642" on="1"/>
        <pt x="387" y="642" on="0"/>
        <pt x="452" y="609" on="1"/>
        <pt x="473" y="598" on="0"/>
        <pt x="482" y="598" on="1"/>
        <pt x="497" y="598" on="0"/>
        <pt x="498" y="619" on="1"/>
        <pt x="499" y="636" on="1"/>
        <pt x="518" y="636" on="1"/>
        <pt x="518" y="463" on="1"/>
        <pt x="500" y="463" on="1"/>
        <pt x="491" y="540" on="0"/>
        <pt x="394" y="613" on="0"/>
        <pt x="322" y="613" on="1"/>
        <pt x="231" y="613" on="0"/>
        <pt x="120" y="453" on="0"/>
        <pt x="120" y="175" on="0"/>
        <pt x="232" y="17" on="0"/>
        <pt x="322" y="17" on="1"/>
        <pt x="394" y="17" on="0"/>
        <pt x="491" y="90" on="0"/>
        <pt x="500" y="167" on="1"/>
        <pt x="518" y="167" on="1"/>
        <pt x="518" y="0" on="1"/>
      </contour>
    </TTGlyph>
    <TTGlyph name="Ccedilla" xMin="35" yMin="-218" xMax="518" yMax="642">
      <contour>
        <pt x="499" y="0" on="1"/>
        <pt x="498" y="14" on="1"/>
        <pt x="497" y="35" on="0"/>
        <pt x="482" y="35" on="1"/>
        <pt x="474" y="35" on="0"/>
        <pt x="453" y="24" on="1"/>
        <pt x="388" y="-12" on="0"/>
        <pt x="322" y="-12" on="1"/>
        <pt x="196" y="-12" on="0"/>
        <pt x="35" y="162" on="0"/>
        <pt x="35" y="467" on="0"/>
        <pt x="194" y="642" on="0"/>
        <pt x="322" y="642" on="1"/>
        <pt x="387" y="642" on="0"/>
        <pt x="452" y="609" on="1"/>
        <pt x="473" y="598" on="0"/>
        <pt x="482" y="598" on="1"/>
        <pt x="497" y="598" on="0"/>
        <pt x="498" y="619" on="1"/>
        <pt x="499" y="636" on="1"/>
        <pt x="518" y="636" on="1"/>
        <pt x="518" y="463" on="1"/>
        <pt x="500" y="463" on="1"/>
        <pt x="491" y="540" on="0"/>
        <pt x="394" y="613" on="0"/>
        <pt x="322" y="613" on="1"/>
        <pt x="231" y="613" on="0"/>
        <pt x="120" y="453" on="0"/>
        <pt x="120" y="175" on="0"/>
        <pt x="232" y="17" on="0"/>
        <pt x="322" y="17" on="1"/>
        <pt x="394" y="17" on="0"/>
        <pt x="491" y="90" on="0"/>
        <pt x="500" y="167" on="1"/>
        <pt x="518" y="167" on="1"/>
        <pt x="518" y="0" on="1"/>
      </contour>
      <contour>
        <pt x="353" y="-141" on="1"/>
        <pt x="353" y="-84" on="0"/>
        <pt x="280" y="-80" on="1"/>
        <pt x="288" y="0" on="1"/>
        <pt x="305" y="0" on="1"/>
        <pt x="301" y="-48" on="1"/>
        <pt x="347" y="-51" on="0"/>
        <pt x="397" y="-97" on="0"/>
        <pt x="397" y="-169" on="0"/>
        <pt x="346" y="-218" on="0"/>
        <pt x="269" y="-218" on="0"/>
        <pt x="219" y="-178" on="0"/>
        <pt x="219" y="-114" on="0"/>
        <pt x="252" y="-114" on="1"/>
        <pt x="266" y="-114" on="0"/>
        <pt x="273" y="-118" on="1"/>
        <pt x="269" y="-129" on="0"/>
        <pt x="269" y="-166" on="0"/>
        <pt x="290" y="-195" on="0"/>
        <pt x="328" y="-195" on="0"/>
        <pt x="353" y="-165" on="0"/>
      </contour>
    </TTGlyph>
    <TTGlyph name="D" xMin="35" yMin="0" xMax="576" yMax="630">
      <contour>
        <pt x="35" y="612" on="1"/>
        <pt x="35" y="630" on="1"/>
        <pt x="289" y="630" on="1"/>
        <pt x="416" y="630" on="0"/>
        <pt x="576" y="462" on="0"/>
        <pt x="576" y="168" on="0"/>
        <pt x="416" y="0" on="0"/>
        <pt x="289" y="0" on="1"/>
        <pt x="35" y="0" on="1"/>
        <pt x="35" y="18" on="1"/>
        <pt x="82" y="18" on="1"/>
        <pt x="96" y="18" on="0"/>
        <pt x="96" y="30" on="1"/>
        <pt x="96" y="600" on="1"/>
        <pt x="96" y="612" on="0"/>
        <pt x="82" y="612" on="1"/>
      </contour>
      <contour>
        <pt x="289" y="602" on="1"/>
        <pt x="178" y="602" on="1"/>
        <pt x="178" y="28" on="1"/>
        <pt x="289" y="28" on="1"/>
        <pt x="375" y="28" on="0"/>
        <pt x="491" y="182" on="0"/>
        <pt x="491" y="448" on="0"/>
        <pt x="375" y="602" on="0"/>
      </contour>
    </TTGlyph>
    <TTGlyph name="Delta" xMin="48" yMin="0" xMax="605" yMax="700">
      <contour>
        <pt x="296" y="700" on="1"/>
        <pt x="356" y="700" on="1"/>
        <pt x="605" y="0" on="1"/>
        <pt x="48" y="0" on="1"/>
      </contour>
      <contour>
        <pt x="305" y="619" on="1"/>
        <pt x="113" y="58" on="1"/>
        <pt x="502" y="58" on="1"/>
      </contour>
    </TTGlyph>
    <TTGlyph name="E" xMin="35" yMin="-9" xMax="477" yMax="639">
      <contour>
        <pt x="35" y="0" on="1"/>
        <pt x="35" y="18" on="1"/>
        <pt x="82" y="18" on="1"/>
        <pt x="96" y="18" on="0"/>
        <pt x="96" y="32" on="1"/>
        <pt x="96" y="600" on="1"/>
        <pt x="96" y="612" on="0"/>
        <pt x="82" y="612" on="1"/>
        <pt x="35" y="612" on="1"/>
        <pt x="35" y="630" on="1"/>
        <pt x="352" y="630" on="1"/>
        <pt x="431" y="630" on="0"/>
        <pt x="463" y="639" on="1"/>
        <pt x="454" y="598" on="0"/>
        <pt x="454" y="525" on="1"/>
        <pt x="454" y="478" on="1"/>
        <pt x="431" y="478" on="1"/>
        <pt x="416" y="580" on="1"/>
        <pt x="414" y="602" on="0"/>
        <pt x="388" y="602" on="1"/>
        <pt x="178" y="602" on="1"/>
        <pt x="178" y="329" on="1"/>
        <pt x="379" y="329" on="1"/>
        <pt x="391" y="329" on="0"/>
        <pt x="393" y="343" on="1"/>
        <pt x="398" y="405" on="1"/>
        <pt x="416" y="405" on="1"/>
        <pt x="416" y="225" on="1"/>
        <pt x="398" y="225" on="1"/>
        <pt x="393" y="287" on="1"/>
        <pt x="391" y="301" on="0"/>
        <pt x="379" y="301" on="1"/>
        <pt x="178" y="301" on="1"/>
        <pt x="178" y="28" on="1"/>
        <pt x="402" y="28" on="1"/>
        <pt x="428" y="28" on="0"/>
        <pt x="430" y="50" on="1"/>
        <pt x="445" y="167" on="1"/>
        <pt x="468" y="167" on="1"/>
        <pt x="468" y="120" on="1"/>
        <pt x="468" y="32" on="0"/>
        <pt x="477" y="-9" on="1"/>
        <pt x="445" y="0" on="0"/>
        <pt x="366" y="0" on="1"/>
      </contour>
    </TTGlyph>
    <TTGlyph name="Eacute" xMin="35" yMin="-9" xMax="477" yMax="846">
      <component glyphName="E" x="0" y="0" flags="0x1004"/>
      <component glyphName="acute" x="202" y="198" flags="0x1004"/>
    </TTGlyph>
    <TTGlyph name="Ecircumflex" xMin="35" yMin="-9" xMax="477" yMax="846">
      <contour>
        <pt x="35" y="0" on="1"/>
        <pt x="35" y="18" on="1"/>
        <pt x="82" y="18" on="1"/>
        <pt x="96" y="18" on="0"/>
        <pt x="96" y="32" on="1"/>
        <pt x="96" y="600" on="1"/>
        <pt x="96" y="612" on="0"/>
        <pt x="82" y="612" on="1"/>
        <pt x="35" y="612" on="1"/>
        <pt x="35" y="630" on="1"/>
        <pt x="352" y="630" on="1"/>
        <pt x="431" y="630" on="0"/>
        <pt x="463" y="639" on="1"/>
        <pt x="454" y="598" on="0"/>
        <pt x="454" y="525" on="1"/>
        <pt x="454" y="478" on="1"/>
        <pt x="431" y="478" on="1"/>
        <pt x="416" y="580" on="1"/>
        <pt x="414" y="602" on="0"/>
        <pt x="388" y="602" on="1"/>
        <pt x="178" y="602" on="1"/>
        <pt x="178" y="329" on="1"/>
        <pt x="379" y="329" on="1"/>
        <pt x="391" y="329" on="0"/>
        <pt x="393" y="343" on="1"/>
        <pt x="398" y="405" on="1"/>
        <pt x="416" y="405" on="1"/>
        <pt x="416" y="225" on="1"/>
        <pt x="398" y="225" on="1"/>
        <pt x="393" y="287" on="1"/>
        <pt x="391" y="301" on="0"/>
        <pt x="379" y="301" on="1"/>
        <pt x="178" y="301" on="1"/>
        <pt x="178" y="28" on="1"/>
        <pt x="402" y="28" on="1"/>
        <pt x="428" y="28" on="0"/>
        <pt x="430" y="50" on="1"/>
        <pt x="445" y="167" on="1"/>
        <pt x="468" y="167" on="1"/>
        <pt x="468" y="120" on="1"/>
        <pt x="468" y="32" on="0"/>
        <pt x="477" y="-9" on="1"/>
        <pt x="445" y="0" on="0"/>
        <pt x="366" y="0" on="1"/>
      </contour>
      <contour>
        <pt x="215" y="812" on="1"/>
        <pt x="231" y="846" on="0"/>
        <pt x="285" y="846" on="0"/>
        <pt x="301" y="812" on="1"/>
        <pt x="362" y="678" on="1"/>
        <pt x="346" y="666" on="1"/>
        <pt x="257" y="781" on="1"/>
        <pt x="170" y="666" on="1"/>
        <pt x="154" y="678" on="1"/>
      </contour>
    </TTGlyph>
    <TTGlyph name="Edieresis" xMin="35" yMin="-9" xMax="477" yMax="821">
      <component glyphName="E" x="0" y="0" flags="0x1004"/>
      <component glyphName="dieresis" x="124" y="198" flags="0x1004"/>
    </TTGlyph>
    <TTGlyph name="Egrave" xMin="35" yMin="-9" xMax="477" yMax="846">
      <contour>
        <pt x="35" y="0" on="1"/>
        <pt x="35" y="18" on="1"/>
        <pt x="82" y="18" on="1"/>
        <pt x="96" y="18" on="0"/>
        <pt x="96" y="32" on="1"/>
        <pt x="96" y="600" on="1"/>
        <pt x="96" y="612" on="0"/>
        <pt x="82" y="612" on="1"/>
        <pt x="35" y="612" on="1"/>
        <pt x="35" y="630" on="1"/>
        <pt x="352" y="630" on="1"/>
        <pt x="431" y="630" on="0"/>
        <pt x="463" y="639" on="1"/>
        <pt x="454" y="598" on="0"/>
        <pt x="454" y="525" on="1"/>
        <pt x="454" y="478" on="1"/>
        <pt x="431" y="478" on="1"/>
        <pt x="416" y="580" on="1"/>
        <pt x="414" y="602" on="0"/>
        <pt x="388" y="602" on="1"/>
        <pt x="178" y="602" on="1"/>
        <pt x="178" y="329" on="1"/>
        <pt x="379" y="329" on="1"/>
        <pt x="391" y="329" on="0"/>
        <pt x="393" y="343" on="1"/>
        <pt x="398" y="405" on="1"/>
        <pt x="416" y="405" on="1"/>
        <pt x="416" y="225" on="1"/>
        <pt x="398" y="225" on="1"/>
        <pt x="393" y="287" on="1"/>
        <pt x="391" y="301" on="0"/>
        <pt x="379" y="301" on="1"/>
        <pt x="178" y="301" on="1"/>
        <pt x="178" y="28" on="1"/>
        <pt x="402" y="28" on="1"/>
        <pt x="428" y="28" on="0"/>
        <pt x="430" y="50" on="1"/>
        <pt x="445" y="167" on="1"/>
        <pt x="468" y="167" on="1"/>
        <pt x="468" y="120" on="1"/>
        <pt x="468" y="32" on="0"/>
        <pt x="477" y="-9" on="1"/>
        <pt x="445" y="0" on="0"/>
        <pt x="366" y="0" on="1"/>
      </contour>
      <contour>
        <pt x="262" y="812" on="1"/>
        <pt x="333" y="678" on="1"/>
        <pt x="317" y="666" on="1"/>
        <pt x="183" y="800" on="1"/>
        <pt x="183" y="823" on="0"/>
        <pt x="205" y="846" on="0"/>
        <pt x="219" y="846" on="1"/>
        <pt x="244" y="846" on="0"/>
      </contour>
    </TTGlyph>
    <TTGlyph name="Eth" xMin="30" yMin="0" xMax="576" yMax="630">
      <component glyphName="D" x="0" y="0" flags="0x1004"/>
      <component glyphName="endash" x="0" y="84" flags="0x1004"/>
    </TTGlyph>
    <TTGlyph name="Euro" xMin="-14" yMin="-12" xMax="438" yMax="579">
      <contour>
        <pt x="352" y="579" on="0"/>
        <pt x="426" y="508" on="0"/>
        <pt x="426" y="399" on="0"/>
        <pt x="384" y="399" on="1"/>
        <pt x="362" y="399" on="0"/>
        <pt x="343" y="414" on="1"/>
        <pt x="357" y="442" on="0"/>
        <pt x="357" y="504" on="0"/>
        <pt x="319" y="551" on="0"/>
        <pt x="280" y="551" on="1"/>
        <pt x="221" y="551" on="0"/>
        <pt x="143" y="431" on="0"/>
        <pt x="131" y="342" on="1"/>
        <pt x="367" y="342" on="1"/>
        <pt x="358" y="312" on="1"/>
        <pt x="127" y="312" on="1"/>
        <pt x="126" y="300" on="0"/>
        <pt x="126" y="276" on="1"/>
        <pt x="352" y="276" on="1"/>
        <pt x="343" y="246" on="1"/>
        <pt x="126" y="246" on="1"/>
        <pt x="134" y="16" on="0"/>
        <pt x="267" y="16" on="1"/>
        <pt x="313" y="16" on="0"/>
        <pt x="367" y="72" on="0"/>
        <pt x="367" y="110" on="1"/>
        <pt x="367" y="131" on="0"/>
        <pt x="359" y="153" on="1"/>
        <pt x="378" y="168" on="0"/>
        <pt x="438" y="168" on="0"/>
        <pt x="438" y="125" on="1"/>
        <pt x="438" y="68" on="0"/>
        <pt x="351" y="-12" on="0"/>
        <pt x="268" y="-12" on="1"/>
        <pt x="163" y="-12" on="0"/>
        <pt x="59" y="137" on="0"/>
        <pt x="54" y="246" on="1"/>
        <pt x="-14" y="246" on="1"/>
        <pt x="-5" y="276" on="1"/>
        <pt x="54" y="276" on="1"/>
        <pt x="54" y="288" on="0"/>
        <pt x="56" y="312" on="1"/>
        <pt x="5" y="312" on="1"/>
        <pt x="14" y="342" on="1"/>
        <pt x="60" y="342" on="1"/>
        <pt x="77" y="443" on="0"/>
        <pt x="192" y="579" on="0"/>
        <pt x="280" y="579" on="1"/>
      </contour>
    </TTGlyph>
    <TTGlyph name="F" xMin="35" yMin="0" xMax="457" yMax="639">
      <contour>
        <pt x="35" y="612" on="1"/>
        <pt x="35" y="630" on="1"/>
        <pt x="346" y="630" on="1"/>
        <pt x="425" y="630" on="0"/>
        <pt x="457" y="639" on="1"/>
        <pt x="448" y="598" on="0"/>
        <pt x="448" y="525" on="1"/>
        <pt x="448" y="478" on="1"/>
        <pt x="425" y="478" on="1"/>
        <pt x="410" y="580" on="1"/>
        <pt x="408" y="602" on="0"/>
        <pt x="382" y="602" on="1"/>
        <pt x="178" y="602" on="1"/>
        <pt x="178" y="329" on="1"/>
        <pt x="375" y="329" on="1"/>
        <pt x="385" y="329" on="0"/>
        <pt x="387" y="343" on="1"/>
        <pt x="392" y="405" on="1"/>
        <pt x="410" y="405" on="1"/>
        <pt x="410" y="225" on="1"/>
        <pt x="392" y="225" on="1"/>
        <pt x="387" y="287" on="1"/>
        <pt x="385" y="301" on="0"/>
        <pt x="375" y="301" on="1"/>
        <pt x="178" y="301" on="1"/>
        <pt x="178" y="32" on="1"/>
        <pt x="178" y="18" on="0"/>
        <pt x="192" y="18" on="1"/>
        <pt x="279" y="18" on="1"/>
        <pt x="279" y="0" on="1"/>
        <pt x="35" y="0" on="1"/>
        <pt x="35" y="18" on="1"/>
        <pt x="82" y="18" on="1"/>
        <pt x="96" y="18" on="0"/>
        <pt x="96" y="32" on="1"/>
        <pt x="96" y="600" on="1"/>
        <pt x="96" y="612" on="0"/>
        <pt x="82" y="612" on="1"/>
      </contour>
    </TTGlyph>
    <TTGlyph name="G" xMin="35" yMin="-12" xMax="591" yMax="642">
      <contour>
        <pt x="322" y="613" on="1"/>
        <pt x="231" y="613" on="0"/>
        <pt x="120" y="453" on="0"/>
        <pt x="120" y="175" on="0"/>
        <pt x="232" y="17" on="0"/>
        <pt x="401" y="17" on="0"/>
        <pt x="468" y="104" on="0"/>
        <pt x="468" y="188" on="1"/>
        <pt x="468" y="228" on="1"/>
        <pt x="468" y="240" on="0"/>
        <pt x="454" y="240" on="1"/>
        <pt x="387" y="240" on="1"/>
        <pt x="387" y="258" on="1"/>
        <pt x="591" y="258" on="1"/>
        <pt x="591" y="240" on="1"/>
        <pt x="564" y="240" on="1"/>
        <pt x="550" y="240" on="0"/>
        <pt x="550" y="228" on="1"/>
        <pt x="550" y="192" on="1"/>
        <pt x="550" y="103" on="0"/>
        <pt x="422" y="-12" on="0"/>
        <pt x="322" y="-12" on="1"/>
        <pt x="196" y="-12" on="0"/>
        <pt x="35" y="162" on="0"/>
        <pt x="35" y="467" on="0"/>
        <pt x="194" y="642" on="0"/>
        <pt x="322" y="642" on="1"/>
        <pt x="387" y="642" on="0"/>
        <pt x="452" y="609" on="1"/>
        <pt x="473" y="598" on="0"/>
        <pt x="482" y="598" on="1"/>
        <pt x="497" y="598" on="0"/>
        <pt x="498" y="619" on="1"/>
        <pt x="499" y="636" on="1"/>
        <pt x="518" y="636" on="1"/>
        <pt x="518" y="463" on="1"/>
        <pt x="500" y="463" on="1"/>
        <pt x="491" y="540" on="0"/>
        <pt x="394" y="613" on="0"/>
      </contour>
    </TTGlyph>
    <TTGlyph name="H" xMin="35" yMin="0" xMax="613" yMax="630">
      <contour>
        <pt x="470" y="32" on="1"/>
        <pt x="470" y="301" on="1"/>
        <pt x="178" y="301" on="1"/>
        <pt x="178" y="32" on="1"/>
        <pt x="178" y="18" on="0"/>
        <pt x="192" y="18" on="1"/>
        <pt x="239" y="18" on="1"/>
        <pt x="239" y="0" on="1"/>
        <pt x="35" y="0" on="1"/>
        <pt x="35" y="18" on="1"/>
        <pt x="82" y="18" on="1"/>
        <pt x="96" y="18" on="0"/>
        <pt x="96" y="32" on="1"/>
        <pt x="96" y="600" on="1"/>
        <pt x="96" y="612" on="0"/>
        <pt x="82" y="612" on="1"/>
        <pt x="35" y="612" on="1"/>
        <pt x="35" y="630" on="1"/>
        <pt x="239" y="630" on="1"/>
        <pt x="239" y="612" on="1"/>
        <pt x="192" y="612" on="1"/>
        <pt x="178" y="612" on="0"/>
        <pt x="178" y="598" on="1"/>
        <pt x="178" y="329" on="1"/>
        <pt x="470" y="329" on="1"/>
        <pt x="470" y="598" on="1"/>
        <pt x="470" y="612" on="0"/>
        <pt x="456" y="612" on="1"/>
        <pt x="409" y="612" on="1"/>
        <pt x="409" y="630" on="1"/>
        <pt x="613" y="630" on="1"/>
        <pt x="613" y="612" on="1"/>
        <pt x="566" y="612" on="1"/>
        <pt x="552" y="612" on="0"/>
        <pt x="552" y="600" on="1"/>
        <pt x="552" y="32" on="1"/>
        <pt x="552" y="18" on="0"/>
        <pt x="566" y="18" on="1"/>
        <pt x="613" y="18" on="1"/>
        <pt x="613" y="0" on="1"/>
        <pt x="409" y="0" on="1"/>
        <pt x="409" y="18" on="1"/>
        <pt x="456" y="18" on="1"/>
        <pt x="470" y="18" on="0"/>
      </contour>
    </TTGlyph>
    <TTGlyph name="I" xMin="35" yMin="0" xMax="239" yMax="630">
      <contour>
        <pt x="96" y="32" on="1"/>
        <pt x="96" y="600" on="1"/>
        <pt x="96" y="612" on="0"/>
        <pt x="82" y="612" on="1"/>
        <pt x="35" y="612" on="1"/>
        <pt x="35" y="630" on="1"/>
        <pt x="239" y="630" on="1"/>
        <pt x="239" y="612" on="1"/>
        <pt x="192" y="612" on="1"/>
        <pt x="178" y="612" on="0"/>
        <pt x="178" y="600" on="1"/>
        <pt x="178" y="32" on="1"/>
        <pt x="178" y="18" on="0"/>
        <pt x="192" y="18" on="1"/>
        <pt x="239" y="18" on="1"/>
        <pt x="239" y="0" on="1"/>
        <pt x="35" y="0" on="1"/>
        <pt x="35" y="18" on="1"/>
        <pt x="82" y="18" on="1"/>
        <pt x="96" y="18" on="0"/>
      </contour>
    </TTGlyph>
    <TTGlyph name="Iacute" xMin="35" yMin="0" xMax="239" yMax="846">
      <component glyphName="I" x="0" y="0" flags="0x1004"/>
      <component glyphName="acute" x="62" y="198" flags="0x1004"/>
    </TTGlyph>
    <TTGlyph name="Icircumflex" xMin="33" yMin="0" xMax="241" yMax="846">
      <contour>
        <pt x="96" y="32" on="1"/>
        <pt x="96" y="600" on="1"/>
        <pt x="96" y="612" on="0"/>
        <pt x="82" y="612" on="1"/>
        <pt x="35" y="612" on="1"/>
        <pt x="35" y="630" on="1"/>
        <pt x="239" y="630" on="1"/>
        <pt x="239" y="612" on="1"/>
        <pt x="192" y="612" on="1"/>
        <pt x="178" y="612" on="0"/>
        <pt x="178" y="600" on="1"/>
        <pt x="178" y="32" on="1"/>
        <pt x="178" y="18" on="0"/>
        <pt x="192" y="18" on="1"/>
        <pt x="239" y="18" on="1"/>
        <pt x="239" y="0" on="1"/>
        <pt x="35" y="0" on="1"/>
        <pt x="35" y="18" on="1"/>
        <pt x="82" y="18" on="1"/>
        <pt x="96" y="18" on="0"/>
      </contour>
      <contour>
        <pt x="94" y="812" on="1"/>
        <pt x="110" y="846" on="0"/>
        <pt x="164" y="846" on="0"/>
        <pt x="180" y="812" on="1"/>
        <pt x="241" y="678" on="1"/>
        <pt x="225" y="666" on="1"/>
        <pt x="136" y="781" on="1"/>
        <pt x="49" y="666" on="1"/>
        <pt x="33" y="678" on="1"/>
      </contour>
    </TTGlyph>
    <TTGlyph name="Idieresis" xMin="3" yMin="0" xMax="271" yMax="821">
      <component glyphName="I" x="0" y="0" flags="0x1004"/>
      <component glyphName="dieresis" x="3" y="198" flags="0x1004"/>
    </TTGlyph>
    <TTGlyph name="Igrave" xMin="35" yMin="0" xMax="239" yMax="846">
      <contour>
        <pt x="96" y="32" on="1"/>
        <pt x="96" y="600" on="1"/>
        <pt x="96" y="612" on="0"/>
        <pt x="82" y="612" on="1"/>
        <pt x="35" y="612" on="1"/>
        <pt x="35" y="630" on="1"/>
        <pt x="239" y="630" on="1"/>
        <pt x="239" y="612" on="1"/>
        <pt x="192" y="612" on="1"/>
        <pt x="178" y="612" on="0"/>
        <pt x="178" y="600" on="1"/>
        <pt x="178" y="32" on="1"/>
        <pt x="178" y="18" on="0"/>
        <pt x="192" y="18" on="1"/>
        <pt x="239" y="18" on="1"/>
        <pt x="239" y="0" on="1"/>
        <pt x="35" y="0" on="1"/>
        <pt x="35" y="18" on="1"/>
        <pt x="82" y="18" on="1"/>
        <pt x="96" y="18" on="0"/>
      </contour>
      <contour>
        <pt x="141" y="812" on="1"/>
        <pt x="212" y="678" on="1"/>
        <pt x="196" y="666" on="1"/>
        <pt x="62" y="800" on="1"/>
        <pt x="62" y="823" on="0"/>
        <pt x="84" y="846" on="0"/>
        <pt x="98" y="846" on="1"/>
        <pt x="123" y="846" on="0"/>
      </contour>
    </TTGlyph>
    <TTGlyph name="J" xMin="-75" yMin="-159" xMax="239" yMax="630">
      <contour>
        <pt x="178" y="598" on="1"/>
        <pt x="178" y="127" on="1"/>
        <pt x="178" y="-159" on="0"/>
        <pt x="30" y="-159" on="1"/>
        <pt x="-25" y="-159" on="0"/>
        <pt x="-75" y="-104" on="0"/>
        <pt x="-75" y="-74" on="1"/>
        <pt x="-75" y="-12" on="0"/>
        <pt x="-38" y="-12" on="1"/>
        <pt x="-7" y="-12" on="0"/>
        <pt x="11" y="-27" on="1"/>
        <pt x="-5" y="-55" on="0"/>
        <pt x="-5" y="-82" on="1"/>
        <pt x="-5" y="-135" on="0"/>
        <pt x="39" y="-135" on="1"/>
        <pt x="96" y="-135" on="0"/>
        <pt x="96" y="-45" on="1"/>
        <pt x="96" y="600" on="1"/>
        <pt x="96" y="612" on="0"/>
        <pt x="82" y="612" on="1"/>
        <pt x="35" y="612" on="1"/>
        <pt x="35" y="630" on="1"/>
        <pt x="239" y="630" on="1"/>
        <pt x="239" y="612" on="1"/>
        <pt x="192" y="612" on="1"/>
        <pt x="178" y="612" on="0"/>
      </contour>
    </TTGlyph>
    <TTGlyph name="K" xMin="35" yMin="-12" xMax="539" yMax="630">
      <contour>
        <pt x="96" y="32" on="1"/>
        <pt x="96" y="600" on="1"/>
        <pt x="96" y="612" on="0"/>
        <pt x="82" y="612" on="1"/>
        <pt x="35" y="612" on="1"/>
        <pt x="35" y="630" on="1"/>
        <pt x="239" y="630" on="1"/>
        <pt x="239" y="612" on="1"/>
        <pt x="192" y="612" on="1"/>
        <pt x="178" y="612" on="0"/>
        <pt x="178" y="600" on="1"/>
        <pt x="178" y="32" on="1"/>
        <pt x="178" y="18" on="0"/>
        <pt x="192" y="18" on="1"/>
        <pt x="239" y="18" on="1"/>
        <pt x="239" y="0" on="1"/>
        <pt x="35" y="0" on="1"/>
        <pt x="35" y="18" on="1"/>
        <pt x="82" y="18" on="1"/>
        <pt x="96" y="18" on="0"/>
      </contour>
      <contour>
        <pt x="412" y="175" on="1"/>
        <pt x="435" y="83" on="1"/>
        <pt x="450" y="21" on="0"/>
        <pt x="483" y="21" on="1"/>
        <pt x="500" y="21" on="0"/>
        <pt x="519" y="46" on="0"/>
        <pt x="519" y="81" on="0"/>
        <pt x="516" y="96" on="1"/>
        <pt x="535" y="99" on="1"/>
        <pt x="539" y="84" on="0"/>
        <pt x="539" y="66" on="1"/>
        <pt x="539" y="30" on="0"/>
        <pt x="496" y="-12" on="0"/>
        <pt x="462" y="-12" on="1"/>
        <pt x="378" y="-12" on="0"/>
        <pt x="352" y="95" on="1"/>
        <pt x="329" y="187" on="1"/>
        <pt x="312" y="252" on="0"/>
        <pt x="252" y="303" on="0"/>
        <pt x="197" y="303" on="1"/>
        <pt x="197" y="325" on="1"/>
        <pt x="433" y="612" on="1"/>
        <pt x="383" y="612" on="1"/>
        <pt x="383" y="630" on="1"/>
        <pt x="519" y="630" on="1"/>
        <pt x="519" y="612" on="1"/>
        <pt x="492" y="612" on="1"/>
        <pt x="476" y="612" on="0"/>
        <pt x="464" y="598" on="1"/>
        <pt x="240" y="327" on="1"/>
        <pt x="317" y="326" on="0"/>
        <pt x="395" y="244" on="0"/>
      </contour>
    </TTGlyph>
    <TTGlyph name="L" xMin="35" yMin="-9" xMax="452" yMax="630">
      <contour>
        <pt x="35" y="0" on="1"/>
        <pt x="35" y="18" on="1"/>
        <pt x="82" y="18" on="1"/>
        <pt x="96" y="18" on="0"/>
        <pt x="96" y="32" on="1"/>
        <pt x="96" y="600" on="1"/>
        <pt x="96" y="612" on="0"/>
        <pt x="82" y="612" on="1"/>
        <pt x="35" y="612" on="1"/>
        <pt x="35" y="630" on="1"/>
        <pt x="239" y="630" on="1"/>
        <pt x="239" y="612" on="1"/>
        <pt x="192" y="612" on="1"/>
        <pt x="178" y="612" on="0"/>
        <pt x="178" y="600" on="1"/>
        <pt x="178" y="28" on="1"/>
        <pt x="377" y="28" on="1"/>
        <pt x="403" y="28" on="0"/>
        <pt x="405" y="50" on="1"/>
        <pt x="420" y="167" on="1"/>
        <pt x="443" y="167" on="1"/>
        <pt x="443" y="120" on="1"/>
        <pt x="443" y="32" on="0"/>
        <pt x="452" y="-9" on="1"/>
        <pt x="420" y="0" on="0"/>
        <pt x="341" y="0" on="1"/>
      </contour>
    </TTGlyph>
    <TTGlyph name="Lslash" xMin="0" yMin="-9" xMax="452" yMax="630">
      <contour>
        <pt x="18" y="220" on="1"/>
        <pt x="0" y="255" on="1"/>
        <pt x="308" y="412" on="1"/>
        <pt x="326" y="377" on="1"/>
      </contour>
      <contour>
        <pt x="35" y="0" on="1"/>
        <pt x="35" y="18" on="1"/>
        <pt x="82" y="18" on="1"/>
        <pt x="96" y="18" on="0"/>
        <pt x="96" y="32" on="1"/>
        <pt x="96" y="600" on="1"/>
        <pt x="96" y="612" on="0"/>
        <pt x="82" y="612" on="1"/>
        <pt x="35" y="612" on="1"/>
        <pt x="35" y="630" on="1"/>
        <pt x="239" y="630" on="1"/>
        <pt x="239" y="612" on="1"/>
        <pt x="192" y="612" on="1"/>
        <pt x="178" y="612" on="0"/>
        <pt x="178" y="600" on="1"/>
        <pt x="178" y="28" on="1"/>
        <pt x="377" y="28" on="1"/>
        <pt x="403" y="28" on="0"/>
        <pt x="405" y="50" on="1"/>
        <pt x="420" y="167" on="1"/>
        <pt x="443" y="167" on="1"/>
        <pt x="443" y="120" on="1"/>
        <pt x="443" y="32" on="0"/>
        <pt x="452" y="-9" on="1"/>
        <pt x="420" y="0" on="0"/>
        <pt x="341" y="0" on="1"/>
      </contour>
    </TTGlyph>
    <TTGlyph name="M" xMin="35" yMin="0" xMax="725" yMax="630">
      <contour>
        <pt x="521" y="0" on="1"/>
        <pt x="521" y="18" on="1"/>
        <pt x="568" y="18" on="1"/>
        <pt x="582" y="18" on="0"/>
        <pt x="582" y="30" on="1"/>
        <pt x="582" y="541" on="1"/>
        <pt x="373" y="0" on="1"/>
        <pt x="339" y="0" on="1"/>
        <pt x="130" y="526" on="1"/>
        <pt x="130" y="32" on="1"/>
        <pt x="130" y="18" on="0"/>
        <pt x="144" y="18" on="1"/>
        <pt x="191" y="18" on="1"/>
        <pt x="191" y="0" on="1"/>
        <pt x="35" y="0" on="1"/>
        <pt x="35" y="18" on="1"/>
        <pt x="82" y="18" on="1"/>
        <pt x="96" y="18" on="0"/>
        <pt x="96" y="32" on="1"/>
        <pt x="96" y="600" on="1"/>
        <pt x="96" y="612" on="0"/>
        <pt x="82" y="612" on="1"/>
        <pt x="35" y="612" on="1"/>
        <pt x="35" y="630" on="1"/>
        <pt x="178" y="630" on="1"/>
        <pt x="382" y="113" on="1"/>
        <pt x="582" y="630" on="1"/>
        <pt x="725" y="630" on="1"/>
        <pt x="725" y="612" on="1"/>
        <pt x="678" y="612" on="1"/>
        <pt x="664" y="612" on="0"/>
        <pt x="664" y="598" on="1"/>
        <pt x="664" y="30" on="1"/>
        <pt x="664" y="18" on="0"/>
        <pt x="678" y="18" on="1"/>
        <pt x="725" y="18" on="1"/>
        <pt x="725" y="0" on="1"/>
      </contour>
    </TTGlyph>
    <TTGlyph name="N" xMin="35" yMin="0" xMax="599" yMax="630">
      <contour>
        <pt x="506" y="0" on="1"/>
        <pt x="130" y="558" on="1"/>
        <pt x="130" y="32" on="1"/>
        <pt x="130" y="18" on="0"/>
        <pt x="144" y="18" on="1"/>
        <pt x="191" y="18" on="1"/>
        <pt x="191" y="0" on="1"/>
        <pt x="35" y="0" on="1"/>
        <pt x="35" y="18" on="1"/>
        <pt x="82" y="18" on="1"/>
        <pt x="96" y="18" on="0"/>
        <pt x="96" y="32" on="1"/>
        <pt x="96" y="600" on="1"/>
        <pt x="96" y="612" on="0"/>
        <pt x="82" y="612" on="1"/>
        <pt x="35" y="612" on="1"/>
        <pt x="35" y="630" on="1"/>
        <pt x="182" y="630" on="1"/>
        <pt x="504" y="154" on="1"/>
        <pt x="504" y="598" on="1"/>
        <pt x="504" y="612" on="0"/>
        <pt x="490" y="612" on="1"/>
        <pt x="443" y="612" on="1"/>
        <pt x="443" y="630" on="1"/>
        <pt x="599" y="630" on="1"/>
        <pt x="599" y="612" on="1"/>
        <pt x="552" y="612" on="1"/>
        <pt x="538" y="612" on="0"/>
        <pt x="538" y="600" on="1"/>
        <pt x="538" y="0" on="1"/>
      </contour>
    </TTGlyph>
    <TTGlyph name="Ntilde" xMin="35" yMin="0" xMax="599" yMax="822">
      <component glyphName="N" x="0" y="0" flags="0x1004"/>
      <component glyphName="tilde" x="192" y="198" flags="0x1004"/>
    </TTGlyph>
    <TTGlyph name="O" xMin="35" yMin="-12" xMax="608" yMax="642">
      <contour>
        <pt x="35" y="162" on="0"/>
        <pt x="35" y="468" on="0"/>
        <pt x="194" y="642" on="0"/>
        <pt x="449" y="642" on="0"/>
        <pt x="608" y="468" on="0"/>
        <pt x="608" y="162" on="0"/>
        <pt x="449" y="-12" on="0"/>
        <pt x="194" y="-12" on="0"/>
      </contour>
      <contour>
        <pt x="120" y="454" on="0"/>
        <pt x="120" y="176" on="0"/>
        <pt x="235" y="14" on="0"/>
        <pt x="407" y="14" on="0"/>
        <pt x="523" y="176" on="0"/>
        <pt x="523" y="454" on="0"/>
        <pt x="407" y="616" on="0"/>
        <pt x="235" y="616" on="0"/>
      </contour>
    </TTGlyph>
    <TTGlyph name="OE" xMin="35" yMin="-9" xMax="759" yMax="639">
      <contour>
        <pt x="661" y="301" on="1"/>
        <pt x="460" y="301" on="1"/>
        <pt x="460" y="28" on="1"/>
        <pt x="684" y="28" on="1"/>
        <pt x="710" y="28" on="0"/>
        <pt x="712" y="50" on="1"/>
        <pt x="727" y="167" on="1"/>
        <pt x="750" y="167" on="1"/>
        <pt x="750" y="120" on="1"/>
        <pt x="750" y="32" on="0"/>
        <pt x="759" y="-9" on="1"/>
        <pt x="727" y="0" on="0"/>
        <pt x="648" y="0" on="1"/>
        <pt x="321" y="0" on="1"/>
        <pt x="194" y="0" on="0"/>
        <pt x="35" y="168" on="0"/>
        <pt x="35" y="462" on="0"/>
        <pt x="194" y="630" on="0"/>
        <pt x="321" y="630" on="1"/>
        <pt x="634" y="630" on="1"/>
        <pt x="713" y="630" on="0"/>
        <pt x="745" y="639" on="1"/>
        <pt x="736" y="598" on="0"/>
        <pt x="736" y="510" on="1"/>
        <pt x="736" y="463" on="1"/>
        <pt x="713" y="463" on="1"/>
        <pt x="698" y="580" on="1"/>
        <pt x="696" y="602" on="0"/>
        <pt x="670" y="602" on="1"/>
        <pt x="460" y="602" on="1"/>
        <pt x="460" y="329" on="1"/>
        <pt x="663" y="329" on="1"/>
        <pt x="673" y="331" on="0"/>
        <pt x="675" y="343" on="1"/>
        <pt x="680" y="405" on="1"/>
        <pt x="698" y="405" on="1"/>
        <pt x="698" y="225" on="1"/>
        <pt x="680" y="225" on="1"/>
        <pt x="675" y="287" on="1"/>
        <pt x="673" y="301" on="0"/>
      </contour>
      <contour>
        <pt x="321" y="28" on="1"/>
        <pt x="378" y="28" on="1"/>
        <pt x="378" y="602" on="1"/>
        <pt x="321" y="602" on="1"/>
        <pt x="235" y="602" on="0"/>
        <pt x="120" y="448" on="0"/>
        <pt x="120" y="182" on="0"/>
        <pt x="235" y="28" on="0"/>
      </contour>
    </TTGlyph>
    <TTGlyph name="Oacute" xMin="35" yMin="-12" xMax="608" yMax="846">
      <component glyphName="O" x="0" y="0" flags="0x1004"/>
      <component glyphName="acute" x="256" y="198" flags="0x1004"/>
    </TTGlyph>
    <TTGlyph name="Ocircumflex" xMin="35" yMin="-12" xMax="608" yMax="846">
      <contour>
        <pt x="35" y="162" on="0"/>
        <pt x="35" y="468" on="0"/>
        <pt x="194" y="642" on="0"/>
        <pt x="449" y="642" on="0"/>
        <pt x="608" y="468" on="0"/>
        <pt x="608" y="162" on="0"/>
        <pt x="449" y="-12" on="0"/>
        <pt x="194" y="-12" on="0"/>
      </contour>
      <contour>
        <pt x="120" y="454" on="0"/>
        <pt x="120" y="176" on="0"/>
        <pt x="235" y="14" on="0"/>
        <pt x="407" y="14" on="0"/>
        <pt x="523" y="176" on="0"/>
        <pt x="523" y="454" on="0"/>
        <pt x="407" y="616" on="0"/>
        <pt x="235" y="616" on="0"/>
      </contour>
      <contour>
        <pt x="278" y="812" on="1"/>
        <pt x="294" y="846" on="0"/>
        <pt x="348" y="846" on="0"/>
        <pt x="364" y="812" on="1"/>
        <pt x="425" y="678" on="1"/>
        <pt x="409" y="666" on="1"/>
        <pt x="320" y="781" on="1"/>
        <pt x="233" y="666" on="1"/>
        <pt x="217" y="678" on="1"/>
      </contour>
    </TTGlyph>
    <TTGlyph name="Odieresis" xMin="35" yMin="-12" xMax="608" yMax="821">
      <component glyphName="O" x="0" y="0" flags="0x1004"/>
      <component glyphName="dieresis" x="187" y="198" flags="0x1004"/>
    </TTGlyph>
    <TTGlyph name="Ograve" xMin="35" yMin="-12" xMax="608" yMax="846">
      <contour>
        <pt x="35" y="162" on="0"/>
        <pt x="35" y="468" on="0"/>
        <pt x="194" y="642" on="0"/>
        <pt x="449" y="642" on="0"/>
        <pt x="608" y="468" on="0"/>
        <pt x="608" y="162" on="0"/>
        <pt x="449" y="-12" on="0"/>
        <pt x="194" y="-12" on="0"/>
      </contour>
      <contour>
        <pt x="120" y="454" on="0"/>
        <pt x="120" y="176" on="0"/>
        <pt x="235" y="14" on="0"/>
        <pt x="407" y="14" on="0"/>
        <pt x="523" y="176" on="0"/>
        <pt x="523" y="454" on="0"/>
        <pt x="407" y="616" on="0"/>
        <pt x="235" y="616" on="0"/>
      </contour>
      <contour>
        <pt x="325" y="812" on="1"/>
        <pt x="396" y="678" on="1"/>
        <pt x="380" y="666" on="1"/>
        <pt x="246" y="800" on="1"/>
        <pt x="246" y="823" on="0"/>
        <pt x="268" y="846" on="0"/>
        <pt x="282" y="846" on="1"/>
        <pt x="307" y="846" on="0"/>
      </contour>
    </TTGlyph>
    <TTGlyph name="Omega" xMin="70" yMin="0" xMax="688" yMax="672">
      <contour>
        <pt x="473" y="646" on="0"/>
        <pt x="285" y="646" on="0"/>
        <pt x="158" y="496" on="0"/>
        <pt x="158" y="367" on="1"/>
        <pt x="158" y="287" on="0"/>
        <pt x="228" y="154" on="0"/>
        <pt x="278" y="117" on="1"/>
        <pt x="278" y="0" on="1"/>
        <pt x="70" y="0" on="1"/>
        <pt x="70" y="18" on="1"/>
        <pt x="194" y="18" on="1"/>
        <pt x="204" y="18" on="0"/>
        <pt x="208" y="32" on="1"/>
        <pt x="212" y="115" on="1"/>
        <pt x="151" y="157" on="0"/>
        <pt x="73" y="286" on="0"/>
        <pt x="73" y="367" on="1"/>
        <pt x="73" y="509" on="0"/>
        <pt x="243" y="672" on="0"/>
        <pt x="515" y="672" on="0"/>
        <pt x="685" y="509" on="0"/>
        <pt x="685" y="367" on="1"/>
        <pt x="685" y="286" on="0"/>
        <pt x="607" y="157" on="0"/>
        <pt x="546" y="115" on="1"/>
        <pt x="550" y="32" on="1"/>
        <pt x="554" y="18" on="0"/>
        <pt x="564" y="18" on="1"/>
        <pt x="688" y="18" on="1"/>
        <pt x="688" y="0" on="1"/>
        <pt x="480" y="0" on="1"/>
        <pt x="480" y="117" on="1"/>
        <pt x="530" y="154" on="0"/>
        <pt x="600" y="287" on="0"/>
        <pt x="600" y="367" on="1"/>
        <pt x="600" y="496" on="0"/>
      </contour>
    </TTGlyph>
    <TTGlyph name="Oslash" xMin="35" yMin="-43" xMax="608" yMax="679">
      <contour>
        <pt x="35" y="162" on="0"/>
        <pt x="35" y="468" on="0"/>
        <pt x="194" y="642" on="0"/>
        <pt x="449" y="642" on="0"/>
        <pt x="608" y="468" on="0"/>
        <pt x="608" y="162" on="0"/>
        <pt x="449" y="-12" on="0"/>
        <pt x="194" y="-12" on="0"/>
      </contour>
      <contour>
        <pt x="120" y="454" on="0"/>
        <pt x="120" y="176" on="0"/>
        <pt x="235" y="14" on="0"/>
        <pt x="407" y="14" on="0"/>
        <pt x="523" y="176" on="0"/>
        <pt x="523" y="454" on="0"/>
        <pt x="407" y="616" on="0"/>
        <pt x="235" y="616" on="0"/>
      </contour>
      <contour>
        <pt x="216" y="-43" on="1"/>
        <pt x="177" y="-43" on="1"/>
        <pt x="426" y="679" on="1"/>
        <pt x="466" y="679" on="1"/>
      </contour>
    </TTGlyph>
    <TTGlyph name="Otilde" xMin="35" yMin="-12" xMax="608" yMax="822">
      <component glyphName="O" x="0" y="0" flags="0x1004"/>
      <component glyphName="tilde" x="182" y="198" flags="0x1004"/>
    </TTGlyph>
    <TTGlyph name="P" xMin="35" yMin="0" xMax="481" yMax="630">
      <contour>
        <pt x="35" y="612" on="1"/>
        <pt x="35" y="630" on="1"/>
        <pt x="279" y="630" on="1"/>
        <pt x="364" y="630" on="0"/>
        <pt x="481" y="527" on="0"/>
        <pt x="481" y="353" on="0"/>
        <pt x="364" y="250" on="0"/>
        <pt x="279" y="250" on="1"/>
        <pt x="178" y="250" on="1"/>
        <pt x="178" y="32" on="1"/>
        <pt x="178" y="18" on="0"/>
        <pt x="192" y="18" on="1"/>
        <pt x="259" y="18" on="1"/>
        <pt x="259" y="0" on="1"/>
        <pt x="35" y="0" on="1"/>
        <pt x="35" y="18" on="1"/>
        <pt x="82" y="18" on="1"/>
        <pt x="96" y="18" on="0"/>
        <pt x="96" y="32" on="1"/>
        <pt x="96" y="600" on="1"/>
        <pt x="96" y="612" on="0"/>
        <pt x="82" y="612" on="1"/>
      </contour>
      <contour>
        <pt x="274" y="602" on="1"/>
        <pt x="178" y="602" on="1"/>
        <pt x="178" y="278" on="1"/>
        <pt x="274" y="278" on="1"/>
        <pt x="333" y="278" on="0"/>
        <pt x="401" y="375" on="0"/>
        <pt x="401" y="505" on="0"/>
        <pt x="333" y="602" on="0"/>
      </contour>
    </TTGlyph>
    <TTGlyph name="Q" xMin="35" yMin="-191" xMax="608" yMax="642">
      <contour>
        <pt x="173" y="2" on="0"/>
        <pt x="35" y="173" on="0"/>
        <pt x="35" y="468" on="0"/>
        <pt x="194" y="642" on="0"/>
        <pt x="449" y="642" on="0"/>
        <pt x="608" y="468" on="0"/>
        <pt x="608" y="174" on="0"/>
        <pt x="471" y="3" on="0"/>
        <pt x="358" y="-10" on="1"/>
        <pt x="364" y="-77" on="1"/>
        <pt x="367" y="-114" on="0"/>
        <pt x="404" y="-158" on="0"/>
        <pt x="451" y="-167" on="1"/>
        <pt x="447" y="-191" on="1"/>
        <pt x="361" y="-182" on="0"/>
        <pt x="298" y="-123" on="0"/>
        <pt x="292" y="-59" on="1"/>
        <pt x="287" y="-10" on="1"/>
      </contour>
      <contour>
        <pt x="120" y="454" on="0"/>
        <pt x="120" y="176" on="0"/>
        <pt x="235" y="14" on="0"/>
        <pt x="407" y="14" on="0"/>
        <pt x="523" y="176" on="0"/>
        <pt x="523" y="454" on="0"/>
        <pt x="407" y="616" on="0"/>
        <pt x="235" y="616" on="0"/>
      </contour>
    </TTGlyph>
    <TTGlyph name="R" xMin="35" yMin="-12" xMax="537" yMax="630">
      <contour>
        <pt x="483" y="21" on="1"/>
        <pt x="498" y="21" on="0"/>
        <pt x="517" y="46" on="0"/>
        <pt x="517" y="81" on="0"/>
        <pt x="514" y="96" on="1"/>
        <pt x="533" y="99" on="1"/>
        <pt x="537" y="84" on="0"/>
        <pt x="537" y="66" on="1"/>
        <pt x="537" y="30" on="0"/>
        <pt x="494" y="-12" on="0"/>
        <pt x="460" y="-12" on="1"/>
        <pt x="375" y="-12" on="0"/>
        <pt x="375" y="194" on="0"/>
        <pt x="323" y="291" on="0"/>
        <pt x="243" y="291" on="1"/>
        <pt x="178" y="291" on="1"/>
        <pt x="178" y="32" on="1"/>
        <pt x="178" y="18" on="0"/>
        <pt x="192" y="18" on="1"/>
        <pt x="259" y="18" on="1"/>
        <pt x="259" y="0" on="1"/>
        <pt x="35" y="0" on="1"/>
        <pt x="35" y="18" on="1"/>
        <pt x="82" y="18" on="1"/>
        <pt x="96" y="18" on="0"/>
        <pt x="96" y="32" on="1"/>
        <pt x="96" y="600" on="1"/>
        <pt x="96" y="612" on="0"/>
        <pt x="82" y="612" on="1"/>
        <pt x="35" y="612" on="1"/>
        <pt x="35" y="630" on="1"/>
        <pt x="284" y="630" on="1"/>
        <pt x="368" y="630" on="0"/>
        <pt x="486" y="538" on="0"/>
        <pt x="486" y="461" on="1"/>
        <pt x="486" y="399" on="0"/>
        <pt x="409" y="314" on="0"/>
        <pt x="346" y="298" on="1"/>
        <pt x="417" y="274" on="0"/>
        <pt x="436" y="212" on="1"/>
        <pt x="451" y="161" on="0"/>
        <pt x="451" y="21" on="0"/>
      </contour>
      <contour>
        <pt x="279" y="602" on="1"/>
        <pt x="178" y="602" on="1"/>
        <pt x="178" y="320" on="1"/>
        <pt x="279" y="320" on="1"/>
        <pt x="339" y="320" on="0"/>
        <pt x="406" y="404" on="0"/>
        <pt x="406" y="518" on="0"/>
        <pt x="339" y="602" on="0"/>
      </contour>
    </TTGlyph>
    <TTGlyph name="S" xMin="50" yMin="-12" xMax="457" yMax="642">
      <contour>
        <pt x="248" y="-12" on="1"/>
        <pt x="182" y="-12" on="0"/>
        <pt x="116" y="24" on="1"/>
        <pt x="94" y="35" on="0"/>
        <pt x="86" y="35" on="1"/>
        <pt x="71" y="35" on="0"/>
        <pt x="70" y="14" on="1"/>
        <pt x="69" y="0" on="1"/>
        <pt x="50" y="0" on="1"/>
        <pt x="50" y="167" on="1"/>
        <pt x="68" y="167" on="1"/>
        <pt x="77" y="90" on="0"/>
        <pt x="174" y="17" on="0"/>
        <pt x="307" y="17" on="0"/>
        <pt x="376" y="89" on="0"/>
        <pt x="376" y="138" on="1"/>
        <pt x="376" y="216" on="0"/>
        <pt x="286" y="256" on="1"/>
        <pt x="167" y="309" on="1"/>
        <pt x="113" y="333" on="0"/>
        <pt x="59" y="416" on="0"/>
        <pt x="59" y="464" on="1"/>
        <pt x="59" y="537" on="0"/>
        <pt x="157" y="642" on="0"/>
        <pt x="249" y="642" on="1"/>
        <pt x="303" y="642" on="0"/>
        <pt x="360" y="606" on="1"/>
        <pt x="379" y="595" on="0"/>
        <pt x="386" y="595" on="1"/>
        <pt x="399" y="595" on="0"/>
        <pt x="400" y="616" on="1"/>
        <pt x="401" y="636" on="1"/>
        <pt x="420" y="636" on="1"/>
        <pt x="420" y="463" on="1"/>
        <pt x="402" y="463" on="1"/>
        <pt x="394" y="540" on="0"/>
        <pt x="311" y="613" on="0"/>
        <pt x="192" y="613" on="0"/>
        <pt x="127" y="548" on="0"/>
        <pt x="127" y="465" on="0"/>
        <pt x="172" y="399" on="0"/>
        <pt x="216" y="380" on="1"/>
        <pt x="336" y="327" on="1"/>
        <pt x="396" y="300" on="0"/>
        <pt x="457" y="213" on="0"/>
        <pt x="457" y="163" on="1"/>
        <pt x="457" y="92" on="0"/>
        <pt x="343" y="-12" on="0"/>
      </contour>
    </TTGlyph>
    <TTGlyph name="Scaron" xMin="50" yMin="-12" xMax="457" yMax="868">
      <contour>
        <pt x="248" y="-12" on="1"/>
        <pt x="182" y="-12" on="0"/>
        <pt x="116" y="24" on="1"/>
        <pt x="94" y="35" on="0"/>
        <pt x="86" y="35" on="1"/>
        <pt x="71" y="35" on="0"/>
        <pt x="70" y="14" on="1"/>
        <pt x="69" y="0" on="1"/>
        <pt x="50" y="0" on="1"/>
        <pt x="50" y="167" on="1"/>
        <pt x="68" y="167" on="1"/>
        <pt x="77" y="90" on="0"/>
        <pt x="174" y="17" on="0"/>
        <pt x="307" y="17" on="0"/>
        <pt x="376" y="89" on="0"/>
        <pt x="376" y="138" on="1"/>
        <pt x="376" y="216" on="0"/>
        <pt x="286" y="256" on="1"/>
        <pt x="167" y="309" on="1"/>
        <pt x="113" y="333" on="0"/>
        <pt x="59" y="416" on="0"/>
        <pt x="59" y="464" on="1"/>
        <pt x="59" y="537" on="0"/>
        <pt x="157" y="642" on="0"/>
        <pt x="249" y="642" on="1"/>
        <pt x="303" y="642" on="0"/>
        <pt x="360" y="606" on="1"/>
        <pt x="379" y="595" on="0"/>
        <pt x="386" y="595" on="1"/>
        <pt x="399" y="595" on="0"/>
        <pt x="400" y="616" on="1"/>
        <pt x="401" y="636" on="1"/>
        <pt x="420" y="636" on="1"/>
        <pt x="420" y="463" on="1"/>
        <pt x="402" y="463" on="1"/>
        <pt x="394" y="540" on="0"/>
        <pt x="311" y="613" on="0"/>
        <pt x="192" y="613" on="0"/>
        <pt x="127" y="548" on="0"/>
        <pt x="127" y="465" on="0"/>
        <pt x="172" y="399" on="0"/>
        <pt x="216" y="380" on="1"/>
        <pt x="336" y="327" on="1"/>
        <pt x="396" y="300" on="0"/>
        <pt x="457" y="213" on="0"/>
        <pt x="457" y="163" on="1"/>
        <pt x="457" y="92" on="0"/>
        <pt x="343" y="-12" on="0"/>
      </contour>
      <contour>
        <pt x="291" y="722" on="1"/>
        <pt x="275" y="688" on="0"/>
        <pt x="221" y="688" on="0"/>
        <pt x="205" y="722" on="1"/>
        <pt x="144" y="856" on="1"/>
        <pt x="160" y="868" on="1"/>
        <pt x="249" y="753" on="1"/>
        <pt x="336" y="868" on="1"/>
        <pt x="352" y="856" on="1"/>
      </contour>
    </TTGlyph>
    <TTGlyph name="T" xMin="5" yMin="0" xMax="495" yMax="639">
      <contour>
        <pt x="291" y="602" on="1"/>
        <pt x="291" y="30" on="1"/>
        <pt x="291" y="18" on="0"/>
        <pt x="305" y="18" on="1"/>
        <pt x="392" y="18" on="1"/>
        <pt x="392" y="0" on="1"/>
        <pt x="108" y="0" on="1"/>
        <pt x="108" y="18" on="1"/>
        <pt x="195" y="18" on="1"/>
        <pt x="209" y="18" on="0"/>
        <pt x="209" y="30" on="1"/>
        <pt x="209" y="602" on="1"/>
        <pt x="80" y="602" on="1"/>
        <pt x="54" y="602" on="0"/>
        <pt x="52" y="580" on="1"/>
        <pt x="37" y="463" on="1"/>
        <pt x="14" y="463" on="1"/>
        <pt x="14" y="510" on="1"/>
        <pt x="14" y="598" on="0"/>
        <pt x="5" y="639" on="1"/>
        <pt x="37" y="630" on="0"/>
        <pt x="116" y="630" on="1"/>
        <pt x="384" y="630" on="1"/>
        <pt x="463" y="630" on="0"/>
        <pt x="495" y="639" on="1"/>
        <pt x="486" y="598" on="0"/>
        <pt x="486" y="510" on="1"/>
        <pt x="486" y="463" on="1"/>
        <pt x="463" y="463" on="1"/>
        <pt x="448" y="580" on="1"/>
        <pt x="446" y="602" on="0"/>
        <pt x="420" y="602" on="1"/>
      </contour>
    </TTGlyph>
    <TTGlyph name="Thorn" xMin="35" yMin="0" xMax="471" yMax="630">
      <contour>
        <pt x="123" y="153" on="1"/>
        <pt x="264" y="153" on="1"/>
        <pt x="323" y="153" on="0"/>
        <pt x="391" y="250" on="0"/>
        <pt x="391" y="380" on="0"/>
        <pt x="324" y="476" on="0"/>
        <pt x="264" y="476" on="1"/>
        <pt x="123" y="476" on="1"/>
        <pt x="123" y="504" on="1"/>
        <pt x="269" y="504" on="1"/>
        <pt x="354" y="504" on="0"/>
        <pt x="471" y="402" on="0"/>
        <pt x="471" y="228" on="0"/>
        <pt x="354" y="125" on="0"/>
        <pt x="269" y="125" on="1"/>
        <pt x="123" y="125" on="1"/>
      </contour>
      <contour>
        <pt x="96" y="32" on="1"/>
        <pt x="96" y="600" on="1"/>
        <pt x="96" y="612" on="0"/>
        <pt x="82" y="612" on="1"/>
        <pt x="35" y="612" on="1"/>
        <pt x="35" y="630" on="1"/>
        <pt x="239" y="630" on="1"/>
        <pt x="239" y="612" on="1"/>
        <pt x="192" y="612" on="1"/>
        <pt x="178" y="612" on="0"/>
        <pt x="178" y="600" on="1"/>
        <pt x="178" y="32" on="1"/>
        <pt x="178" y="18" on="0"/>
        <pt x="192" y="18" on="1"/>
        <pt x="239" y="18" on="1"/>
        <pt x="239" y="0" on="1"/>
        <pt x="35" y="0" on="1"/>
        <pt x="35" y="18" on="1"/>
        <pt x="82" y="18" on="1"/>
        <pt x="96" y="18" on="0"/>
      </contour>
    </TTGlyph>
    <TTGlyph name="U" xMin="25" yMin="-12" xMax="589" yMax="630">
      <contour>
        <pt x="589" y="630" on="1"/>
        <pt x="589" y="612" on="1"/>
        <pt x="542" y="612" on="1"/>
        <pt x="528" y="612" on="0"/>
        <pt x="528" y="600" on="1"/>
        <pt x="528" y="195" on="1"/>
        <pt x="528" y="91" on="0"/>
        <pt x="408" y="-12" on="0"/>
        <pt x="206" y="-12" on="0"/>
        <pt x="86" y="91" on="0"/>
        <pt x="86" y="195" on="1"/>
        <pt x="86" y="600" on="1"/>
        <pt x="86" y="612" on="0"/>
        <pt x="72" y="612" on="1"/>
        <pt x="25" y="612" on="1"/>
        <pt x="25" y="630" on="1"/>
        <pt x="229" y="630" on="1"/>
        <pt x="229" y="612" on="1"/>
        <pt x="182" y="612" on="1"/>
        <pt x="168" y="612" on="0"/>
        <pt x="168" y="600" on="1"/>
        <pt x="168" y="188" on="1"/>
        <pt x="168" y="104" on="0"/>
        <pt x="251" y="23" on="0"/>
        <pt x="394" y="23" on="0"/>
        <pt x="494" y="104" on="0"/>
        <pt x="494" y="195" on="1"/>
        <pt x="494" y="600" on="1"/>
        <pt x="494" y="612" on="0"/>
        <pt x="480" y="612" on="1"/>
        <pt x="433" y="612" on="1"/>
        <pt x="433" y="630" on="1"/>
      </contour>
    </TTGlyph>
    <TTGlyph name="Uacute" xMin="25" yMin="-12" xMax="589" yMax="846">
      <component glyphName="U" x="0" y="0" flags="0x1004"/>
      <component glyphName="acute" x="282" y="198" flags="0x1004"/>
    </TTGlyph>
    <TTGlyph name="Ucircumflex" xMin="25" yMin="-12" xMax="589" yMax="846">
      <contour>
        <pt x="589" y="630" on="1"/>
        <pt x="589" y="612" on="1"/>
        <pt x="542" y="612" on="1"/>
        <pt x="528" y="612" on="0"/>
        <pt x="528" y="600" on="1"/>
        <pt x="528" y="195" on="1"/>
        <pt x="528" y="91" on="0"/>
        <pt x="408" y="-12" on="0"/>
        <pt x="206" y="-12" on="0"/>
        <pt x="86" y="91" on="0"/>
        <pt x="86" y="195" on="1"/>
        <pt x="86" y="600" on="1"/>
        <pt x="86" y="612" on="0"/>
        <pt x="72" y="612" on="1"/>
        <pt x="25" y="612" on="1"/>
        <pt x="25" y="630" on="1"/>
        <pt x="229" y="630" on="1"/>
        <pt x="229" y="612" on="1"/>
        <pt x="182" y="612" on="1"/>
        <pt x="168" y="612" on="0"/>
        <pt x="168" y="600" on="1"/>
        <pt x="168" y="188" on="1"/>
        <pt x="168" y="104" on="0"/>
        <pt x="251" y="23" on="0"/>
        <pt x="394" y="23" on="0"/>
        <pt x="494" y="104" on="0"/>
        <pt x="494" y="195" on="1"/>
        <pt x="494" y="600" on="1"/>
        <pt x="494" y="612" on="0"/>
        <pt x="480" y="612" on="1"/>
        <pt x="433" y="612" on="1"/>
        <pt x="433" y="630" on="1"/>
      </contour>
      <contour>
        <pt x="290" y="812" on="1"/>
        <pt x="306" y="846" on="0"/>
        <pt x="360" y="846" on="0"/>
        <pt x="376" y="812" on="1"/>
        <pt x="437" y="678" on="1"/>
        <pt x="421" y="666" on="1"/>
        <pt x="332" y="781" on="1"/>
        <pt x="245" y="666" on="1"/>
        <pt x="229" y="678" on="1"/>
      </contour>
    </TTGlyph>
    <TTGlyph name="Udieresis" xMin="25" yMin="-12" xMax="589" yMax="821">
      <component glyphName="U" x="0" y="0" flags="0x1004"/>
      <component glyphName="dieresis" x="202" y="198" flags="0x1004"/>
    </TTGlyph>
    <TTGlyph name="Ugrave" xMin="25" yMin="-12" xMax="589" yMax="846">
      <contour>
        <pt x="589" y="630" on="1"/>
        <pt x="589" y="612" on="1"/>
        <pt x="542" y="612" on="1"/>
        <pt x="528" y="612" on="0"/>
        <pt x="528" y="600" on="1"/>
        <pt x="528" y="195" on="1"/>
        <pt x="528" y="91" on="0"/>
        <pt x="408" y="-12" on="0"/>
        <pt x="206" y="-12" on="0"/>
        <pt x="86" y="91" on="0"/>
        <pt x="86" y="195" on="1"/>
        <pt x="86" y="600" on="1"/>
        <pt x="86" y="612" on="0"/>
        <pt x="72" y="612" on="1"/>
        <pt x="25" y="612" on="1"/>
        <pt x="25" y="630" on="1"/>
        <pt x="229" y="630" on="1"/>
        <pt x="229" y="612" on="1"/>
        <pt x="182" y="612" on="1"/>
        <pt x="168" y="612" on="0"/>
        <pt x="168" y="600" on="1"/>
        <pt x="168" y="188" on="1"/>
        <pt x="168" y="104" on="0"/>
        <pt x="251" y="23" on="0"/>
        <pt x="394" y="23" on="0"/>
        <pt x="494" y="104" on="0"/>
        <pt x="494" y="195" on="1"/>
        <pt x="494" y="600" on="1"/>
        <pt x="494" y="612" on="0"/>
        <pt x="480" y="612" on="1"/>
        <pt x="433" y="612" on="1"/>
        <pt x="433" y="630" on="1"/>
      </contour>
      <contour>
        <pt x="306" y="812" on="1"/>
        <pt x="377" y="678" on="1"/>
        <pt x="361" y="666" on="1"/>
        <pt x="227" y="800" on="1"/>
        <pt x="227" y="823" on="0"/>
        <pt x="249" y="846" on="0"/>
        <pt x="263" y="846" on="1"/>
        <pt x="288" y="846" on="0"/>
      </contour>
    </TTGlyph>
    <TTGlyph name="V" xMin="5" yMin="0" xMax="561" yMax="630">
      <contour>
        <pt x="5" y="630" on="1"/>
        <pt x="195" y="630" on="1"/>
        <pt x="195" y="612" on="1"/>
        <pt x="145" y="612" on="1"/>
        <pt x="308" y="124" on="1"/>
        <pt x="475" y="612" on="1"/>
        <pt x="425" y="612" on="1"/>
        <pt x="425" y="630" on="1"/>
        <pt x="561" y="630" on="1"/>
        <pt x="561" y="612" on="1"/>
        <pt x="524" y="612" on="1"/>
        <pt x="510" y="612" on="0"/>
        <pt x="505" y="598" on="1"/>
        <pt x="300" y="0" on="1"/>
        <pt x="266" y="0" on="1"/>
        <pt x="61" y="598" on="1"/>
        <pt x="56" y="612" on="0"/>
        <pt x="42" y="612" on="1"/>
        <pt x="5" y="612" on="1"/>
      </contour>
    </TTGlyph>
    <TTGlyph name="W" xMin="5" yMin="0" xMax="880" yMax="630">
      <contour>
        <pt x="744" y="630" on="1"/>
        <pt x="880" y="630" on="1"/>
        <pt x="880" y="612" on="1"/>
        <pt x="843" y="612" on="1"/>
        <pt x="829" y="612" on="0"/>
        <pt x="824" y="598" on="1"/>
        <pt x="639" y="0" on="1"/>
        <pt x="605" y="0" on="1"/>
        <pt x="442" y="498" on="1"/>
        <pt x="280" y="0" on="1"/>
        <pt x="246" y="0" on="1"/>
        <pt x="61" y="598" on="1"/>
        <pt x="56" y="612" on="0"/>
        <pt x="42" y="612" on="1"/>
        <pt x="5" y="612" on="1"/>
        <pt x="5" y="630" on="1"/>
        <pt x="195" y="630" on="1"/>
        <pt x="195" y="612" on="1"/>
        <pt x="145" y="612" on="1"/>
        <pt x="288" y="129" on="1"/>
        <pt x="425" y="551" on="1"/>
        <pt x="410" y="598" on="1"/>
        <pt x="405" y="612" on="0"/>
        <pt x="391" y="612" on="1"/>
        <pt x="354" y="612" on="1"/>
        <pt x="354" y="630" on="1"/>
        <pt x="544" y="630" on="1"/>
        <pt x="544" y="612" on="1"/>
        <pt x="494" y="612" on="1"/>
        <pt x="645" y="132" on="1"/>
        <pt x="794" y="612" on="1"/>
        <pt x="744" y="612" on="1"/>
      </contour>
    </TTGlyph>
    <TTGlyph name="X" xMin="0" yMin="0" xMax="535" yMax="630">
      <contour>
        <pt x="154" y="612" on="1"/>
        <pt x="287" y="374" on="1"/>
        <pt x="439" y="612" on="1"/>
        <pt x="389" y="612" on="1"/>
        <pt x="389" y="630" on="1"/>
        <pt x="526" y="630" on="1"/>
        <pt x="526" y="612" on="1"/>
        <pt x="489" y="612" on="1"/>
        <pt x="480" y="612" on="0"/>
        <pt x="470" y="598" on="1"/>
        <pt x="305" y="342" on="1"/>
        <pt x="479" y="32" on="1"/>
        <pt x="486" y="18" on="0"/>
        <pt x="498" y="18" on="1"/>
        <pt x="535" y="18" on="1"/>
        <pt x="535" y="0" on="1"/>
        <pt x="341" y="0" on="1"/>
        <pt x="341" y="18" on="1"/>
        <pt x="391" y="18" on="1"/>
        <pt x="249" y="271" on="1"/>
        <pt x="87" y="18" on="1"/>
        <pt x="137" y="18" on="1"/>
        <pt x="137" y="0" on="1"/>
        <pt x="0" y="0" on="1"/>
        <pt x="0" y="18" on="1"/>
        <pt x="37" y="18" on="1"/>
        <pt x="46" y="18" on="0"/>
        <pt x="56" y="32" on="1"/>
        <pt x="231" y="303" on="1"/>
        <pt x="66" y="598" on="1"/>
        <pt x="59" y="612" on="0"/>
        <pt x="47" y="612" on="1"/>
        <pt x="10" y="612" on="1"/>
        <pt x="10" y="630" on="1"/>
        <pt x="204" y="630" on="1"/>
        <pt x="204" y="612" on="1"/>
      </contour>
    </TTGlyph>
    <TTGlyph name="Y" xMin="5" yMin="0" xMax="522" yMax="630">
      <contour>
        <pt x="386" y="630" on="1"/>
        <pt x="522" y="630" on="1"/>
        <pt x="522" y="612" on="1"/>
        <pt x="485" y="612" on="1"/>
        <pt x="471" y="612" on="0"/>
        <pt x="466" y="598" on="1"/>
        <pt x="313" y="229" on="1"/>
        <pt x="313" y="32" on="1"/>
        <pt x="313" y="18" on="0"/>
        <pt x="327" y="18" on="1"/>
        <pt x="399" y="18" on="1"/>
        <pt x="399" y="0" on="1"/>
        <pt x="145" y="0" on="1"/>
        <pt x="145" y="18" on="1"/>
        <pt x="217" y="18" on="1"/>
        <pt x="231" y="18" on="0"/>
        <pt x="231" y="32" on="1"/>
        <pt x="231" y="230" on="1"/>
        <pt x="61" y="598" on="1"/>
        <pt x="54" y="612" on="0"/>
        <pt x="42" y="612" on="1"/>
        <pt x="5" y="612" on="1"/>
        <pt x="5" y="630" on="1"/>
        <pt x="196" y="630" on="1"/>
        <pt x="196" y="612" on="1"/>
        <pt x="146" y="612" on="1"/>
        <pt x="299" y="280" on="1"/>
        <pt x="436" y="612" on="1"/>
        <pt x="386" y="612" on="1"/>
      </contour>
    </TTGlyph>
    <TTGlyph name="Yacute" xMin="5" yMin="0" xMax="522" yMax="846">
      <component glyphName="Y" x="0" y="0" flags="0x1004"/>
      <component glyphName="acute" x="238" y="198" flags="0x1004"/>
    </TTGlyph>
    <TTGlyph name="Ydieresis" xMin="5" yMin="0" xMax="522" yMax="821">
      <contour>
        <pt x="386" y="630" on="1"/>
        <pt x="522" y="630" on="1"/>
        <pt x="522" y="612" on="1"/>
        <pt x="485" y="612" on="1"/>
        <pt x="471" y="612" on="0"/>
        <pt x="466" y="598" on="1"/>
        <pt x="313" y="229" on="1"/>
        <pt x="313" y="32" on="1"/>
        <pt x="313" y="18" on="0"/>
        <pt x="327" y="18" on="1"/>
        <pt x="399" y="18" on="1"/>
        <pt x="399" y="0" on="1"/>
        <pt x="145" y="0" on="1"/>
        <pt x="145" y="18" on="1"/>
        <pt x="217" y="18" on="1"/>
        <pt x="231" y="18" on="0"/>
        <pt x="231" y="32" on="1"/>
        <pt x="231" y="230" on="1"/>
        <pt x="61" y="598" on="1"/>
        <pt x="54" y="612" on="0"/>
        <pt x="42" y="612" on="1"/>
        <pt x="5" y="612" on="1"/>
        <pt x="5" y="630" on="1"/>
        <pt x="196" y="630" on="1"/>
        <pt x="196" y="612" on="1"/>
        <pt x="146" y="612" on="1"/>
        <pt x="299" y="280" on="1"/>
        <pt x="436" y="612" on="1"/>
        <pt x="386" y="612" on="1"/>
      </contour>
      <contour>
        <pt x="165" y="754" on="0"/>
        <pt x="165" y="794" on="0"/>
        <pt x="192" y="821" on="0"/>
        <pt x="232" y="821" on="0"/>
        <pt x="259" y="794" on="0"/>
        <pt x="259" y="754" on="0"/>
        <pt x="232" y="727" on="0"/>
        <pt x="192" y="727" on="0"/>
      </contour>
      <contour>
        <pt x="339" y="754" on="0"/>
        <pt x="339" y="794" on="0"/>
        <pt x="366" y="821" on="0"/>
        <pt x="406" y="821" on="0"/>
        <pt x="433" y="794" on="0"/>
        <pt x="433" y="754" on="0"/>
        <pt x="406" y="727" on="0"/>
        <pt x="366" y="727" on="0"/>
      </contour>
    </TTGlyph>
    <TTGlyph name="Z" xMin="30" yMin="-9" xMax="485" yMax="639">
      <contour>
        <pt x="30" y="0" on="1"/>
        <pt x="30" y="28" on="1"/>
        <pt x="388" y="602" on="1"/>
        <pt x="126" y="602" on="1"/>
        <pt x="100" y="602" on="0"/>
        <pt x="98" y="580" on="1"/>
        <pt x="83" y="463" on="1"/>
        <pt x="60" y="463" on="1"/>
        <pt x="60" y="510" on="1"/>
        <pt x="60" y="598" on="0"/>
        <pt x="51" y="639" on="1"/>
        <pt x="83" y="630" on="0"/>
        <pt x="162" y="630" on="1"/>
        <pt x="485" y="630" on="1"/>
        <pt x="485" y="602" on="1"/>
        <pt x="126" y="28" on="1"/>
        <pt x="410" y="28" on="1"/>
        <pt x="436" y="28" on="0"/>
        <pt x="438" y="50" on="1"/>
        <pt x="453" y="167" on="1"/>
        <pt x="476" y="167" on="1"/>
        <pt x="476" y="120" on="1"/>
        <pt x="476" y="32" on="0"/>
        <pt x="485" y="-9" on="1"/>
        <pt x="453" y="0" on="0"/>
        <pt x="374" y="0" on="1"/>
      </contour>
    </TTGlyph>
    <TTGlyph name="Zcaron" xMin="30" yMin="-9" xMax="485" yMax="868">
      <component glyphName="Z" x="0" y="0" flags="0x1004"/>
      <component glyphName="caron" x="153" y="198" flags="0x1004"/>
    </TTGlyph>
    <TTGlyph name="a" xMin="40" yMin="-12" xMax="444" yMax="444">
      <contour>
        <pt x="286" y="233" on="1"/>
        <pt x="287" y="268" on="1"/>
        <pt x="287" y="303" on="1"/>
        <pt x="287" y="420" on="0"/>
        <pt x="211" y="420" on="1"/>
        <pt x="178" y="420" on="0"/>
        <pt x="141" y="375" on="0"/>
        <pt x="141" y="315" on="0"/>
        <pt x="149" y="293" on="1"/>
        <pt x="132" y="278" on="0"/>
        <pt x="72" y="278" on="0"/>
        <pt x="72" y="376" on="0"/>
        <pt x="149" y="444" on="0"/>
        <pt x="220" y="444" on="1"/>
        <pt x="359" y="444" on="0"/>
        <pt x="359" y="280" on="1"/>
        <pt x="359" y="75" on="1"/>
        <pt x="359" y="21" on="0"/>
        <pt x="389" y="21" on="1"/>
        <pt x="403" y="21" on="0"/>
        <pt x="424" y="47" on="0"/>
        <pt x="424" y="81" on="0"/>
        <pt x="421" y="96" on="1"/>
        <pt x="440" y="99" on="1"/>
        <pt x="444" y="84" on="0"/>
        <pt x="444" y="66" on="1"/>
        <pt x="444" y="30" on="0"/>
        <pt x="401" y="-12" on="0"/>
        <pt x="331" y="-12" on="0"/>
        <pt x="287" y="45" on="0"/>
        <pt x="287" y="102" on="1"/>
        <pt x="287" y="120" on="1"/>
        <pt x="270" y="52" on="0"/>
        <pt x="196" y="-12" on="0"/>
        <pt x="99" y="-12" on="0"/>
        <pt x="40" y="49" on="0"/>
        <pt x="40" y="150" on="0"/>
        <pt x="134" y="229" on="0"/>
        <pt x="222" y="229" on="1"/>
        <pt x="241" y="229" on="0"/>
        <pt x="286" y="224" on="1"/>
      </contour>
      <contour>
        <pt x="170" y="26" on="1"/>
        <pt x="212" y="26" on="0"/>
        <pt x="279" y="121" on="0"/>
        <pt x="285" y="207" on="1"/>
        <pt x="275" y="208" on="0"/>
        <pt x="257" y="208" on="1"/>
        <pt x="177" y="208" on="0"/>
        <pt x="108" y="141" on="0"/>
        <pt x="108" y="97" on="1"/>
        <pt x="108" y="68" on="0"/>
        <pt x="142" y="26" on="0"/>
      </contour>
    </TTGlyph>
    <TTGlyph name="aacute" xMin="40" yMin="-12" xMax="444" yMax="648">
      <component glyphName="a" x="0" y="0" flags="0x1004"/>
      <component glyphName="acute" x="179" y="0" flags="0x1004"/>
    </TTGlyph>
    <TTGlyph name="acircumflex" xMin="40" yMin="-12" xMax="444" yMax="648">
      <component glyphName="a" x="0" y="0" flags="0x1004"/>
      <component glyphName="circumflex" x="109" y="0" flags="0x1004"/>
    </TTGlyph>
    <TTGlyph name="acute" xMin="0" yMin="468" xMax="150" yMax="648">
      <contour>
        <pt x="0" y="480" on="1"/>
        <pt x="71" y="614" on="1"/>
        <pt x="89" y="648" on="0"/>
        <pt x="114" y="648" on="1"/>
        <pt x="128" y="648" on="0"/>
        <pt x="150" y="625" on="0"/>
        <pt x="150" y="602" on="1"/>
        <pt x="16" y="468" on="1"/>
      </contour>
    </TTGlyph>
    <TTGlyph name="adieresis" xMin="40" yMin="-12" xMax="444" yMax="623">
      <component glyphName="a" x="0" y="0" flags="0x1004"/>
      <component glyphName="dieresis" x="93" y="0" flags="0x1004"/>
    </TTGlyph>
    <TTGlyph name="ae" xMin="40" yMin="-12" xMax="639" yMax="444">
      <contour>
        <pt x="222" y="229" on="1"/>
        <pt x="287" y="231" on="1"/>
        <pt x="287" y="303" on="1"/>
        <pt x="287" y="420" on="0"/>
        <pt x="211" y="420" on="1"/>
        <pt x="178" y="420" on="0"/>
        <pt x="141" y="375" on="0"/>
        <pt x="141" y="315" on="0"/>
        <pt x="149" y="293" on="1"/>
        <pt x="132" y="278" on="0"/>
        <pt x="72" y="278" on="0"/>
        <pt x="72" y="376" on="0"/>
        <pt x="149" y="444" on="0"/>
        <pt x="220" y="444" on="1"/>
        <pt x="306" y="444" on="0"/>
        <pt x="339" y="379" on="1"/>
        <pt x="395" y="444" on="0"/>
        <pt x="485" y="444" on="1"/>
        <pt x="554" y="444" on="0"/>
        <pt x="634" y="352" on="0"/>
        <pt x="634" y="263" on="1"/>
        <pt x="634" y="245" on="0"/>
        <pt x="632" y="223" on="1"/>
        <pt x="359" y="211" on="1"/>
        <pt x="360" y="118" on="0"/>
        <pt x="429" y="12" on="0"/>
        <pt x="537" y="12" on="0"/>
        <pt x="607" y="68" on="0"/>
        <pt x="620" y="120" on="1"/>
        <pt x="639" y="116" on="1"/>
        <pt x="627" y="55" on="0"/>
        <pt x="541" y="-12" on="0"/>
        <pt x="417" y="-12" on="0"/>
        <pt x="316" y="65" on="0"/>
        <pt x="297" y="135" on="1"/>
        <pt x="282" y="59" on="0"/>
        <pt x="199" y="-12" on="0"/>
        <pt x="99" y="-12" on="0"/>
        <pt x="40" y="49" on="0"/>
        <pt x="40" y="149" on="0"/>
        <pt x="134" y="226" on="0"/>
      </contour>
      <contour>
        <pt x="565" y="297" on="1"/>
        <pt x="565" y="420" on="0"/>
        <pt x="474" y="420" on="1"/>
        <pt x="427" y="420" on="0"/>
        <pt x="362" y="316" on="0"/>
        <pt x="359" y="233" on="1"/>
        <pt x="560" y="240" on="1"/>
        <pt x="565" y="268" on="0"/>
      </contour>
      <contour>
        <pt x="170" y="26" on="1"/>
        <pt x="212" y="26" on="0"/>
        <pt x="279" y="122" on="0"/>
        <pt x="285" y="208" on="1"/>
        <pt x="260" y="207" on="1"/>
        <pt x="179" y="204" on="0"/>
        <pt x="108" y="140" on="0"/>
        <pt x="108" y="68" on="0"/>
        <pt x="142" y="26" on="0"/>
      </contour>
    </TTGlyph>
    <TTGlyph name="agrave" xMin="40" yMin="-12" xMax="444" yMax="648">
      <contour>
        <pt x="286" y="233" on="1"/>
        <pt x="287" y="268" on="1"/>
        <pt x="287" y="303" on="1"/>
        <pt x="287" y="420" on="0"/>
        <pt x="211" y="420" on="1"/>
        <pt x="178" y="420" on="0"/>
        <pt x="141" y="375" on="0"/>
        <pt x="141" y="315" on="0"/>
        <pt x="149" y="293" on="1"/>
        <pt x="132" y="278" on="0"/>
        <pt x="72" y="278" on="0"/>
        <pt x="72" y="376" on="0"/>
        <pt x="149" y="444" on="0"/>
        <pt x="220" y="444" on="1"/>
        <pt x="359" y="444" on="0"/>
        <pt x="359" y="280" on="1"/>
        <pt x="359" y="75" on="1"/>
        <pt x="359" y="21" on="0"/>
        <pt x="389" y="21" on="1"/>
        <pt x="403" y="21" on="0"/>
        <pt x="424" y="47" on="0"/>
        <pt x="424" y="81" on="0"/>
        <pt x="421" y="96" on="1"/>
        <pt x="440" y="99" on="1"/>
        <pt x="444" y="84" on="0"/>
        <pt x="444" y="66" on="1"/>
        <pt x="444" y="30" on="0"/>
        <pt x="401" y="-12" on="0"/>
        <pt x="331" y="-12" on="0"/>
        <pt x="287" y="45" on="0"/>
        <pt x="287" y="102" on="1"/>
        <pt x="287" y="120" on="1"/>
        <pt x="270" y="52" on="0"/>
        <pt x="196" y="-12" on="0"/>
        <pt x="99" y="-12" on="0"/>
        <pt x="40" y="49" on="0"/>
        <pt x="40" y="150" on="0"/>
        <pt x="134" y="229" on="0"/>
        <pt x="222" y="229" on="1"/>
        <pt x="241" y="229" on="0"/>
        <pt x="286" y="224" on="1"/>
      </contour>
      <contour>
        <pt x="170" y="26" on="1"/>
        <pt x="212" y="26" on="0"/>
        <pt x="279" y="121" on="0"/>
        <pt x="285" y="207" on="1"/>
        <pt x="275" y="208" on="0"/>
        <pt x="257" y="208" on="1"/>
        <pt x="177" y="208" on="0"/>
        <pt x="108" y="141" on="0"/>
        <pt x="108" y="97" on="1"/>
        <pt x="108" y="68" on="0"/>
        <pt x="142" y="26" on="0"/>
      </contour>
      <contour>
        <pt x="201" y="614" on="1"/>
        <pt x="272" y="480" on="1"/>
        <pt x="256" y="468" on="1"/>
        <pt x="122" y="602" on="1"/>
        <pt x="122" y="625" on="0"/>
        <pt x="144" y="648" on="0"/>
        <pt x="158" y="648" on="1"/>
        <pt x="183" y="648" on="0"/>
      </contour>
    </TTGlyph>
    <TTGlyph name="ampersand" xMin="30" yMin="-12" xMax="562" yMax="643">
      <contour>
        <pt x="333" y="643" on="0"/>
        <pt x="411" y="572" on="0"/>
        <pt x="411" y="470" on="0"/>
        <pt x="341" y="378" on="0"/>
        <pt x="277" y="354" on="1"/>
        <pt x="402" y="178" on="1"/>
        <pt x="454" y="311" on="1"/>
        <pt x="403" y="311" on="1"/>
        <pt x="403" y="329" on="1"/>
        <pt x="556" y="329" on="1"/>
        <pt x="556" y="311" on="1"/>
        <pt x="493" y="311" on="1"/>
        <pt x="484" y="311" on="0"/>
        <pt x="479" y="297" on="1"/>
        <pt x="421" y="152" on="1"/>
        <pt x="512" y="26" on="1"/>
        <pt x="517" y="18" on="0"/>
        <pt x="526" y="18" on="1"/>
        <pt x="562" y="18" on="1"/>
        <pt x="562" y="0" on="1"/>
        <pt x="506" y="0" on="1"/>
        <pt x="457" y="0" on="0"/>
        <pt x="433" y="-6" on="1"/>
        <pt x="379" y="71" on="1"/>
        <pt x="319" y="-12" on="0"/>
        <pt x="215" y="-12" on="1"/>
        <pt x="129" y="-12" on="0"/>
        <pt x="30" y="93" on="0"/>
        <pt x="30" y="226" on="0"/>
        <pt x="111" y="324" on="0"/>
        <pt x="188" y="347" on="1"/>
        <pt x="157" y="392" on="1"/>
        <pt x="115" y="451" on="0"/>
        <pt x="115" y="569" on="0"/>
        <pt x="194" y="643" on="0"/>
      </contour>
      <contour>
        <pt x="235" y="27" on="1"/>
        <pt x="313" y="27" on="0"/>
        <pt x="363" y="95" on="1"/>
        <pt x="204" y="324" on="1"/>
        <pt x="114" y="276" on="0"/>
        <pt x="114" y="167" on="1"/>
        <pt x="114" y="99" on="0"/>
        <pt x="184" y="27" on="0"/>
      </contour>
      <contour>
        <pt x="262" y="617" on="1"/>
        <pt x="178" y="617" on="0"/>
        <pt x="178" y="534" on="1"/>
        <pt x="178" y="493" on="0"/>
        <pt x="213" y="444" on="1"/>
        <pt x="262" y="374" on="1"/>
        <pt x="303" y="394" on="0"/>
        <pt x="347" y="471" on="0"/>
        <pt x="347" y="558" on="0"/>
        <pt x="302" y="617" on="0"/>
      </contour>
    </TTGlyph>
    <TTGlyph name="apple" xMin="100" yMin="-114" xMax="823" yMax="608">
      <contour>
        <pt x="589" y="-89" on="1"/>
        <pt x="566" y="-88" on="1"/>
        <pt x="552" y="-88" on="0"/>
        <pt x="517" y="-112" on="0"/>
        <pt x="508" y="-112" on="1"/>
        <pt x="462" y="-102" on="1"/>
        <pt x="454" y="-102" on="0"/>
        <pt x="423" y="-114" on="0"/>
        <pt x="406" y="-114" on="0"/>
        <pt x="374" y="-89" on="0"/>
        <pt x="361" y="-89" on="1"/>
        <pt x="337" y="-91" on="1"/>
        <pt x="322" y="-91" on="0"/>
        <pt x="304" y="-74" on="1"/>
        <pt x="286" y="-55" on="1"/>
        <pt x="274" y="-49" on="0"/>
        <pt x="248" y="-47" on="0"/>
        <pt x="230" y="-36" on="0"/>
        <pt x="216" y="-1" on="0"/>
        <pt x="205" y="8" on="0"/>
        <pt x="177" y="19" on="0"/>
        <pt x="171" y="28" on="1"/>
        <pt x="166" y="37" on="0"/>
        <pt x="162" y="66" on="0"/>
        <pt x="154" y="79" on="0"/>
        <pt x="144" y="86" on="1"/>
        <pt x="122" y="104" on="0"/>
        <pt x="122" y="124" on="1"/>
        <pt x="125" y="149" on="1"/>
        <pt x="125" y="158" on="0"/>
        <pt x="100" y="193" on="0"/>
        <pt x="100" y="211" on="0"/>
        <pt x="112" y="240" on="0"/>
        <pt x="112" y="257" on="0"/>
        <pt x="100" y="283" on="0"/>
        <pt x="100" y="301" on="0"/>
        <pt x="125" y="342" on="0"/>
        <pt x="125" y="351" on="1"/>
        <pt x="124" y="376" on="1"/>
        <pt x="124" y="391" on="0"/>
        <pt x="157" y="420" on="0"/>
        <pt x="162" y="430" on="0"/>
        <pt x="166" y="462" on="0"/>
        <pt x="174" y="474" on="0"/>
        <pt x="205" y="486" on="0"/>
        <pt x="215" y="496" on="0"/>
        <pt x="229" y="527" on="0"/>
        <pt x="242" y="538" on="0"/>
        <pt x="280" y="546" on="0"/>
        <pt x="291" y="552" on="0"/>
        <pt x="321" y="586" on="0"/>
        <pt x="335" y="587" on="1"/>
        <pt x="361" y="585" on="1"/>
        <pt x="374" y="585" on="0"/>
        <pt x="405" y="608" on="0"/>
        <pt x="416" y="608" on="1"/>
        <pt x="460" y="596" on="1"/>
        <pt x="505" y="608" on="1"/>
        <pt x="518" y="608" on="0"/>
        <pt x="550" y="583" on="0"/>
        <pt x="562" y="583" on="1"/>
        <pt x="590" y="586" on="1"/>
        <pt x="606" y="586" on="0"/>
        <pt x="632" y="553" on="0"/>
        <pt x="645" y="546" on="0"/>
        <pt x="675" y="540" on="0"/>
        <pt x="690" y="530" on="0"/>
        <pt x="700" y="502" on="0"/>
        <pt x="711" y="492" on="0"/>
        <pt x="751" y="471" on="0"/>
        <pt x="760" y="455" on="0"/>
        <pt x="761" y="423" on="0"/>
        <pt x="766" y="414" on="0"/>
        <pt x="800" y="385" on="0"/>
        <pt x="800" y="369" on="1"/>
        <pt x="799" y="344" on="1"/>
        <pt x="799" y="331" on="0"/>
        <pt x="823" y="294" on="0"/>
        <pt x="823" y="276" on="0"/>
        <pt x="812" y="250" on="0"/>
        <pt x="812" y="236" on="0"/>
        <pt x="823" y="207" on="0"/>
        <pt x="822" y="191" on="0"/>
        <pt x="798" y="166" on="0"/>
        <pt x="798" y="152" on="1"/>
        <pt x="800" y="120" on="1"/>
        <pt x="800" y="104" on="0"/>
        <pt x="768" y="78" on="0"/>
        <pt x="763" y="68" on="0"/>
        <pt x="754" y="30" on="0"/>
        <pt x="743" y="17" on="0"/>
        <pt x="718" y="6" on="0"/>
        <pt x="708" y="-4" on="0"/>
        <pt x="690" y="-37" on="0"/>
        <pt x="676" y="-47" on="0"/>
        <pt x="641" y="-56" on="0"/>
        <pt x="631" y="-62" on="0"/>
        <pt x="604" y="-89" on="0"/>
      </contour>
      <contour>
        <pt x="462" y="-6" on="1"/>
        <pt x="495" y="-13" on="1"/>
        <pt x="501" y="-13" on="0"/>
        <pt x="527" y="4" on="0"/>
        <pt x="539" y="4" on="1"/>
        <pt x="554" y="3" on="1"/>
        <pt x="566" y="3" on="0"/>
        <pt x="584" y="23" on="0"/>
        <pt x="591" y="27" on="0"/>
        <pt x="617" y="34" on="0"/>
        <pt x="628" y="42" on="0"/>
        <pt x="641" y="65" on="0"/>
        <pt x="648" y="72" on="0"/>
        <pt x="666" y="80" on="0"/>
        <pt x="674" y="89" on="0"/>
        <pt x="680" y="117" on="0"/>
        <pt x="685" y="125" on="0"/>
        <pt x="707" y="143" on="0"/>
        <pt x="707" y="157" on="1"/>
        <pt x="706" y="177" on="1"/>
        <pt x="706" y="188" on="0"/>
        <pt x="723" y="207" on="0"/>
        <pt x="724" y="213" on="1"/>
        <pt x="716" y="245" on="1"/>
        <pt x="724" y="273" on="1"/>
        <pt x="724" y="281" on="0"/>
        <pt x="706" y="309" on="0"/>
        <pt x="706" y="318" on="1"/>
        <pt x="707" y="335" on="1"/>
        <pt x="707" y="347" on="0"/>
        <pt x="683" y="367" on="0"/>
        <pt x="679" y="375" on="0"/>
        <pt x="678" y="398" on="0"/>
        <pt x="672" y="409" on="0"/>
        <pt x="643" y="424" on="0"/>
        <pt x="635" y="432" on="0"/>
        <pt x="627" y="452" on="0"/>
        <pt x="617" y="460" on="0"/>
        <pt x="595" y="464" on="0"/>
        <pt x="585" y="469" on="0"/>
        <pt x="567" y="493" on="0"/>
        <pt x="555" y="493" on="1"/>
        <pt x="535" y="491" on="1"/>
        <pt x="526" y="491" on="0"/>
        <pt x="504" y="509" on="0"/>
        <pt x="494" y="509" on="1"/>
        <pt x="461" y="500" on="1"/>
        <pt x="429" y="509" on="1"/>
        <pt x="421" y="509" on="0"/>
        <pt x="397" y="492" on="0"/>
        <pt x="387" y="492" on="1"/>
        <pt x="370" y="493" on="1"/>
        <pt x="359" y="493" on="0"/>
        <pt x="338" y="468" on="0"/>
        <pt x="329" y="463" on="0"/>
        <pt x="303" y="458" on="0"/>
        <pt x="293" y="450" on="0"/>
        <pt x="283" y="428" on="0"/>
        <pt x="275" y="420" on="0"/>
        <pt x="254" y="412" on="0"/>
        <pt x="250" y="407" on="1"/>
        <pt x="248" y="403" on="0"/>
        <pt x="244" y="380" on="0"/>
        <pt x="240" y="372" on="0"/>
        <pt x="216" y="351" on="0"/>
        <pt x="216" y="340" on="1"/>
        <pt x="217" y="324" on="1"/>
        <pt x="217" y="316" on="0"/>
        <pt x="200" y="286" on="0"/>
        <pt x="200" y="278" on="1"/>
        <pt x="208" y="248" on="1"/>
        <pt x="200" y="215" on="1"/>
        <pt x="200" y="207" on="0"/>
        <pt x="217" y="182" on="0"/>
        <pt x="217" y="174" on="1"/>
        <pt x="215" y="158" on="1"/>
        <pt x="215" y="147" on="0"/>
        <pt x="240" y="124" on="0"/>
        <pt x="244" y="116" on="0"/>
        <pt x="247" y="95" on="0"/>
        <pt x="255" y="82" on="0"/>
        <pt x="275" y="74" on="0"/>
        <pt x="283" y="67" on="0"/>
        <pt x="294" y="41" on="0"/>
        <pt x="306" y="33" on="0"/>
        <pt x="325" y="33" on="0"/>
        <pt x="337" y="27" on="0"/>
        <pt x="360" y="2" on="0"/>
        <pt x="371" y="2" on="1"/>
        <pt x="386" y="3" on="1"/>
        <pt x="396" y="3" on="0"/>
        <pt x="420" y="-14" on="0"/>
        <pt x="426" y="-15" on="1"/>
      </contour>
      <contour>
        <pt x="392" y="417" on="0"/>
        <pt x="532" y="417" on="0"/>
        <pt x="632" y="318" on="0"/>
        <pt x="632" y="176" on="0"/>
        <pt x="532" y="77" on="0"/>
        <pt x="392" y="77" on="0"/>
        <pt x="292" y="176" on="0"/>
        <pt x="292" y="318" on="0"/>
      </contour>
      <contour>
        <pt x="505" y="292" on="1"/>
        <pt x="557" y="292" on="1"/>
        <pt x="557" y="360" on="1"/>
        <pt x="366" y="360" on="1"/>
        <pt x="366" y="292" on="1"/>
        <pt x="420" y="292" on="1"/>
        <pt x="420" y="117" on="1"/>
        <pt x="505" y="117" on="1"/>
      </contour>
    </TTGlyph>
    <TTGlyph name="approxequal" xMin="76" yMin="80" xMax="456" yMax="324">
      <contour>
        <pt x="434" y="324" on="1"/>
        <pt x="456" y="289" on="1"/>
        <pt x="415" y="243" on="0"/>
        <pt x="352" y="243" on="1"/>
        <pt x="321" y="243" on="0"/>
        <pt x="202" y="268" on="0"/>
        <pt x="131" y="268" on="0"/>
        <pt x="99" y="243" on="1"/>
        <pt x="76" y="278" on="1"/>
        <pt x="116" y="322" on="0"/>
        <pt x="179" y="322" on="1"/>
        <pt x="210" y="322" on="0"/>
        <pt x="329" y="297" on="0"/>
        <pt x="400" y="297" on="0"/>
      </contour>
      <contour>
        <pt x="434" y="161" on="1"/>
        <pt x="456" y="126" on="1"/>
        <pt x="415" y="80" on="0"/>
        <pt x="352" y="80" on="1"/>
        <pt x="321" y="80" on="0"/>
        <pt x="202" y="105" on="0"/>
        <pt x="131" y="105" on="0"/>
        <pt x="99" y="80" on="1"/>
        <pt x="76" y="115" on="1"/>
        <pt x="116" y="159" on="0"/>
        <pt x="179" y="159" on="1"/>
        <pt x="210" y="159" on="0"/>
        <pt x="329" y="134" on="0"/>
        <pt x="400" y="134" on="0"/>
      </contour>
    </TTGlyph>
    <TTGlyph name="aring" xMin="40" yMin="-12" xMax="444" yMax="669">
      <component glyphName="a" x="0" y="0" flags="0x1004"/>
      <component glyphName="ring" x="88" y="0" flags="0x1004"/>
    </TTGlyph>
    <TTGlyph name="asciicircum" xMin="71" yMin="270" xMax="458" yMax="644">
      <contour>
        <pt x="291" y="644" on="1"/>
        <pt x="458" y="270" on="1"/>
        <pt x="403" y="270" on="1"/>
        <pt x="264" y="584" on="1"/>
        <pt x="126" y="270" on="1"/>
        <pt x="71" y="270" on="1"/>
        <pt x="238" y="644" on="1"/>
      </contour>
    </TTGlyph>
    <TTGlyph name="asciitilde" xMin="62" yMin="164" xMax="468" yMax="243">
      <contour>
        <pt x="448" y="243" on="1"/>
        <pt x="468" y="210" on="1"/>
        <pt x="419" y="164" on="0"/>
        <pt x="352" y="164" on="1"/>
        <pt x="319" y="164" on="0"/>
        <pt x="196" y="189" on="0"/>
        <pt x="120" y="189" on="0"/>
        <pt x="83" y="164" on="1"/>
        <pt x="62" y="197" on="1"/>
        <pt x="110" y="241" on="0"/>
        <pt x="175" y="241" on="1"/>
        <pt x="208" y="241" on="0"/>
        <pt x="332" y="216" on="0"/>
        <pt x="407" y="216" on="0"/>
      </contour>
    </TTGlyph>
    <TTGlyph name="asterisk" xMin="43" yMin="341" xMax="375" yMax="660">
      <contour>
        <pt x="225" y="660" on="0"/>
        <pt x="246" y="639" on="0"/>
        <pt x="246" y="607" on="0"/>
        <pt x="222" y="524" on="0"/>
        <pt x="217" y="499" on="1"/>
        <pt x="240" y="512" on="0"/>
        <pt x="321" y="567" on="0"/>
        <pt x="354" y="567" on="0"/>
        <pt x="375" y="545" on="0"/>
        <pt x="375" y="529" on="1"/>
        <pt x="375" y="492" on="0"/>
        <pt x="245" y="486" on="0"/>
        <pt x="222" y="483" on="1"/>
        <pt x="242" y="465" on="0"/>
        <pt x="303" y="418" on="0"/>
        <pt x="326" y="392" on="0"/>
        <pt x="326" y="364" on="0"/>
        <pt x="304" y="341" on="0"/>
        <pt x="271" y="341" on="0"/>
        <pt x="252" y="365" on="0"/>
        <pt x="221" y="449" on="0"/>
        <pt x="209" y="474" on="1"/>
        <pt x="195" y="445" on="0"/>
        <pt x="170" y="377" on="0"/>
        <pt x="164" y="364" on="1"/>
        <pt x="151" y="341" on="0"/>
        <pt x="114" y="341" on="0"/>
        <pt x="92" y="364" on="0"/>
        <pt x="92" y="392" on="0"/>
        <pt x="115" y="418" on="0"/>
        <pt x="176" y="465" on="0"/>
        <pt x="196" y="483" on="1"/>
        <pt x="174" y="486" on="0"/>
        <pt x="43" y="492" on="0"/>
        <pt x="43" y="529" on="1"/>
        <pt x="43" y="545" on="0"/>
        <pt x="64" y="567" on="0"/>
        <pt x="91" y="567" on="0"/>
        <pt x="122" y="550" on="0"/>
        <pt x="178" y="512" on="0"/>
        <pt x="201" y="499" on="1"/>
        <pt x="196" y="524" on="0"/>
        <pt x="172" y="607" on="0"/>
        <pt x="172" y="639" on="0"/>
        <pt x="193" y="660" on="0"/>
      </contour>
    </TTGlyph>
    <TTGlyph name="at" xMin="60" yMin="-137" xMax="735" yMax="538">
      <contour>
        <pt x="470" y="283" on="1"/>
        <pt x="470" y="400" on="0"/>
        <pt x="400" y="400" on="1"/>
        <pt x="369" y="400" on="0"/>
        <pt x="334" y="358" on="0"/>
        <pt x="334" y="303" on="0"/>
        <pt x="342" y="282" on="1"/>
        <pt x="325" y="268" on="0"/>
        <pt x="265" y="268" on="0"/>
        <pt x="265" y="308" on="1"/>
        <pt x="265" y="360" on="0"/>
        <pt x="339" y="424" on="0"/>
        <pt x="408" y="424" on="1"/>
        <pt x="540" y="424" on="0"/>
        <pt x="540" y="260" on="1"/>
        <pt x="540" y="27" on="1"/>
        <pt x="540" y="-12" on="0"/>
        <pt x="572" y="-12" on="1"/>
        <pt x="622" y="-12" on="0"/>
        <pt x="699" y="117" on="0"/>
        <pt x="699" y="200" on="1"/>
        <pt x="699" y="325" on="0"/>
        <pt x="523" y="502" on="0"/>
        <pt x="273" y="502" on="0"/>
        <pt x="96" y="325" on="0"/>
        <pt x="96" y="75" on="0"/>
        <pt x="273" y="-101" on="0"/>
        <pt x="398" y="-101" on="1"/>
        <pt x="398" y="-137" on="1"/>
        <pt x="258" y="-137" on="0"/>
        <pt x="60" y="60" on="0"/>
        <pt x="60" y="340" on="0"/>
        <pt x="258" y="538" on="0"/>
        <pt x="538" y="538" on="0"/>
        <pt x="735" y="340" on="0"/>
        <pt x="735" y="200" on="1"/>
        <pt x="735" y="87" on="0"/>
        <pt x="622" y="-48" on="0"/>
        <pt x="557" y="-48" on="1"/>
        <pt x="470" y="-48" on="0"/>
        <pt x="470" y="55" on="1"/>
        <pt x="470" y="122" on="1"/>
        <pt x="454" y="55" on="0"/>
        <pt x="380" y="-12" on="0"/>
        <pt x="294" y="-12" on="0"/>
        <pt x="233" y="48" on="0"/>
        <pt x="233" y="150" on="0"/>
        <pt x="324" y="229" on="0"/>
        <pt x="408" y="229" on="1"/>
        <pt x="424" y="229" on="0"/>
        <pt x="469" y="224" on="1"/>
        <pt x="470" y="231" on="0"/>
      </contour>
      <contour>
        <pt x="301" y="75" on="0"/>
        <pt x="335" y="36" on="0"/>
        <pt x="401" y="36" on="0"/>
        <pt x="462" y="126" on="0"/>
        <pt x="468" y="207" on="1"/>
        <pt x="459" y="208" on="0"/>
        <pt x="443" y="208" on="1"/>
        <pt x="368" y="208" on="0"/>
        <pt x="301" y="144" on="0"/>
      </contour>
    </TTGlyph>
    <TTGlyph name="atilde" xMin="40" yMin="-12" xMax="444" yMax="624">
      <contour>
        <pt x="286" y="233" on="1"/>
        <pt x="287" y="268" on="1"/>
        <pt x="287" y="303" on="1"/>
        <pt x="287" y="420" on="0"/>
        <pt x="211" y="420" on="1"/>
        <pt x="178" y="420" on="0"/>
        <pt x="141" y="375" on="0"/>
        <pt x="141" y="315" on="0"/>
        <pt x="149" y="293" on="1"/>
        <pt x="132" y="278" on="0"/>
        <pt x="72" y="278" on="0"/>
        <pt x="72" y="376" on="0"/>
        <pt x="149" y="444" on="0"/>
        <pt x="220" y="444" on="1"/>
        <pt x="359" y="444" on="0"/>
        <pt x="359" y="280" on="1"/>
        <pt x="359" y="75" on="1"/>
        <pt x="359" y="21" on="0"/>
        <pt x="389" y="21" on="1"/>
        <pt x="403" y="21" on="0"/>
        <pt x="424" y="47" on="0"/>
        <pt x="424" y="81" on="0"/>
        <pt x="421" y="96" on="1"/>
        <pt x="440" y="99" on="1"/>
        <pt x="444" y="84" on="0"/>
        <pt x="444" y="66" on="1"/>
        <pt x="444" y="30" on="0"/>
        <pt x="401" y="-12" on="0"/>
        <pt x="331" y="-12" on="0"/>
        <pt x="287" y="45" on="0"/>
        <pt x="287" y="102" on="1"/>
        <pt x="287" y="120" on="1"/>
        <pt x="270" y="52" on="0"/>
        <pt x="196" y="-12" on="0"/>
        <pt x="99" y="-12" on="0"/>
        <pt x="40" y="49" on="0"/>
        <pt x="40" y="150" on="0"/>
        <pt x="134" y="229" on="0"/>
        <pt x="222" y="229" on="1"/>
        <pt x="241" y="229" on="0"/>
        <pt x="286" y="224" on="1"/>
      </contour>
      <contour>
        <pt x="170" y="26" on="1"/>
        <pt x="212" y="26" on="0"/>
        <pt x="279" y="121" on="0"/>
        <pt x="285" y="207" on="1"/>
        <pt x="275" y="208" on="0"/>
        <pt x="257" y="208" on="1"/>
        <pt x="177" y="208" on="0"/>
        <pt x="108" y="141" on="0"/>
        <pt x="108" y="97" on="1"/>
        <pt x="108" y="68" on="0"/>
        <pt x="142" y="26" on="0"/>
      </contour>
      <contour>
        <pt x="339" y="624" on="1"/>
        <pt x="354" y="617" on="1"/>
        <pt x="330" y="517" on="0"/>
        <pt x="270" y="517" on="1"/>
        <pt x="254" y="517" on="0"/>
        <pt x="179" y="543" on="0"/>
        <pt x="159" y="543" on="1"/>
        <pt x="116" y="543" on="0"/>
        <pt x="91" y="498" on="1"/>
        <pt x="76" y="505" on="1"/>
        <pt x="88" y="558" on="0"/>
        <pt x="134" y="604" on="0"/>
        <pt x="175" y="604" on="0"/>
        <pt x="251" y="578" on="0"/>
        <pt x="271" y="578" on="1"/>
        <pt x="314" y="578" on="0"/>
      </contour>
    </TTGlyph>
    <TTGlyph name="b" xMin="25" yMin="-12" xMax="455" yMax="654">
      <contour>
        <pt x="346" y="-12" on="0"/>
        <pt x="170" y="-12" on="0"/>
        <pt x="111" y="54" on="1"/>
        <pt x="103" y="-8" on="1"/>
        <pt x="86" y="-8" on="1"/>
        <pt x="86" y="616" on="1"/>
        <pt x="86" y="630" on="0"/>
        <pt x="72" y="630" on="1"/>
        <pt x="25" y="630" on="1"/>
        <pt x="25" y="648" on="1"/>
        <pt x="74" y="648" on="1"/>
        <pt x="134" y="648" on="0"/>
        <pt x="158" y="654" on="1"/>
        <pt x="158" y="298" on="1"/>
        <pt x="175" y="370" on="0"/>
        <pt x="250" y="444" on="0"/>
        <pt x="296" y="444" on="1"/>
        <pt x="359" y="444" on="0"/>
        <pt x="455" y="318" on="0"/>
        <pt x="455" y="110" on="0"/>
      </contour>
      <contour>
        <pt x="281" y="406" on="1"/>
        <pt x="231" y="406" on="0"/>
        <pt x="158" y="282" on="0"/>
        <pt x="158" y="165" on="1"/>
        <pt x="158" y="41" on="1"/>
        <pt x="200" y="13" on="0"/>
        <pt x="307" y="13" on="0"/>
        <pt x="379" y="119" on="0"/>
        <pt x="379" y="305" on="0"/>
        <pt x="321" y="406" on="0"/>
      </contour>
    </TTGlyph>
    <TTGlyph name="backslash" xMin="15" yMin="-74" xMax="304" yMax="648">
      <contour>
        <pt x="304" y="-74" on="1"/>
        <pt x="265" y="-74" on="1"/>
        <pt x="15" y="648" on="1"/>
        <pt x="55" y="648" on="1"/>
      </contour>
    </TTGlyph>
    <TTGlyph name="bar" xMin="82" yMin="-107" xMax="154" yMax="630">
      <contour>
        <pt x="82" y="-107" on="1"/>
        <pt x="82" y="630" on="1"/>
        <pt x="154" y="630" on="1"/>
        <pt x="154" y="-107" on="1"/>
      </contour>
    </TTGlyph>
    <TTGlyph name="braceleft" xMin="45" yMin="-113" xMax="248" yMax="635">
      <contour>
        <pt x="111" y="263" on="1"/>
        <pt x="111" y="259" on="1"/>
        <pt x="146" y="248" on="0"/>
        <pt x="179" y="198" on="0"/>
        <pt x="179" y="150" on="1"/>
        <pt x="179" y="23" on="1"/>
        <pt x="179" y="-34" on="0"/>
        <pt x="202" y="-59" on="1"/>
        <pt x="213" y="-70" on="0"/>
        <pt x="248" y="-98" on="1"/>
        <pt x="238" y="-113" on="1"/>
        <pt x="207" y="-97" on="0"/>
        <pt x="187" y="-87" on="0"/>
        <pt x="146" y="-62" on="0"/>
        <pt x="137" y="-52" on="0"/>
        <pt x="114" y="-28" on="0"/>
        <pt x="111" y="-11" on="0"/>
        <pt x="102" y="26" on="0"/>
        <pt x="102" y="80" on="1"/>
        <pt x="102" y="193" on="1"/>
        <pt x="102" y="222" on="0"/>
        <pt x="78" y="254" on="0"/>
        <pt x="45" y="254" on="1"/>
        <pt x="45" y="268" on="1"/>
        <pt x="78" y="268" on="0"/>
        <pt x="102" y="300" on="0"/>
        <pt x="102" y="329" on="1"/>
        <pt x="102" y="442" on="1"/>
        <pt x="102" y="496" on="0"/>
        <pt x="111" y="533" on="0"/>
        <pt x="114" y="550" on="0"/>
        <pt x="137" y="574" on="0"/>
        <pt x="146" y="584" on="0"/>
        <pt x="187" y="609" on="0"/>
        <pt x="207" y="619" on="0"/>
        <pt x="238" y="635" on="1"/>
        <pt x="248" y="620" on="1"/>
        <pt x="213" y="592" on="0"/>
        <pt x="202" y="581" on="1"/>
        <pt x="179" y="556" on="0"/>
        <pt x="179" y="499" on="1"/>
        <pt x="179" y="372" on="1"/>
        <pt x="179" y="324" on="0"/>
        <pt x="146" y="274" on="0"/>
      </contour>
    </TTGlyph>
    <TTGlyph name="braceright" xMin="40" yMin="-113" xMax="243" yMax="635">
      <contour>
        <pt x="177" y="259" on="1"/>
        <pt x="177" y="263" on="1"/>
        <pt x="142" y="274" on="0"/>
        <pt x="109" y="324" on="0"/>
        <pt x="109" y="372" on="1"/>
        <pt x="109" y="499" on="1"/>
        <pt x="109" y="556" on="0"/>
        <pt x="86" y="581" on="1"/>
        <pt x="75" y="592" on="0"/>
        <pt x="40" y="620" on="1"/>
        <pt x="50" y="635" on="1"/>
        <pt x="81" y="619" on="0"/>
        <pt x="101" y="609" on="0"/>
        <pt x="142" y="584" on="0"/>
        <pt x="151" y="574" on="0"/>
        <pt x="174" y="550" on="0"/>
        <pt x="177" y="533" on="0"/>
        <pt x="186" y="496" on="0"/>
        <pt x="186" y="442" on="1"/>
        <pt x="186" y="329" on="1"/>
        <pt x="186" y="300" on="0"/>
        <pt x="210" y="268" on="0"/>
        <pt x="243" y="268" on="1"/>
        <pt x="243" y="254" on="1"/>
        <pt x="210" y="254" on="0"/>
        <pt x="186" y="222" on="0"/>
        <pt x="186" y="193" on="1"/>
        <pt x="186" y="80" on="1"/>
        <pt x="186" y="26" on="0"/>
        <pt x="177" y="-11" on="0"/>
        <pt x="174" y="-28" on="0"/>
        <pt x="151" y="-52" on="0"/>
        <pt x="142" y="-62" on="0"/>
        <pt x="101" y="-87" on="0"/>
        <pt x="81" y="-97" on="0"/>
        <pt x="50" y="-113" on="1"/>
        <pt x="40" y="-98" on="1"/>
        <pt x="75" y="-70" on="0"/>
        <pt x="86" y="-59" on="1"/>
        <pt x="109" y="-34" on="0"/>
        <pt x="109" y="23" on="1"/>
        <pt x="109" y="150" on="1"/>
        <pt x="109" y="198" on="0"/>
        <pt x="142" y="248" on="0"/>
      </contour>
    </TTGlyph>
    <TTGlyph name="bracketleft" xMin="70" yMin="-113" xMax="233" yMax="636">
      <contour>
        <pt x="142" y="598" on="1"/>
        <pt x="142" y="-75" on="1"/>
        <pt x="142" y="-89" on="0"/>
        <pt x="156" y="-89" on="1"/>
        <pt x="233" y="-89" on="1"/>
        <pt x="233" y="-107" on="1"/>
        <pt x="154" y="-107" on="1"/>
        <pt x="94" y="-107" on="0"/>
        <pt x="70" y="-113" on="1"/>
        <pt x="70" y="636" on="1"/>
        <pt x="94" y="630" on="0"/>
        <pt x="154" y="630" on="1"/>
        <pt x="233" y="630" on="1"/>
        <pt x="233" y="612" on="1"/>
        <pt x="156" y="612" on="1"/>
        <pt x="142" y="612" on="0"/>
      </contour>
    </TTGlyph>
    <TTGlyph name="bracketright" xMin="30" yMin="-113" xMax="193" yMax="636">
      <contour>
        <pt x="121" y="-75" on="1"/>
        <pt x="121" y="598" on="1"/>
        <pt x="121" y="612" on="0"/>
        <pt x="107" y="612" on="1"/>
        <pt x="30" y="612" on="1"/>
        <pt x="30" y="630" on="1"/>
        <pt x="109" y="630" on="1"/>
        <pt x="169" y="630" on="0"/>
        <pt x="193" y="636" on="1"/>
        <pt x="193" y="-113" on="1"/>
        <pt x="169" y="-107" on="0"/>
        <pt x="109" y="-107" on="1"/>
        <pt x="30" y="-107" on="1"/>
        <pt x="30" y="-89" on="1"/>
        <pt x="107" y="-89" on="1"/>
        <pt x="121" y="-89" on="0"/>
      </contour>
    </TTGlyph>
    <TTGlyph name="breve" xMin="0" yMin="509" xMax="213" yMax="617">
      <contour>
        <pt x="71" y="567" on="0"/>
        <pt x="143" y="567" on="0"/>
        <pt x="183" y="595" on="0"/>
        <pt x="183" y="617" on="1"/>
        <pt x="213" y="617" on="1"/>
        <pt x="213" y="570" on="0"/>
        <pt x="155" y="509" on="0"/>
        <pt x="58" y="509" on="0"/>
        <pt x="0" y="570" on="0"/>
        <pt x="0" y="617" on="1"/>
        <pt x="30" y="617" on="1"/>
        <pt x="30" y="595" on="0"/>
      </contour>
    </TTGlyph>
    <TTGlyph name="brokenbar" xMin="82" yMin="-107" xMax="154" yMax="630">
      <contour>
        <pt x="82" y="366" on="1"/>
        <pt x="82" y="630" on="1"/>
        <pt x="154" y="630" on="1"/>
        <pt x="154" y="366" on="1"/>
      </contour>
      <contour>
        <pt x="82" y="-107" on="1"/>
        <pt x="82" y="157" on="1"/>
        <pt x="154" y="157" on="1"/>
        <pt x="154" y="-107" on="1"/>
      </contour>
    </TTGlyph>
    <TTGlyph name="bullet" xMin="40" yMin="210" xMax="186" yMax="356">
      <contour>
        <pt x="40" y="253" on="0"/>
        <pt x="40" y="313" on="0"/>
        <pt x="83" y="356" on="0"/>
        <pt x="143" y="356" on="0"/>
        <pt x="186" y="313" on="0"/>
        <pt x="186" y="253" on="0"/>
        <pt x="143" y="210" on="0"/>
        <pt x="83" y="210" on="0"/>
      </contour>
    </TTGlyph>
    <TTGlyph name="c" xMin="40" yMin="-12" xMax="396" yMax="444">
      <contour>
        <pt x="244" y="420" on="1"/>
        <pt x="187" y="420" on="0"/>
        <pt x="116" y="311" on="0"/>
        <pt x="116" y="121" on="0"/>
        <pt x="185" y="12" on="0"/>
        <pt x="294" y="12" on="0"/>
        <pt x="364" y="68" on="0"/>
        <pt x="377" y="120" on="1"/>
        <pt x="396" y="116" on="1"/>
        <pt x="384" y="55" on="0"/>
        <pt x="298" y="-12" on="0"/>
        <pt x="242" y="-12" on="1"/>
        <pt x="155" y="-12" on="0"/>
        <pt x="40" y="110" on="0"/>
        <pt x="40" y="322" on="0"/>
        <pt x="156" y="444" on="0"/>
        <pt x="244" y="444" on="1"/>
        <pt x="312" y="444" on="0"/>
        <pt x="380" y="383" on="0"/>
        <pt x="380" y="332" on="1"/>
        <pt x="380" y="266" on="0"/>
        <pt x="343" y="266" on="1"/>
        <pt x="313" y="266" on="0"/>
        <pt x="295" y="282" on="1"/>
        <pt x="309" y="312" on="0"/>
        <pt x="309" y="377" on="0"/>
        <pt x="276" y="420" on="0"/>
      </contour>
    </TTGlyph>
    <TTGlyph name="caron" xMin="0" yMin="490" xMax="208" yMax="670">
      <contour>
        <pt x="147" y="524" on="1"/>
        <pt x="131" y="490" on="0"/>
        <pt x="77" y="490" on="0"/>
        <pt x="61" y="524" on="1"/>
        <pt x="0" y="658" on="1"/>
        <pt x="16" y="670" on="1"/>
        <pt x="105" y="555" on="1"/>
        <pt x="192" y="670" on="1"/>
        <pt x="208" y="658" on="1"/>
      </contour>
    </TTGlyph>
    <TTGlyph name="ccedilla" xMin="40" yMin="-218" xMax="396" yMax="444">
      <component glyphName="c" x="0" y="0" flags="0x1004"/>
      <component glyphName="cedilla" x="103" y="0" flags="0x1004"/>
    </TTGlyph>
    <TTGlyph name="cedilla" xMin="40" yMin="-218" xMax="218" yMax="0">
      <contour>
        <pt x="174" y="-141" on="1"/>
        <pt x="174" y="-84" on="0"/>
        <pt x="101" y="-80" on="1"/>
        <pt x="109" y="0" on="1"/>
        <pt x="126" y="0" on="1"/>
        <pt x="122" y="-48" on="1"/>
        <pt x="168" y="-51" on="0"/>
        <pt x="218" y="-97" on="0"/>
        <pt x="218" y="-169" on="0"/>
        <pt x="167" y="-218" on="0"/>
        <pt x="90" y="-218" on="0"/>
        <pt x="40" y="-178" on="0"/>
        <pt x="40" y="-114" on="0"/>
        <pt x="73" y="-114" on="1"/>
        <pt x="87" y="-114" on="0"/>
        <pt x="94" y="-118" on="1"/>
        <pt x="90" y="-129" on="0"/>
        <pt x="90" y="-166" on="0"/>
        <pt x="111" y="-195" on="0"/>
        <pt x="149" y="-195" on="0"/>
        <pt x="174" y="-165" on="0"/>
      </contour>
    </TTGlyph>
    <TTGlyph name="cent" xMin="41" yMin="-55" xMax="408" yMax="621">
      <contour>
        <pt x="262" y="-55" on="1"/>
        <pt x="231" y="-55" on="1"/>
        <pt x="231" y="64" on="1"/>
        <pt x="148" y="70" on="0"/>
        <pt x="41" y="187" on="0"/>
        <pt x="41" y="378" on="0"/>
        <pt x="148" y="495" on="0"/>
        <pt x="231" y="502" on="1"/>
        <pt x="231" y="621" on="1"/>
        <pt x="262" y="621" on="1"/>
        <pt x="262" y="502" on="1"/>
        <pt x="325" y="499" on="0"/>
        <pt x="386" y="434" on="0"/>
        <pt x="386" y="331" on="0"/>
        <pt x="350" y="331" on="1"/>
        <pt x="321" y="331" on="0"/>
        <pt x="304" y="346" on="1"/>
        <pt x="317" y="375" on="0"/>
        <pt x="317" y="432" on="0"/>
        <pt x="284" y="478" on="0"/>
        <pt x="251" y="478" on="1"/>
        <pt x="192" y="478" on="0"/>
        <pt x="119" y="374" on="0"/>
        <pt x="119" y="193" on="0"/>
        <pt x="191" y="89" on="0"/>
        <pt x="300" y="89" on="0"/>
        <pt x="375" y="143" on="0"/>
        <pt x="388" y="192" on="1"/>
        <pt x="408" y="187" on="1"/>
        <pt x="396" y="132" on="0"/>
        <pt x="315" y="68" on="0"/>
        <pt x="262" y="64" on="1"/>
      </contour>
    </TTGlyph>
    <TTGlyph name="circumflex" xMin="0" yMin="468" xMax="208" yMax="648">
      <contour>
        <pt x="61" y="614" on="1"/>
        <pt x="77" y="648" on="0"/>
        <pt x="131" y="648" on="0"/>
        <pt x="147" y="614" on="1"/>
        <pt x="208" y="480" on="1"/>
        <pt x="192" y="468" on="1"/>
        <pt x="103" y="583" on="1"/>
        <pt x="16" y="468" on="1"/>
        <pt x="0" y="480" on="1"/>
      </contour>
    </TTGlyph>
    <TTGlyph name="colon" xMin="40" yMin="-12" xMax="152" yMax="432">
      <contour>
        <pt x="40" y="21" on="0"/>
        <pt x="40" y="67" on="0"/>
        <pt x="73" y="100" on="0"/>
        <pt x="119" y="100" on="0"/>
        <pt x="152" y="67" on="0"/>
        <pt x="152" y="21" on="0"/>
        <pt x="119" y="-12" on="0"/>
        <pt x="73" y="-12" on="0"/>
      </contour>
      <contour>
        <pt x="40" y="353" on="0"/>
        <pt x="40" y="399" on="0"/>
        <pt x="73" y="432" on="0"/>
        <pt x="119" y="432" on="0"/>
        <pt x="152" y="399" on="0"/>
        <pt x="152" y="353" on="0"/>
        <pt x="119" y="320" on="0"/>
        <pt x="73" y="320" on="0"/>
      </contour>
    </TTGlyph>
    <TTGlyph name="comma" xMin="31" yMin="-125" xMax="151" yMax="100">
      <contour>
        <pt x="31" y="-111" on="1"/>
        <pt x="78" y="-69" on="0"/>
        <pt x="78" y="18" on="0"/>
        <pt x="42" y="43" on="1"/>
        <pt x="43" y="67" on="0"/>
        <pt x="74" y="100" on="0"/>
        <pt x="96" y="100" on="1"/>
        <pt x="151" y="100" on="0"/>
        <pt x="151" y="40" on="1"/>
        <pt x="151" y="-1" on="0"/>
        <pt x="90" y="-98" on="0"/>
        <pt x="42" y="-125" on="1"/>
      </contour>
    </TTGlyph>
    <TTGlyph name="copyright" xMin="30" yMin="176" xMax="514" yMax="660">
      <contour>
        <pt x="30" y="318" on="0"/>
        <pt x="30" y="518" on="0"/>
        <pt x="172" y="660" on="0"/>
        <pt x="372" y="660" on="0"/>
        <pt x="514" y="518" on="0"/>
        <pt x="514" y="318" on="0"/>
        <pt x="372" y="176" on="0"/>
        <pt x="172" y="176" on="0"/>
      </contour>
      <contour>
        <pt x="55" y="507" on="0"/>
        <pt x="55" y="329" on="0"/>
        <pt x="183" y="201" on="0"/>
        <pt x="361" y="201" on="0"/>
        <pt x="489" y="329" on="0"/>
        <pt x="489" y="507" on="0"/>
        <pt x="361" y="635" on="0"/>
        <pt x="183" y="635" on="0"/>
      </contour>
      <contour>
        <pt x="362" y="487" on="1"/>
        <pt x="352" y="560" on="0"/>
        <pt x="268" y="560" on="1"/>
        <pt x="230" y="560" on="0"/>
        <pt x="179" y="484" on="0"/>
        <pt x="179" y="352" on="0"/>
        <pt x="231" y="276" on="0"/>
        <pt x="306" y="276" on="0"/>
        <pt x="357" y="312" on="0"/>
        <pt x="362" y="349" on="1"/>
        <pt x="374" y="349" on="1"/>
        <pt x="374" y="260" on="1"/>
        <pt x="362" y="260" on="1"/>
        <pt x="360" y="271" on="1"/>
        <pt x="358" y="281" on="0"/>
        <pt x="350" y="281" on="1"/>
        <pt x="347" y="281" on="0"/>
        <pt x="337" y="274" on="1"/>
        <pt x="305" y="254" on="0"/>
        <pt x="272" y="254" on="1"/>
        <pt x="208" y="254" on="0"/>
        <pt x="125" y="341" on="0"/>
        <pt x="125" y="495" on="0"/>
        <pt x="206" y="583" on="0"/>
        <pt x="272" y="583" on="1"/>
        <pt x="296" y="583" on="0"/>
        <pt x="346" y="560" on="0"/>
        <pt x="350" y="560" on="1"/>
        <pt x="358" y="560" on="0"/>
        <pt x="360" y="570" on="1"/>
        <pt x="362" y="581" on="1"/>
        <pt x="374" y="581" on="1"/>
        <pt x="374" y="487" on="1"/>
      </contour>
    </TTGlyph>
    <TTGlyph name="currency" xMin="26" yMin="89" xMax="437" yMax="500">
      <contour>
        <pt x="101" y="201" on="1"/>
        <pt x="72" y="243" on="0"/>
        <pt x="72" y="346" on="0"/>
        <pt x="102" y="387" on="1"/>
        <pt x="26" y="463" on="1"/>
        <pt x="64" y="500" on="1"/>
        <pt x="139" y="424" on="1"/>
        <pt x="180" y="454" on="0"/>
        <pt x="283" y="454" on="0"/>
        <pt x="324" y="424" on="1"/>
        <pt x="400" y="500" on="1"/>
        <pt x="437" y="462" on="1"/>
        <pt x="362" y="387" on="1"/>
        <pt x="392" y="346" on="0"/>
        <pt x="392" y="242" on="0"/>
        <pt x="362" y="201" on="1"/>
        <pt x="437" y="127" on="1"/>
        <pt x="400" y="89" on="1"/>
        <pt x="325" y="164" on="1"/>
        <pt x="284" y="134" on="0"/>
        <pt x="180" y="134" on="0"/>
        <pt x="139" y="164" on="1"/>
        <pt x="64" y="89" on="1"/>
        <pt x="26" y="126" on="1"/>
      </contour>
      <contour>
        <pt x="102" y="348" on="0"/>
        <pt x="102" y="240" on="0"/>
        <pt x="178" y="164" on="0"/>
        <pt x="286" y="164" on="0"/>
        <pt x="362" y="240" on="0"/>
        <pt x="362" y="348" on="0"/>
        <pt x="286" y="424" on="0"/>
        <pt x="178" y="424" on="0"/>
      </contour>
    </TTGlyph>
    <TTGlyph name="d" xMin="40" yMin="-12" xMax="470" yMax="654">
      <contour>
        <pt x="337" y="-6" on="1"/>
        <pt x="337" y="80" on="1"/>
        <pt x="281" y="-12" on="0"/>
        <pt x="128" y="-12" on="0"/>
        <pt x="40" y="110" on="0"/>
        <pt x="40" y="320" on="0"/>
        <pt x="152" y="444" on="0"/>
        <pt x="237" y="444" on="1"/>
        <pt x="292" y="444" on="0"/>
        <pt x="337" y="417" on="1"/>
        <pt x="337" y="616" on="1"/>
        <pt x="337" y="630" on="0"/>
        <pt x="323" y="630" on="1"/>
        <pt x="276" y="630" on="1"/>
        <pt x="276" y="648" on="1"/>
        <pt x="325" y="648" on="1"/>
        <pt x="385" y="648" on="0"/>
        <pt x="409" y="654" on="1"/>
        <pt x="409" y="32" on="1"/>
        <pt x="409" y="18" on="0"/>
        <pt x="423" y="18" on="1"/>
        <pt x="470" y="18" on="1"/>
        <pt x="470" y="0" on="1"/>
        <pt x="421" y="0" on="1"/>
        <pt x="361" y="0" on="0"/>
      </contour>
      <contour>
        <pt x="188" y="414" on="0"/>
        <pt x="116" y="311" on="0"/>
        <pt x="116" y="127" on="0"/>
        <pt x="175" y="26" on="0"/>
        <pt x="220" y="26" on="1"/>
        <pt x="285" y="26" on="0"/>
        <pt x="337" y="117" on="1"/>
        <pt x="337" y="386" on="1"/>
        <pt x="291" y="414" on="0"/>
      </contour>
    </TTGlyph>
    <TTGlyph name="dagger" xMin="20" yMin="-107" xMax="367" yMax="660">
      <contour>
        <pt x="201" y="465" on="1"/>
        <pt x="238" y="470" on="0"/>
        <pt x="319" y="493" on="0"/>
        <pt x="348" y="493" on="0"/>
        <pt x="367" y="474" on="0"/>
        <pt x="367" y="442" on="0"/>
        <pt x="348" y="423" on="0"/>
        <pt x="323" y="423" on="0"/>
        <pt x="225" y="447" on="1"/>
        <pt x="199" y="-107" on="1"/>
        <pt x="188" y="-107" on="1"/>
        <pt x="162" y="447" on="1"/>
        <pt x="64" y="423" on="0"/>
        <pt x="40" y="423" on="0"/>
        <pt x="20" y="442" on="0"/>
        <pt x="20" y="474" on="0"/>
        <pt x="40" y="493" on="0"/>
        <pt x="68" y="493" on="0"/>
        <pt x="149" y="470" on="0"/>
        <pt x="186" y="465" on="1"/>
        <pt x="181" y="493" on="0"/>
        <pt x="153" y="597" on="0"/>
        <pt x="153" y="637" on="0"/>
        <pt x="176" y="660" on="0"/>
        <pt x="212" y="660" on="0"/>
        <pt x="235" y="637" on="0"/>
        <pt x="235" y="601" on="0"/>
        <pt x="207" y="497" on="0"/>
      </contour>
    </TTGlyph>
    <TTGlyph name="daggerdbl" xMin="20" yMin="-119" xMax="367" yMax="660">
      <contour>
        <pt x="186" y="76" on="1"/>
        <pt x="149" y="71" on="0"/>
        <pt x="68" y="48" on="0"/>
        <pt x="40" y="48" on="0"/>
        <pt x="20" y="68" on="0"/>
        <pt x="20" y="98" on="0"/>
        <pt x="40" y="118" on="0"/>
        <pt x="64" y="118" on="0"/>
        <pt x="162" y="94" on="1"/>
        <pt x="187" y="270" on="1"/>
        <pt x="162" y="447" on="1"/>
        <pt x="64" y="423" on="0"/>
        <pt x="40" y="423" on="0"/>
        <pt x="20" y="442" on="0"/>
        <pt x="20" y="474" on="0"/>
        <pt x="40" y="493" on="0"/>
        <pt x="68" y="493" on="0"/>
        <pt x="149" y="470" on="0"/>
        <pt x="186" y="465" on="1"/>
        <pt x="181" y="493" on="0"/>
        <pt x="153" y="597" on="0"/>
        <pt x="153" y="637" on="0"/>
        <pt x="176" y="660" on="0"/>
        <pt x="212" y="660" on="0"/>
        <pt x="235" y="637" on="0"/>
        <pt x="235" y="601" on="0"/>
        <pt x="207" y="497" on="0"/>
        <pt x="201" y="465" on="1"/>
        <pt x="238" y="470" on="0"/>
        <pt x="319" y="493" on="0"/>
        <pt x="348" y="493" on="0"/>
        <pt x="367" y="474" on="0"/>
        <pt x="367" y="442" on="0"/>
        <pt x="348" y="423" on="0"/>
        <pt x="323" y="423" on="0"/>
        <pt x="225" y="447" on="1"/>
        <pt x="199" y="270" on="1"/>
        <pt x="225" y="94" on="1"/>
        <pt x="323" y="118" on="0"/>
        <pt x="348" y="118" on="0"/>
        <pt x="367" y="98" on="0"/>
        <pt x="367" y="68" on="0"/>
        <pt x="348" y="48" on="0"/>
        <pt x="319" y="48" on="0"/>
        <pt x="238" y="71" on="0"/>
        <pt x="201" y="76" on="1"/>
        <pt x="206" y="48" on="0"/>
        <pt x="234" y="-56" on="0"/>
        <pt x="234" y="-96" on="0"/>
        <pt x="211" y="-119" on="0"/>
        <pt x="175" y="-119" on="0"/>
        <pt x="152" y="-96" on="0"/>
        <pt x="152" y="-60" on="0"/>
        <pt x="180" y="44" on="0"/>
      </contour>
    </TTGlyph>
    <TTGlyph name="degree" xMin="30" yMin="428" xMax="244" yMax="642">
      <contour>
        <pt x="30" y="491" on="0"/>
        <pt x="30" y="579" on="0"/>
        <pt x="93" y="642" on="0"/>
        <pt x="181" y="642" on="0"/>
        <pt x="244" y="579" on="0"/>
        <pt x="244" y="491" on="0"/>
        <pt x="181" y="428" on="0"/>
        <pt x="93" y="428" on="0"/>
      </contour>
      <contour>
        <pt x="71" y="562" on="0"/>
        <pt x="71" y="508" on="0"/>
        <pt x="110" y="469" on="0"/>
        <pt x="164" y="469" on="0"/>
        <pt x="203" y="508" on="0"/>
        <pt x="203" y="562" on="0"/>
        <pt x="164" y="601" on="0"/>
        <pt x="110" y="601" on="0"/>
      </contour>
    </TTGlyph>
    <TTGlyph name="dieresis" xMin="0" yMin="529" xMax="268" yMax="623">
      <contour>
        <pt x="0" y="556" on="0"/>
        <pt x="0" y="596" on="0"/>
        <pt x="28" y="623" on="0"/>
        <pt x="66" y="623" on="0"/>
        <pt x="94" y="596" on="0"/>
        <pt x="94" y="556" on="0"/>
        <pt x="66" y="529" on="0"/>
        <pt x="28" y="529" on="0"/>
      </contour>
      <contour>
        <pt x="174" y="556" on="0"/>
        <pt x="174" y="596" on="0"/>
        <pt x="202" y="623" on="0"/>
        <pt x="240" y="623" on="0"/>
        <pt x="268" y="596" on="0"/>
        <pt x="268" y="556" on="0"/>
        <pt x="240" y="529" on="0"/>
        <pt x="202" y="529" on="0"/>
      </contour>
    </TTGlyph>
    <TTGlyph name="divide" xMin="70" yMin="9" xMax="462" yMax="384">
      <contour>
        <pt x="462" y="170" on="1"/>
        <pt x="70" y="170" on="1"/>
        <pt x="70" y="223" on="1"/>
        <pt x="462" y="223" on="1"/>
      </contour>
      <contour>
        <pt x="319" y="76" on="0"/>
        <pt x="319" y="38" on="0"/>
        <pt x="290" y="9" on="0"/>
        <pt x="252" y="9" on="0"/>
        <pt x="223" y="38" on="0"/>
        <pt x="223" y="76" on="0"/>
        <pt x="252" y="105" on="0"/>
        <pt x="290" y="105" on="0"/>
      </contour>
      <contour>
        <pt x="319" y="356" on="0"/>
        <pt x="319" y="316" on="0"/>
        <pt x="290" y="288" on="0"/>
        <pt x="252" y="288" on="0"/>
        <pt x="223" y="316" on="0"/>
        <pt x="223" y="356" on="0"/>
        <pt x="252" y="384" on="0"/>
        <pt x="290" y="384" on="0"/>
      </contour>
    </TTGlyph>
    <TTGlyph name="dollar" xMin="45" yMin="-101" xMax="417" yMax="667">
      <contour>
        <pt x="136" y="-10" on="0"/>
        <pt x="45" y="62" on="0"/>
        <pt x="45" y="168" on="0"/>
        <pt x="87" y="168" on="1"/>
        <pt x="110" y="168" on="0"/>
        <pt x="128" y="152" on="1"/>
        <pt x="114" y="127" on="0"/>
        <pt x="114" y="59" on="0"/>
        <pt x="170" y="14" on="0"/>
        <pt x="210" y="12" on="1"/>
        <pt x="210" y="254" on="1"/>
        <pt x="157" y="278" on="1"/>
        <pt x="109" y="300" on="0"/>
        <pt x="60" y="375" on="0"/>
        <pt x="60" y="418" on="1"/>
        <pt x="60" y="480" on="0"/>
        <pt x="137" y="572" on="0"/>
        <pt x="210" y="578" on="1"/>
        <pt x="210" y="667" on="1"/>
        <pt x="241" y="667" on="1"/>
        <pt x="241" y="579" on="1"/>
        <pt x="313" y="576" on="0"/>
        <pt x="387" y="506" on="0"/>
        <pt x="387" y="399" on="0"/>
        <pt x="351" y="399" on="1"/>
        <pt x="322" y="399" on="0"/>
        <pt x="305" y="414" on="1"/>
        <pt x="318" y="443" on="0"/>
        <pt x="318" y="500" on="0"/>
        <pt x="278" y="547" on="0"/>
        <pt x="241" y="550" on="1"/>
        <pt x="241" y="319" on="1"/>
        <pt x="306" y="290" on="1"/>
        <pt x="360" y="266" on="0"/>
        <pt x="417" y="188" on="0"/>
        <pt x="417" y="146" on="1"/>
        <pt x="417" y="82" on="0"/>
        <pt x="320" y="-4" on="0"/>
        <pt x="241" y="-11" on="1"/>
        <pt x="241" y="-101" on="1"/>
        <pt x="210" y="-101" on="1"/>
        <pt x="210" y="-12" on="1"/>
      </contour>
      <contour>
        <pt x="263" y="230" on="1"/>
        <pt x="241" y="240" on="1"/>
        <pt x="241" y="13" on="1"/>
        <pt x="288" y="20" on="0"/>
        <pt x="344" y="85" on="0"/>
        <pt x="344" y="124" on="1"/>
        <pt x="344" y="192" on="0"/>
      </contour>
      <contour>
        <pt x="121" y="449" on="1"/>
        <pt x="121" y="373" on="0"/>
        <pt x="199" y="338" on="1"/>
        <pt x="210" y="333" on="1"/>
        <pt x="210" y="549" on="1"/>
        <pt x="168" y="543" on="0"/>
        <pt x="121" y="486" on="0"/>
      </contour>
    </TTGlyph>
    <TTGlyph name="dotaccent" xMin="40" yMin="521" xMax="152" yMax="633">
      <contour>
        <pt x="40" y="554" on="0"/>
        <pt x="40" y="600" on="0"/>
        <pt x="73" y="633" on="0"/>
        <pt x="119" y="633" on="0"/>
        <pt x="152" y="600" on="0"/>
        <pt x="152" y="554" on="0"/>
        <pt x="119" y="521" on="0"/>
        <pt x="73" y="521" on="0"/>
      </contour>
    </TTGlyph>
    <TTGlyph name="dotlessi" xMin="45" yMin="0" xMax="239" yMax="438">
      <contour>
        <pt x="106" y="32" on="1"/>
        <pt x="106" y="400" on="1"/>
        <pt x="106" y="414" on="0"/>
        <pt x="92" y="414" on="1"/>
        <pt x="45" y="414" on="1"/>
        <pt x="45" y="432" on="1"/>
        <pt x="94" y="432" on="1"/>
        <pt x="154" y="432" on="0"/>
        <pt x="178" y="438" on="1"/>
        <pt x="178" y="32" on="1"/>
        <pt x="178" y="18" on="0"/>
        <pt x="192" y="18" on="1"/>
        <pt x="239" y="18" on="1"/>
        <pt x="239" y="0" on="1"/>
        <pt x="45" y="0" on="1"/>
        <pt x="45" y="18" on="1"/>
        <pt x="92" y="18" on="1"/>
        <pt x="106" y="18" on="0"/>
      </contour>
    </TTGlyph>
    <TTGlyph name="e" xMin="40" yMin="-12" xMax="396" yMax="444">
      <contour>
        <pt x="242" y="444" on="1"/>
        <pt x="311" y="444" on="0"/>
        <pt x="391" y="352" on="0"/>
        <pt x="391" y="263" on="1"/>
        <pt x="391" y="245" on="0"/>
        <pt x="389" y="223" on="1"/>
        <pt x="116" y="223" on="1"/>
        <pt x="116" y="216" on="1"/>
        <pt x="116" y="121" on="0"/>
        <pt x="185" y="12" on="0"/>
        <pt x="294" y="12" on="0"/>
        <pt x="364" y="68" on="0"/>
        <pt x="377" y="120" on="1"/>
        <pt x="396" y="116" on="1"/>
        <pt x="384" y="55" on="0"/>
        <pt x="298" y="-12" on="0"/>
        <pt x="242" y="-12" on="1"/>
        <pt x="155" y="-12" on="0"/>
        <pt x="40" y="110" on="0"/>
        <pt x="40" y="321" on="0"/>
        <pt x="156" y="444" on="0"/>
      </contour>
      <contour>
        <pt x="322" y="297" on="1"/>
        <pt x="322" y="420" on="0"/>
        <pt x="230" y="420" on="1"/>
        <pt x="184" y="420" on="0"/>
        <pt x="119" y="320" on="0"/>
        <pt x="117" y="243" on="1"/>
        <pt x="318" y="243" on="1"/>
        <pt x="322" y="277" on="0"/>
      </contour>
    </TTGlyph>
    <TTGlyph name="eacute" xMin="40" yMin="-12" xMax="396" yMax="648">
      <contour>
        <pt x="242" y="444" on="1"/>
        <pt x="311" y="444" on="0"/>
        <pt x="391" y="352" on="0"/>
        <pt x="391" y="263" on="1"/>
        <pt x="391" y="245" on="0"/>
        <pt x="389" y="223" on="1"/>
        <pt x="116" y="223" on="1"/>
        <pt x="116" y="216" on="1"/>
        <pt x="116" y="121" on="0"/>
        <pt x="185" y="12" on="0"/>
        <pt x="294" y="12" on="0"/>
        <pt x="364" y="68" on="0"/>
        <pt x="377" y="120" on="1"/>
        <pt x="396" y="116" on="1"/>
        <pt x="384" y="55" on="0"/>
        <pt x="298" y="-12" on="0"/>
        <pt x="242" y="-12" on="1"/>
        <pt x="155" y="-12" on="0"/>
        <pt x="40" y="110" on="0"/>
        <pt x="40" y="321" on="0"/>
        <pt x="156" y="444" on="0"/>
      </contour>
      <contour>
        <pt x="322" y="297" on="1"/>
        <pt x="322" y="420" on="0"/>
        <pt x="230" y="420" on="1"/>
        <pt x="184" y="420" on="0"/>
        <pt x="119" y="320" on="0"/>
        <pt x="117" y="243" on="1"/>
        <pt x="318" y="243" on="1"/>
        <pt x="322" y="277" on="0"/>
      </contour>
      <contour>
        <pt x="172" y="480" on="1"/>
        <pt x="243" y="614" on="1"/>
        <pt x="261" y="648" on="0"/>
        <pt x="286" y="648" on="1"/>
        <pt x="300" y="648" on="0"/>
        <pt x="322" y="625" on="0"/>
        <pt x="322" y="602" on="1"/>
        <pt x="188" y="468" on="1"/>
      </contour>
    </TTGlyph>
    <TTGlyph name="ecircumflex" xMin="40" yMin="-12" xMax="396" yMax="648">
      <contour>
        <pt x="242" y="444" on="1"/>
        <pt x="311" y="444" on="0"/>
        <pt x="391" y="352" on="0"/>
        <pt x="391" y="263" on="1"/>
        <pt x="391" y="245" on="0"/>
        <pt x="389" y="223" on="1"/>
        <pt x="116" y="223" on="1"/>
        <pt x="116" y="216" on="1"/>
        <pt x="116" y="121" on="0"/>
        <pt x="185" y="12" on="0"/>
        <pt x="294" y="12" on="0"/>
        <pt x="364" y="68" on="0"/>
        <pt x="377" y="120" on="1"/>
        <pt x="396" y="116" on="1"/>
        <pt x="384" y="55" on="0"/>
        <pt x="298" y="-12" on="0"/>
        <pt x="242" y="-12" on="1"/>
        <pt x="155" y="-12" on="0"/>
        <pt x="40" y="110" on="0"/>
        <pt x="40" y="321" on="0"/>
        <pt x="156" y="444" on="0"/>
      </contour>
      <contour>
        <pt x="322" y="297" on="1"/>
        <pt x="322" y="420" on="0"/>
        <pt x="230" y="420" on="1"/>
        <pt x="184" y="420" on="0"/>
        <pt x="119" y="320" on="0"/>
        <pt x="117" y="243" on="1"/>
        <pt x="318" y="243" on="1"/>
        <pt x="322" y="277" on="0"/>
      </contour>
      <contour>
        <pt x="187" y="614" on="1"/>
        <pt x="203" y="648" on="0"/>
        <pt x="257" y="648" on="0"/>
        <pt x="273" y="614" on="1"/>
        <pt x="334" y="480" on="1"/>
        <pt x="318" y="468" on="1"/>
        <pt x="229" y="583" on="1"/>
        <pt x="142" y="468" on="1"/>
        <pt x="126" y="480" on="1"/>
      </contour>
    </TTGlyph>
    <TTGlyph name="edieresis" xMin="40" yMin="-12" xMax="396" yMax="623">
      <contour>
        <pt x="242" y="444" on="1"/>
        <pt x="311" y="444" on="0"/>
        <pt x="391" y="352" on="0"/>
        <pt x="391" y="263" on="1"/>
        <pt x="391" y="245" on="0"/>
        <pt x="389" y="223" on="1"/>
        <pt x="116" y="223" on="1"/>
        <pt x="116" y="216" on="1"/>
        <pt x="116" y="121" on="0"/>
        <pt x="185" y="12" on="0"/>
        <pt x="294" y="12" on="0"/>
        <pt x="364" y="68" on="0"/>
        <pt x="377" y="120" on="1"/>
        <pt x="396" y="116" on="1"/>
        <pt x="384" y="55" on="0"/>
        <pt x="298" y="-12" on="0"/>
        <pt x="242" y="-12" on="1"/>
        <pt x="155" y="-12" on="0"/>
        <pt x="40" y="110" on="0"/>
        <pt x="40" y="321" on="0"/>
        <pt x="156" y="444" on="0"/>
      </contour>
      <contour>
        <pt x="322" y="297" on="1"/>
        <pt x="322" y="420" on="0"/>
        <pt x="230" y="420" on="1"/>
        <pt x="184" y="420" on="0"/>
        <pt x="119" y="320" on="0"/>
        <pt x="117" y="243" on="1"/>
        <pt x="318" y="243" on="1"/>
        <pt x="322" y="277" on="0"/>
      </contour>
      <contour>
        <pt x="99" y="556" on="0"/>
        <pt x="99" y="596" on="0"/>
        <pt x="126" y="623" on="0"/>
        <pt x="166" y="623" on="0"/>
        <pt x="193" y="596" on="0"/>
        <pt x="193" y="556" on="0"/>
        <pt x="166" y="529" on="0"/>
        <pt x="126" y="529" on="0"/>
      </contour>
      <contour>
        <pt x="273" y="556" on="0"/>
        <pt x="273" y="596" on="0"/>
        <pt x="300" y="623" on="0"/>
        <pt x="340" y="623" on="0"/>
        <pt x="367" y="596" on="0"/>
        <pt x="367" y="556" on="0"/>
        <pt x="340" y="529" on="0"/>
        <pt x="300" y="529" on="0"/>
      </contour>
    </TTGlyph>
    <TTGlyph name="egrave" xMin="40" yMin="-12" xMax="396" yMax="648">
      <component glyphName="e" x="0" y="0" flags="0x1004"/>
      <component glyphName="grave" x="125" y="0" flags="0x1004"/>
    </TTGlyph>
    <TTGlyph name="eight" xMin="46" yMin="-12" xMax="416" yMax="579">
      <contour>
        <pt x="72" y="435" on="1"/>
        <pt x="72" y="502" on="0"/>
        <pt x="160" y="579" on="0"/>
        <pt x="302" y="579" on="0"/>
        <pt x="390" y="502" on="0"/>
        <pt x="390" y="435" on="1"/>
        <pt x="390" y="385" on="0"/>
        <pt x="339" y="316" on="0"/>
        <pt x="295" y="301" on="1"/>
        <pt x="351" y="286" on="0"/>
        <pt x="416" y="207" on="0"/>
        <pt x="416" y="73" on="0"/>
        <pt x="313" y="-12" on="0"/>
        <pt x="149" y="-12" on="0"/>
        <pt x="46" y="73" on="0"/>
        <pt x="46" y="207" on="0"/>
        <pt x="110" y="286" on="0"/>
        <pt x="166" y="301" on="1"/>
        <pt x="122" y="316" on="0"/>
        <pt x="72" y="385" on="0"/>
      </contour>
      <contour>
        <pt x="124" y="214" on="0"/>
        <pt x="124" y="84" on="0"/>
        <pt x="186" y="9" on="0"/>
        <pt x="276" y="9" on="0"/>
        <pt x="339" y="85" on="0"/>
        <pt x="339" y="214" on="0"/>
        <pt x="276" y="289" on="0"/>
        <pt x="186" y="289" on="0"/>
      </contour>
      <contour>
        <pt x="142" y="491" on="0"/>
        <pt x="142" y="377" on="0"/>
        <pt x="193" y="311" on="0"/>
        <pt x="269" y="311" on="0"/>
        <pt x="320" y="377" on="0"/>
        <pt x="320" y="491" on="0"/>
        <pt x="269" y="557" on="0"/>
        <pt x="193" y="557" on="0"/>
      </contour>
    </TTGlyph>
    <TTGlyph name="ellipsis" xMin="40" yMin="-12" xMax="536" yMax="100">
      <contour>
        <pt x="40" y="21" on="0"/>
        <pt x="40" y="67" on="0"/>
        <pt x="73" y="100" on="0"/>
        <pt x="119" y="100" on="0"/>
        <pt x="152" y="67" on="0"/>
        <pt x="152" y="21" on="0"/>
        <pt x="119" y="-12" on="0"/>
        <pt x="73" y="-12" on="0"/>
      </contour>
      <contour>
        <pt x="232" y="21" on="0"/>
        <pt x="232" y="67" on="0"/>
        <pt x="265" y="100" on="0"/>
        <pt x="311" y="100" on="0"/>
        <pt x="344" y="67" on="0"/>
        <pt x="344" y="21" on="0"/>
        <pt x="311" y="-12" on="0"/>
        <pt x="265" y="-12" on="0"/>
      </contour>
      <contour>
        <pt x="424" y="21" on="0"/>
        <pt x="424" y="67" on="0"/>
        <pt x="457" y="100" on="0"/>
        <pt x="503" y="100" on="0"/>
        <pt x="536" y="67" on="0"/>
        <pt x="536" y="21" on="0"/>
        <pt x="503" y="-12" on="0"/>
        <pt x="457" y="-12" on="0"/>
      </contour>
    </TTGlyph>
    <TTGlyph name="emdash" xMin="30" yMin="211" xMax="630" yMax="251">
      <contour>
        <pt x="30" y="211" on="1"/>
        <pt x="30" y="251" on="1"/>
        <pt x="630" y="251" on="1"/>
        <pt x="630" y="211" on="1"/>
      </contour>
    </TTGlyph>
    <TTGlyph name="endash" xMin="30" yMin="211" xMax="376" yMax="251">
      <contour>
        <pt x="30" y="211" on="1"/>
        <pt x="30" y="251" on="1"/>
        <pt x="376" y="251" on="1"/>
        <pt x="376" y="211" on="1"/>
      </contour>
    </TTGlyph>
    <TTGlyph name="equal" xMin="70" yMin="85" xMax="462" yMax="308">
      <contour>
        <pt x="462" y="255" on="1"/>
        <pt x="70" y="255" on="1"/>
        <pt x="70" y="308" on="1"/>
        <pt x="462" y="308" on="1"/>
      </contour>
      <contour>
        <pt x="462" y="85" on="1"/>
        <pt x="70" y="85" on="1"/>
        <pt x="70" y="138" on="1"/>
        <pt x="462" y="138" on="1"/>
      </contour>
    </TTGlyph>
    <TTGlyph name="eth" xMin="40" yMin="-12" xMax="447" yMax="660">
      <contour>
        <pt x="169" y="486" on="1"/>
        <pt x="151" y="521" on="1"/>
        <pt x="238" y="566" on="1"/>
        <pt x="190" y="610" on="0"/>
        <pt x="125" y="637" on="1"/>
        <pt x="132" y="660" on="1"/>
        <pt x="212" y="635" on="0"/>
        <pt x="275" y="584" on="1"/>
        <pt x="370" y="633" on="1"/>
        <pt x="388" y="598" on="1"/>
        <pt x="306" y="556" on="1"/>
        <pt x="374" y="490" on="0"/>
        <pt x="447" y="314" on="0"/>
        <pt x="447" y="124" on="0"/>
        <pt x="341" y="-12" on="0"/>
        <pt x="152" y="-12" on="0"/>
        <pt x="40" y="110" on="0"/>
        <pt x="40" y="314" on="0"/>
        <pt x="152" y="437" on="0"/>
        <pt x="302" y="437" on="0"/>
        <pt x="351" y="373" on="1"/>
        <pt x="354" y="374" on="1"/>
        <pt x="326" y="470" on="0"/>
        <pt x="267" y="536" on="1"/>
      </contour>
      <contour>
        <pt x="189" y="409" on="0"/>
        <pt x="116" y="305" on="0"/>
        <pt x="116" y="121" on="0"/>
        <pt x="189" y="10" on="0"/>
        <pt x="300" y="10" on="0"/>
        <pt x="374" y="121" on="0"/>
        <pt x="374" y="305" on="0"/>
        <pt x="300" y="409" on="0"/>
      </contour>
    </TTGlyph>
    <TTGlyph name="exclam" xMin="89" yMin="-12" xMax="185" yMax="642">
      <contour>
        <pt x="183" y="583" on="1"/>
        <pt x="150" y="170" on="1"/>
        <pt x="124" y="170" on="1"/>
        <pt x="90" y="583" on="1"/>
        <pt x="90" y="642" on="0"/>
        <pt x="183" y="642" on="0"/>
      </contour>
      <contour>
        <pt x="185" y="56" on="0"/>
        <pt x="185" y="16" on="0"/>
        <pt x="156" y="-12" on="0"/>
        <pt x="118" y="-12" on="0"/>
        <pt x="89" y="16" on="0"/>
        <pt x="89" y="56" on="0"/>
        <pt x="118" y="84" on="0"/>
        <pt x="156" y="84" on="0"/>
      </contour>
    </TTGlyph>
    <TTGlyph name="exclamdown" xMin="89" yMin="-210" xMax="185" yMax="444">
      <contour>
        <pt x="185" y="416" on="0"/>
        <pt x="185" y="376" on="0"/>
        <pt x="156" y="348" on="0"/>
        <pt x="118" y="348" on="0"/>
        <pt x="89" y="376" on="0"/>
        <pt x="89" y="416" on="0"/>
        <pt x="118" y="444" on="0"/>
        <pt x="156" y="444" on="0"/>
      </contour>
      <contour>
        <pt x="91" y="-151" on="1"/>
        <pt x="124" y="262" on="1"/>
        <pt x="150" y="262" on="1"/>
        <pt x="184" y="-151" on="1"/>
        <pt x="184" y="-210" on="0"/>
        <pt x="91" y="-210" on="0"/>
      </contour>
    </TTGlyph>
    <TTGlyph name="f" xMin="45" yMin="0" xMax="341" yMax="660">
      <contour>
        <pt x="178" y="552" on="1"/>
        <pt x="178" y="432" on="1"/>
        <pt x="278" y="432" on="1"/>
        <pt x="278" y="414" on="1"/>
        <pt x="178" y="414" on="1"/>
        <pt x="178" y="30" on="1"/>
        <pt x="178" y="18" on="0"/>
        <pt x="194" y="18" on="1"/>
        <pt x="259" y="18" on="1"/>
        <pt x="259" y="0" on="1"/>
        <pt x="45" y="0" on="1"/>
        <pt x="45" y="18" on="1"/>
        <pt x="92" y="18" on="1"/>
        <pt x="106" y="18" on="0"/>
        <pt x="106" y="32" on="1"/>
        <pt x="106" y="400" on="1"/>
        <pt x="106" y="414" on="0"/>
        <pt x="92" y="414" on="1"/>
        <pt x="45" y="414" on="1"/>
        <pt x="45" y="432" on="1"/>
        <pt x="107" y="432" on="1"/>
        <pt x="113" y="548" on="0"/>
        <pt x="188" y="660" on="0"/>
        <pt x="293" y="660" on="0"/>
        <pt x="341" y="609" on="0"/>
        <pt x="341" y="580" on="1"/>
        <pt x="341" y="520" on="0"/>
        <pt x="306" y="520" on="1"/>
        <pt x="277" y="520" on="0"/>
        <pt x="259" y="535" on="1"/>
        <pt x="274" y="565" on="0"/>
        <pt x="274" y="588" on="1"/>
        <pt x="274" y="637" on="0"/>
        <pt x="233" y="637" on="1"/>
        <pt x="178" y="637" on="0"/>
      </contour>
    </TTGlyph>
    <TTGlyph name="fi" xMin="45" yMin="0" xMax="538" yMax="660">
      <contour>
        <pt x="178" y="552" on="1"/>
        <pt x="178" y="432" on="1"/>
        <pt x="278" y="432" on="1"/>
        <pt x="278" y="414" on="1"/>
        <pt x="178" y="414" on="1"/>
        <pt x="178" y="30" on="1"/>
        <pt x="178" y="18" on="0"/>
        <pt x="194" y="18" on="1"/>
        <pt x="259" y="18" on="1"/>
        <pt x="259" y="0" on="1"/>
        <pt x="45" y="0" on="1"/>
        <pt x="45" y="18" on="1"/>
        <pt x="92" y="18" on="1"/>
        <pt x="106" y="18" on="0"/>
        <pt x="106" y="32" on="1"/>
        <pt x="106" y="400" on="1"/>
        <pt x="106" y="414" on="0"/>
        <pt x="92" y="414" on="1"/>
        <pt x="45" y="414" on="1"/>
        <pt x="45" y="432" on="1"/>
        <pt x="107" y="432" on="1"/>
        <pt x="113" y="548" on="0"/>
        <pt x="188" y="660" on="0"/>
        <pt x="293" y="660" on="0"/>
        <pt x="341" y="609" on="0"/>
        <pt x="341" y="580" on="1"/>
        <pt x="341" y="520" on="0"/>
        <pt x="306" y="520" on="1"/>
        <pt x="277" y="520" on="0"/>
        <pt x="259" y="535" on="1"/>
        <pt x="274" y="565" on="0"/>
        <pt x="274" y="588" on="1"/>
        <pt x="274" y="637" on="0"/>
        <pt x="233" y="637" on="1"/>
        <pt x="178" y="637" on="0"/>
      </contour>
      <contour>
        <pt x="405" y="32" on="1"/>
        <pt x="405" y="400" on="1"/>
        <pt x="405" y="414" on="0"/>
        <pt x="391" y="414" on="1"/>
        <pt x="344" y="414" on="1"/>
        <pt x="344" y="432" on="1"/>
        <pt x="393" y="432" on="1"/>
        <pt x="453" y="432" on="0"/>
        <pt x="477" y="438" on="1"/>
        <pt x="477" y="30" on="1"/>
        <pt x="477" y="18" on="0"/>
        <pt x="491" y="18" on="1"/>
        <pt x="538" y="18" on="1"/>
        <pt x="538" y="0" on="1"/>
        <pt x="344" y="0" on="1"/>
        <pt x="344" y="18" on="1"/>
        <pt x="391" y="18" on="1"/>
        <pt x="405" y="18" on="0"/>
      </contour>
      <contour>
        <pt x="394" y="556" on="0"/>
        <pt x="394" y="596" on="0"/>
        <pt x="422" y="623" on="0"/>
        <pt x="460" y="623" on="0"/>
        <pt x="488" y="596" on="0"/>
        <pt x="488" y="556" on="0"/>
        <pt x="460" y="529" on="0"/>
        <pt x="422" y="529" on="0"/>
      </contour>
    </TTGlyph>
    <TTGlyph name="five" xMin="57" yMin="-12" xMax="413" yMax="609">
      <contour>
        <pt x="93" y="288" on="1"/>
        <pt x="115" y="566" on="1"/>
        <pt x="344" y="566" on="1"/>
        <pt x="370" y="566" on="0"/>
        <pt x="373" y="589" on="1"/>
        <pt x="375" y="609" on="1"/>
        <pt x="396" y="609" on="1"/>
        <pt x="393" y="575" on="1"/>
        <pt x="389" y="525" on="0"/>
        <pt x="357" y="501" on="0"/>
        <pt x="310" y="501" on="1"/>
        <pt x="140" y="501" on="1"/>
        <pt x="125" y="321" on="1"/>
        <pt x="169" y="331" on="0"/>
        <pt x="210" y="331" on="1"/>
        <pt x="306" y="331" on="0"/>
        <pt x="413" y="229" on="0"/>
        <pt x="413" y="90" on="0"/>
        <pt x="306" y="-12" on="0"/>
        <pt x="210" y="-12" on="1"/>
        <pt x="135" y="-12" on="0"/>
        <pt x="57" y="59" on="0"/>
        <pt x="57" y="168" on="0"/>
        <pt x="93" y="168" on="1"/>
        <pt x="123" y="168" on="0"/>
        <pt x="139" y="152" on="1"/>
        <pt x="126" y="126" on="0"/>
        <pt x="126" y="56" on="0"/>
        <pt x="169" y="9" on="0"/>
        <pt x="210" y="9" on="1"/>
        <pt x="270" y="9" on="0"/>
        <pt x="337" y="91" on="0"/>
        <pt x="337" y="224" on="0"/>
        <pt x="248" y="302" on="0"/>
        <pt x="178" y="302" on="1"/>
        <pt x="134" y="302" on="0"/>
      </contour>
    </TTGlyph>
    <TTGlyph name="fl" xMin="45" yMin="0" xMax="523" yMax="660">
      <contour>
        <pt x="390" y="32" on="1"/>
        <pt x="390" y="616" on="1"/>
        <pt x="390" y="630" on="0"/>
        <pt x="376" y="630" on="1"/>
        <pt x="349" y="630" on="1"/>
        <pt x="349" y="648" on="1"/>
        <pt x="378" y="648" on="1"/>
        <pt x="438" y="648" on="0"/>
        <pt x="462" y="654" on="1"/>
        <pt x="462" y="32" on="1"/>
        <pt x="462" y="18" on="0"/>
        <pt x="476" y="18" on="1"/>
        <pt x="523" y="18" on="1"/>
        <pt x="523" y="0" on="1"/>
        <pt x="329" y="0" on="1"/>
        <pt x="329" y="18" on="1"/>
        <pt x="376" y="18" on="1"/>
        <pt x="390" y="18" on="0"/>
      </contour>
      <contour>
        <pt x="178" y="552" on="1"/>
        <pt x="178" y="432" on="1"/>
        <pt x="278" y="432" on="1"/>
        <pt x="278" y="414" on="1"/>
        <pt x="178" y="414" on="1"/>
        <pt x="178" y="30" on="1"/>
        <pt x="178" y="18" on="0"/>
        <pt x="194" y="18" on="1"/>
        <pt x="259" y="18" on="1"/>
        <pt x="259" y="0" on="1"/>
        <pt x="45" y="0" on="1"/>
        <pt x="45" y="18" on="1"/>
        <pt x="92" y="18" on="1"/>
        <pt x="106" y="18" on="0"/>
        <pt x="106" y="32" on="1"/>
        <pt x="106" y="400" on="1"/>
        <pt x="106" y="414" on="0"/>
        <pt x="92" y="414" on="1"/>
        <pt x="45" y="414" on="1"/>
        <pt x="45" y="432" on="1"/>
        <pt x="107" y="432" on="1"/>
        <pt x="113" y="548" on="0"/>
        <pt x="188" y="660" on="0"/>
        <pt x="293" y="660" on="0"/>
        <pt x="341" y="609" on="0"/>
        <pt x="341" y="580" on="1"/>
        <pt x="341" y="520" on="0"/>
        <pt x="306" y="520" on="1"/>
        <pt x="277" y="520" on="0"/>
        <pt x="259" y="535" on="1"/>
        <pt x="274" y="565" on="0"/>
        <pt x="274" y="588" on="1"/>
        <pt x="274" y="637" on="0"/>
        <pt x="233" y="637" on="1"/>
        <pt x="178" y="637" on="0"/>
      </contour>
    </TTGlyph>
    <TTGlyph name="florin" xMin="59" yMin="-222" xMax="424" yMax="579">
      <contour>
        <pt x="424" y="476" on="1"/>
        <pt x="424" y="407" on="0"/>
        <pt x="378" y="407" on="1"/>
        <pt x="353" y="407" on="0"/>
        <pt x="340" y="422" on="1"/>
        <pt x="355" y="455" on="0"/>
        <pt x="355" y="516" on="0"/>
        <pt x="330" y="554" on="0"/>
        <pt x="305" y="554" on="1"/>
        <pt x="259" y="554" on="0"/>
        <pt x="222" y="468" on="0"/>
        <pt x="222" y="390" on="1"/>
        <pt x="221" y="278" on="1"/>
        <pt x="354" y="278" on="1"/>
        <pt x="354" y="247" on="1"/>
        <pt x="221" y="247" on="1"/>
        <pt x="221" y="-87" on="1"/>
        <pt x="221" y="-151" on="0"/>
        <pt x="153" y="-212" on="0"/>
        <pt x="64" y="-222" on="1"/>
        <pt x="60" y="-198" on="1"/>
        <pt x="151" y="-180" on="0"/>
        <pt x="151" y="-105" on="1"/>
        <pt x="151" y="247" on="1"/>
        <pt x="59" y="247" on="1"/>
        <pt x="59" y="278" on="1"/>
        <pt x="151" y="278" on="1"/>
        <pt x="159" y="579" on="0"/>
        <pt x="304" y="579" on="1"/>
        <pt x="364" y="579" on="0"/>
        <pt x="424" y="522" on="0"/>
      </contour>
    </TTGlyph>
    <TTGlyph name="four" xMin="0" yMin="0" xMax="434" yMax="579">
      <contour>
        <pt x="317" y="579" on="1"/>
        <pt x="350" y="579" on="1"/>
        <pt x="350" y="165" on="1"/>
        <pt x="434" y="165" on="1"/>
        <pt x="434" y="134" on="1"/>
        <pt x="350" y="134" on="1"/>
        <pt x="350" y="31" on="1"/>
        <pt x="350" y="19" on="0"/>
        <pt x="365" y="19" on="1"/>
        <pt x="434" y="19" on="1"/>
        <pt x="434" y="0" on="1"/>
        <pt x="193" y="0" on="1"/>
        <pt x="193" y="19" on="1"/>
        <pt x="262" y="19" on="1"/>
        <pt x="276" y="19" on="0"/>
        <pt x="276" y="33" on="1"/>
        <pt x="276" y="134" on="1"/>
        <pt x="0" y="134" on="1"/>
      </contour>
      <contour>
        <pt x="57" y="165" on="1"/>
        <pt x="276" y="165" on="1"/>
        <pt x="276" y="472" on="1"/>
      </contour>
    </TTGlyph>
    <TTGlyph name="fraction" xMin="17" yMin="-74" xMax="302" yMax="648">
      <contour>
        <pt x="52" y="-74" on="1"/>
        <pt x="17" y="-74" on="1"/>
        <pt x="266" y="648" on="1"/>
        <pt x="302" y="648" on="1"/>
      </contour>
    </TTGlyph>
    <TTGlyph name="g" xMin="40" yMin="-228" xMax="472" yMax="518">
      <contour>
        <pt x="428" y="420" on="1"/>
        <pt x="420" y="421" on="1"/>
        <pt x="411" y="483" on="0"/>
        <pt x="375" y="483" on="1"/>
        <pt x="357" y="483" on="0"/>
        <pt x="327" y="445" on="0"/>
        <pt x="324" y="414" on="1"/>
        <pt x="378" y="373" on="0"/>
        <pt x="378" y="227" on="0"/>
        <pt x="293" y="148" on="0"/>
        <pt x="225" y="148" on="1"/>
        <pt x="136" y="148" on="1"/>
        <pt x="111" y="148" on="0"/>
        <pt x="84" y="120" on="0"/>
        <pt x="84" y="82" on="0"/>
        <pt x="111" y="54" on="0"/>
        <pt x="136" y="54" on="1"/>
        <pt x="303" y="54" on="1"/>
        <pt x="363" y="54" on="0"/>
        <pt x="424" y="-1" on="0"/>
        <pt x="424" y="-43" on="1"/>
        <pt x="424" y="-110" on="0"/>
        <pt x="298" y="-228" on="0"/>
        <pt x="204" y="-228" on="1"/>
        <pt x="132" y="-228" on="0"/>
        <pt x="42" y="-160" on="0"/>
        <pt x="42" y="-56" on="0"/>
        <pt x="97" y="-8" on="1"/>
        <pt x="71" y="-1" on="0"/>
        <pt x="40" y="44" on="0"/>
        <pt x="40" y="110" on="0"/>
        <pt x="88" y="163" on="0"/>
        <pt x="136" y="163" on="1"/>
        <pt x="151" y="163" on="1"/>
        <pt x="73" y="199" on="0"/>
        <pt x="73" y="296" on="1"/>
        <pt x="73" y="365" on="0"/>
        <pt x="157" y="444" on="0"/>
        <pt x="225" y="444" on="1"/>
        <pt x="270" y="444" on="0"/>
        <pt x="304" y="426" on="1"/>
        <pt x="311" y="466" on="0"/>
        <pt x="354" y="518" on="0"/>
        <pt x="425" y="518" on="0"/>
        <pt x="472" y="480" on="0"/>
        <pt x="472" y="458" on="1"/>
        <pt x="472" y="420" on="0"/>
      </contour>
      <contour>
        <pt x="303" y="-12" on="1"/>
        <pt x="128" y="-12" on="1"/>
        <pt x="96" y="-49" on="0"/>
        <pt x="96" y="-143" on="0"/>
        <pt x="152" y="-204" on="0"/>
        <pt x="277" y="-204" on="0"/>
        <pt x="379" y="-116" on="0"/>
        <pt x="379" y="-69" on="1"/>
        <pt x="379" y="-44" on="0"/>
        <pt x="341" y="-12" on="0"/>
      </contour>
      <contour>
        <pt x="144" y="354" on="0"/>
        <pt x="144" y="238" on="0"/>
        <pt x="190" y="170" on="0"/>
        <pt x="260" y="170" on="0"/>
        <pt x="307" y="238" on="0"/>
        <pt x="307" y="354" on="0"/>
        <pt x="260" y="422" on="0"/>
        <pt x="190" y="422" on="0"/>
      </contour>
    </TTGlyph>
    <TTGlyph name="germandbls" xMin="45" yMin="-12" xMax="506" yMax="660">
      <contour>
        <pt x="211" y="46" on="0"/>
        <pt x="211" y="154" on="0"/>
        <pt x="252" y="154" on="1"/>
        <pt x="276" y="154" on="0"/>
        <pt x="291" y="139" on="1"/>
        <pt x="277" y="107" on="0"/>
        <pt x="277" y="49" on="0"/>
        <pt x="314" y="12" on="0"/>
        <pt x="390" y="12" on="0"/>
        <pt x="447" y="65" on="0"/>
        <pt x="447" y="120" on="0"/>
        <pt x="423" y="154" on="0"/>
        <pt x="390" y="176" on="1"/>
        <pt x="309" y="230" on="1"/>
        <pt x="282" y="248" on="0"/>
        <pt x="256" y="283" on="0"/>
        <pt x="256" y="344" on="0"/>
        <pt x="293" y="401" on="0"/>
        <pt x="336" y="439" on="0"/>
        <pt x="373" y="503" on="0"/>
        <pt x="373" y="586" on="0"/>
        <pt x="324" y="636" on="0"/>
        <pt x="245" y="636" on="0"/>
        <pt x="178" y="561" on="0"/>
        <pt x="178" y="495" on="1"/>
        <pt x="178" y="0" on="1"/>
        <pt x="45" y="0" on="1"/>
        <pt x="45" y="18" on="1"/>
        <pt x="92" y="18" on="1"/>
        <pt x="106" y="18" on="0"/>
        <pt x="106" y="32" on="1"/>
        <pt x="106" y="400" on="1"/>
        <pt x="106" y="414" on="0"/>
        <pt x="92" y="414" on="1"/>
        <pt x="45" y="414" on="1"/>
        <pt x="45" y="432" on="1"/>
        <pt x="107" y="432" on="1"/>
        <pt x="107" y="544" on="0"/>
        <pt x="226" y="660" on="0"/>
        <pt x="305" y="660" on="1"/>
        <pt x="362" y="660" on="0"/>
        <pt x="444" y="599" on="0"/>
        <pt x="444" y="549" on="1"/>
        <pt x="444" y="517" on="0"/>
        <pt x="403" y="456" on="0"/>
        <pt x="379" y="437" on="1"/>
        <pt x="314" y="386" on="0"/>
        <pt x="314" y="319" on="0"/>
        <pt x="367" y="283" on="1"/>
        <pt x="430" y="241" on="1"/>
        <pt x="473" y="213" on="0"/>
        <pt x="506" y="160" on="0"/>
        <pt x="506" y="126" on="1"/>
        <pt x="506" y="72" on="0"/>
        <pt x="420" y="-12" on="0"/>
        <pt x="290" y="-12" on="0"/>
      </contour>
    </TTGlyph>
    <TTGlyph name="grave" xMin="0" yMin="468" xMax="150" yMax="648">
      <contour>
        <pt x="79" y="614" on="1"/>
        <pt x="150" y="480" on="1"/>
        <pt x="134" y="468" on="1"/>
        <pt x="0" y="602" on="1"/>
        <pt x="0" y="625" on="0"/>
        <pt x="22" y="648" on="0"/>
        <pt x="36" y="648" on="1"/>
        <pt x="61" y="648" on="0"/>
      </contour>
    </TTGlyph>
    <TTGlyph name="greater" xMin="70" yMin="88" xMax="462" yMax="505">
      <contour>
        <pt x="70" y="143" on="1"/>
        <pt x="404" y="296" on="1"/>
        <pt x="70" y="450" on="1"/>
        <pt x="70" y="505" on="1"/>
        <pt x="462" y="323" on="1"/>
        <pt x="462" y="270" on="1"/>
        <pt x="70" y="88" on="1"/>
      </contour>
    </TTGlyph>
    <TTGlyph name="greaterequal" xMin="70" yMin="-79" xMax="462" yMax="505">
      <contour>
        <pt x="70" y="143" on="1"/>
        <pt x="404" y="296" on="1"/>
        <pt x="70" y="450" on="1"/>
        <pt x="70" y="505" on="1"/>
        <pt x="462" y="323" on="1"/>
        <pt x="462" y="270" on="1"/>
        <pt x="70" y="88" on="1"/>
      </contour>
      <contour>
        <pt x="462" y="-79" on="1"/>
        <pt x="70" y="-79" on="1"/>
        <pt x="70" y="-26" on="1"/>
        <pt x="462" y="-26" on="1"/>
      </contour>
    </TTGlyph>
    <TTGlyph name="guillemotleft" xMin="30" yMin="54" xMax="355" yMax="408">
      <contour>
        <pt x="179" y="225" on="1"/>
        <pt x="179" y="237" on="1"/>
        <pt x="339" y="408" on="1"/>
        <pt x="355" y="394" on="1"/>
        <pt x="261" y="231" on="1"/>
        <pt x="355" y="68" on="1"/>
        <pt x="339" y="54" on="1"/>
      </contour>
      <contour>
        <pt x="30" y="225" on="1"/>
        <pt x="30" y="237" on="1"/>
        <pt x="190" y="408" on="1"/>
        <pt x="206" y="394" on="1"/>
        <pt x="112" y="231" on="1"/>
        <pt x="206" y="68" on="1"/>
        <pt x="190" y="54" on="1"/>
      </contour>
    </TTGlyph>
    <TTGlyph name="guillemotright" xMin="40" yMin="54" xMax="365" yMax="408">
      <contour>
        <pt x="216" y="237" on="1"/>
        <pt x="216" y="225" on="1"/>
        <pt x="56" y="54" on="1"/>
        <pt x="40" y="68" on="1"/>
        <pt x="134" y="231" on="1"/>
        <pt x="40" y="394" on="1"/>
        <pt x="56" y="408" on="1"/>
      </contour>
      <contour>
        <pt x="365" y="237" on="1"/>
        <pt x="365" y="225" on="1"/>
        <pt x="205" y="54" on="1"/>
        <pt x="189" y="68" on="1"/>
        <pt x="283" y="231" on="1"/>
        <pt x="189" y="394" on="1"/>
        <pt x="205" y="408" on="1"/>
      </contour>
    </TTGlyph>
    <TTGlyph name="guilsinglleft" xMin="30" yMin="54" xMax="206" yMax="408">
      <contour>
        <pt x="30" y="225" on="1"/>
        <pt x="30" y="237" on="1"/>
        <pt x="190" y="408" on="1"/>
        <pt x="206" y="394" on="1"/>
        <pt x="112" y="231" on="1"/>
        <pt x="206" y="68" on="1"/>
        <pt x="190" y="54" on="1"/>
      </contour>
    </TTGlyph>
    <TTGlyph name="guilsinglright" xMin="40" yMin="54" xMax="216" yMax="408">
      <contour>
        <pt x="216" y="237" on="1"/>
        <pt x="216" y="225" on="1"/>
        <pt x="56" y="54" on="1"/>
        <pt x="40" y="68" on="1"/>
        <pt x="134" y="231" on="1"/>
        <pt x="40" y="394" on="1"/>
        <pt x="56" y="408" on="1"/>
      </contour>
    </TTGlyph>
    <TTGlyph name="h" xMin="30" yMin="0" xMax="498" yMax="654">
      <contour>
        <pt x="437" y="292" on="1"/>
        <pt x="437" y="30" on="1"/>
        <pt x="437" y="18" on="0"/>
        <pt x="451" y="18" on="1"/>
        <pt x="498" y="18" on="1"/>
        <pt x="498" y="0" on="1"/>
        <pt x="318" y="0" on="1"/>
        <pt x="318" y="18" on="1"/>
        <pt x="351" y="18" on="1"/>
        <pt x="365" y="18" on="0"/>
        <pt x="365" y="30" on="1"/>
        <pt x="365" y="305" on="1"/>
        <pt x="365" y="356" on="0"/>
        <pt x="320" y="405" on="0"/>
        <pt x="283" y="405" on="1"/>
        <pt x="231" y="405" on="0"/>
        <pt x="163" y="282" on="0"/>
        <pt x="163" y="167" on="1"/>
        <pt x="163" y="32" on="1"/>
        <pt x="163" y="18" on="0"/>
        <pt x="177" y="18" on="1"/>
        <pt x="210" y="18" on="1"/>
        <pt x="210" y="0" on="1"/>
        <pt x="30" y="0" on="1"/>
        <pt x="30" y="18" on="1"/>
        <pt x="77" y="18" on="1"/>
        <pt x="91" y="18" on="0"/>
        <pt x="91" y="30" on="1"/>
        <pt x="91" y="616" on="1"/>
        <pt x="91" y="630" on="0"/>
        <pt x="77" y="630" on="1"/>
        <pt x="30" y="630" on="1"/>
        <pt x="30" y="648" on="1"/>
        <pt x="79" y="648" on="1"/>
        <pt x="139" y="648" on="0"/>
        <pt x="163" y="654" on="1"/>
        <pt x="163" y="302" on="1"/>
        <pt x="197" y="444" on="0"/>
        <pt x="313" y="444" on="1"/>
        <pt x="365" y="444" on="0"/>
        <pt x="437" y="369" on="0"/>
      </contour>
    </TTGlyph>
    <TTGlyph name="hungarumlaut" xMin="0" yMin="468" xMax="300" yMax="648">
      <contour>
        <pt x="0" y="480" on="1"/>
        <pt x="71" y="614" on="1"/>
        <pt x="89" y="648" on="0"/>
        <pt x="114" y="648" on="1"/>
        <pt x="128" y="648" on="0"/>
        <pt x="150" y="625" on="0"/>
        <pt x="150" y="602" on="1"/>
        <pt x="16" y="468" on="1"/>
      </contour>
      <contour>
        <pt x="150" y="480" on="1"/>
        <pt x="221" y="614" on="1"/>
        <pt x="239" y="648" on="0"/>
        <pt x="264" y="648" on="1"/>
        <pt x="278" y="648" on="0"/>
        <pt x="300" y="625" on="0"/>
        <pt x="300" y="602" on="1"/>
        <pt x="166" y="468" on="1"/>
      </contour>
    </TTGlyph>
    <TTGlyph name="hyphen" xMin="30" yMin="211" xMax="282" yMax="251">
      <contour>
        <pt x="30" y="211" on="1"/>
        <pt x="30" y="251" on="1"/>
        <pt x="282" y="251" on="1"/>
        <pt x="282" y="211" on="1"/>
      </contour>
    </TTGlyph>
    <TTGlyph name="i" xMin="45" yMin="0" xMax="239" yMax="623">
      <contour>
        <pt x="106" y="32" on="1"/>
        <pt x="106" y="400" on="1"/>
        <pt x="106" y="414" on="0"/>
        <pt x="92" y="414" on="1"/>
        <pt x="45" y="414" on="1"/>
        <pt x="45" y="432" on="1"/>
        <pt x="94" y="432" on="1"/>
        <pt x="154" y="432" on="0"/>
        <pt x="178" y="438" on="1"/>
        <pt x="178" y="30" on="1"/>
        <pt x="178" y="18" on="0"/>
        <pt x="192" y="18" on="1"/>
        <pt x="239" y="18" on="1"/>
        <pt x="239" y="0" on="1"/>
        <pt x="45" y="0" on="1"/>
        <pt x="45" y="18" on="1"/>
        <pt x="92" y="18" on="1"/>
        <pt x="106" y="18" on="0"/>
      </contour>
      <contour>
        <pt x="95" y="556" on="0"/>
        <pt x="95" y="596" on="0"/>
        <pt x="122" y="623" on="0"/>
        <pt x="162" y="623" on="0"/>
        <pt x="189" y="596" on="0"/>
        <pt x="189" y="556" on="0"/>
        <pt x="162" y="529" on="0"/>
        <pt x="122" y="529" on="0"/>
      </contour>
    </TTGlyph>
    <TTGlyph name="iacute" xMin="45" yMin="0" xMax="239" yMax="648">
      <component glyphName="dotlessi" x="0" y="0" flags="0x1004"/>
      <component glyphName="acute" x="84" y="0" flags="0x1004"/>
    </TTGlyph>
    <TTGlyph name="icircumflex" xMin="33" yMin="0" xMax="241" yMax="648">
      <component glyphName="dotlessi" x="0" y="0" flags="0x1004"/>
      <component glyphName="circumflex" x="33" y="0" flags="0x1004"/>
    </TTGlyph>
    <TTGlyph name="idieresis" xMin="-2" yMin="0" xMax="266" yMax="623">
      <component glyphName="dotlessi" x="0" y="0" flags="0x1004"/>
      <component glyphName="dieresis" x="-2" y="0" flags="0x1004"/>
    </TTGlyph>
    <TTGlyph name="igrave" xMin="26" yMin="0" xMax="239" yMax="648">
      <contour>
        <pt x="106" y="32" on="1"/>
        <pt x="106" y="400" on="1"/>
        <pt x="106" y="414" on="0"/>
        <pt x="92" y="414" on="1"/>
        <pt x="45" y="414" on="1"/>
        <pt x="45" y="432" on="1"/>
        <pt x="94" y="432" on="1"/>
        <pt x="154" y="432" on="0"/>
        <pt x="178" y="438" on="1"/>
        <pt x="178" y="32" on="1"/>
        <pt x="178" y="18" on="0"/>
        <pt x="192" y="18" on="1"/>
        <pt x="239" y="18" on="1"/>
        <pt x="239" y="0" on="1"/>
        <pt x="45" y="0" on="1"/>
        <pt x="45" y="18" on="1"/>
        <pt x="92" y="18" on="1"/>
        <pt x="106" y="18" on="0"/>
      </contour>
      <contour>
        <pt x="105" y="614" on="1"/>
        <pt x="176" y="480" on="1"/>
        <pt x="160" y="468" on="1"/>
        <pt x="26" y="602" on="1"/>
        <pt x="26" y="625" on="0"/>
        <pt x="48" y="648" on="0"/>
        <pt x="62" y="648" on="1"/>
        <pt x="87" y="648" on="0"/>
      </contour>
    </TTGlyph>
    <TTGlyph name="infinity" xMin="35" yMin="134" xMax="671" yMax="438">
      <contour>
        <pt x="509" y="438" on="1"/>
        <pt x="586" y="438" on="0"/>
        <pt x="671" y="348" on="0"/>
        <pt x="671" y="223" on="0"/>
        <pt x="586" y="134" on="0"/>
        <pt x="509" y="134" on="1"/>
        <pt x="456" y="134" on="0"/>
        <pt x="387" y="191" on="0"/>
        <pt x="358" y="243" on="1"/>
        <pt x="327" y="192" on="0"/>
        <pt x="253" y="134" on="0"/>
        <pt x="197" y="134" on="1"/>
        <pt x="120" y="134" on="0"/>
        <pt x="35" y="223" on="0"/>
        <pt x="35" y="348" on="0"/>
        <pt x="120" y="438" on="0"/>
        <pt x="197" y="438" on="1"/>
        <pt x="250" y="438" on="0"/>
        <pt x="319" y="380" on="0"/>
        <pt x="348" y="328" on="1"/>
        <pt x="411" y="438" on="0"/>
      </contour>
      <contour>
        <pt x="418" y="352" on="1"/>
        <pt x="399" y="323" on="0"/>
        <pt x="376" y="275" on="1"/>
        <pt x="406" y="218" on="0"/>
        <pt x="464" y="158" on="0"/>
        <pt x="554" y="158" on="0"/>
        <pt x="609" y="231" on="0"/>
        <pt x="609" y="345" on="0"/>
        <pt x="554" y="412" on="0"/>
        <pt x="455" y="412" on="0"/>
      </contour>
      <contour>
        <pt x="288" y="218" on="1"/>
        <pt x="311" y="256" on="0"/>
        <pt x="330" y="296" on="1"/>
        <pt x="282" y="385" on="0"/>
        <pt x="240" y="404" on="1"/>
        <pt x="221" y="412" on="0"/>
        <pt x="197" y="412" on="1"/>
        <pt x="152" y="412" on="0"/>
        <pt x="97" y="345" on="0"/>
        <pt x="97" y="231" on="0"/>
        <pt x="152" y="158" on="0"/>
        <pt x="250" y="158" on="0"/>
      </contour>
    </TTGlyph>
    <TTGlyph name="integral" xMin="-20" yMin="-126" xMax="427" yMax="752">
      <contour>
        <pt x="84" y="-126" on="1"/>
        <pt x="28" y="-126" on="0"/>
        <pt x="-20" y="-63" on="0"/>
        <pt x="-20" y="-26" on="1"/>
        <pt x="-20" y="-14" on="0"/>
        <pt x="16" y="-14" on="0"/>
        <pt x="45" y="-25" on="0"/>
        <pt x="49" y="-34" on="1"/>
        <pt x="49" y="-67" on="0"/>
        <pt x="68" y="-101" on="0"/>
        <pt x="94" y="-101" on="1"/>
        <pt x="166" y="-101" on="0"/>
        <pt x="166" y="63" on="1"/>
        <pt x="166" y="412" on="1"/>
        <pt x="166" y="752" on="0"/>
        <pt x="323" y="752" on="1"/>
        <pt x="379" y="752" on="0"/>
        <pt x="427" y="689" on="0"/>
        <pt x="427" y="652" on="1"/>
        <pt x="427" y="640" on="0"/>
        <pt x="391" y="640" on="0"/>
        <pt x="362" y="651" on="0"/>
        <pt x="358" y="660" on="1"/>
        <pt x="358" y="693" on="0"/>
        <pt x="339" y="727" on="0"/>
        <pt x="313" y="727" on="1"/>
        <pt x="241" y="727" on="0"/>
        <pt x="241" y="563" on="1"/>
        <pt x="241" y="214" on="1"/>
        <pt x="241" y="-126" on="0"/>
      </contour>
    </TTGlyph>
    <TTGlyph name="j" xMin="-72" yMin="-228" xMax="174" yMax="623">
      <contour>
        <pt x="80" y="556" on="0"/>
        <pt x="80" y="596" on="0"/>
        <pt x="108" y="623" on="0"/>
        <pt x="146" y="623" on="0"/>
        <pt x="174" y="596" on="0"/>
        <pt x="174" y="556" on="0"/>
        <pt x="146" y="529" on="0"/>
        <pt x="108" y="529" on="0"/>
      </contour>
      <contour>
        <pt x="163" y="438" on="1"/>
        <pt x="162" y="32" on="1"/>
        <pt x="162" y="-94" on="0"/>
        <pt x="86" y="-228" on="0"/>
        <pt x="-24" y="-228" on="0"/>
        <pt x="-72" y="-177" on="0"/>
        <pt x="-72" y="-148" on="1"/>
        <pt x="-72" y="-88" on="0"/>
        <pt x="-37" y="-88" on="1"/>
        <pt x="-8" y="-88" on="0"/>
        <pt x="10" y="-103" on="1"/>
        <pt x="-5" y="-133" on="0"/>
        <pt x="-5" y="-156" on="1"/>
        <pt x="-5" y="-205" on="0"/>
        <pt x="36" y="-205" on="1"/>
        <pt x="91" y="-205" on="0"/>
        <pt x="91" y="-120" on="1"/>
        <pt x="91" y="400" on="1"/>
        <pt x="91" y="414" on="0"/>
        <pt x="77" y="414" on="1"/>
        <pt x="30" y="414" on="1"/>
        <pt x="30" y="432" on="1"/>
        <pt x="79" y="432" on="1"/>
        <pt x="139" y="432" on="0"/>
      </contour>
    </TTGlyph>
    <TTGlyph name="k" xMin="30" yMin="-6" xMax="461" yMax="654">
      <contour>
        <pt x="91" y="32" on="1"/>
        <pt x="91" y="616" on="1"/>
        <pt x="91" y="630" on="0"/>
        <pt x="77" y="630" on="1"/>
        <pt x="30" y="630" on="1"/>
        <pt x="30" y="648" on="1"/>
        <pt x="79" y="648" on="1"/>
        <pt x="139" y="648" on="0"/>
        <pt x="163" y="654" on="1"/>
        <pt x="163" y="30" on="1"/>
        <pt x="163" y="18" on="0"/>
        <pt x="177" y="18" on="1"/>
        <pt x="224" y="18" on="1"/>
        <pt x="224" y="0" on="1"/>
        <pt x="30" y="0" on="1"/>
        <pt x="30" y="18" on="1"/>
        <pt x="77" y="18" on="1"/>
        <pt x="91" y="18" on="0"/>
      </contour>
      <contour>
        <pt x="297" y="432" on="1"/>
        <pt x="431" y="432" on="1"/>
        <pt x="431" y="414" on="1"/>
        <pt x="394" y="414" on="1"/>
        <pt x="386" y="414" on="0"/>
        <pt x="376" y="404" on="1"/>
        <pt x="247" y="257" on="1"/>
        <pt x="406" y="26" on="1"/>
        <pt x="411" y="18" on="0"/>
        <pt x="420" y="18" on="1"/>
        <pt x="461" y="18" on="1"/>
        <pt x="461" y="0" on="1"/>
        <pt x="414" y="0" on="1"/>
        <pt x="366" y="0" on="0"/>
        <pt x="342" y="-6" on="1"/>
        <pt x="182" y="227" on="1"/>
        <pt x="348" y="414" on="1"/>
        <pt x="297" y="414" on="1"/>
      </contour>
    </TTGlyph>
    <TTGlyph name="l" xMin="30" yMin="0" xMax="224" yMax="654">
      <contour>
        <pt x="91" y="32" on="1"/>
        <pt x="91" y="616" on="1"/>
        <pt x="91" y="630" on="0"/>
        <pt x="77" y="630" on="1"/>
        <pt x="30" y="630" on="1"/>
        <pt x="30" y="648" on="1"/>
        <pt x="79" y="648" on="1"/>
        <pt x="139" y="648" on="0"/>
        <pt x="163" y="654" on="1"/>
        <pt x="163" y="32" on="1"/>
        <pt x="163" y="18" on="0"/>
        <pt x="177" y="18" on="1"/>
        <pt x="224" y="18" on="1"/>
        <pt x="224" y="0" on="1"/>
        <pt x="30" y="0" on="1"/>
        <pt x="30" y="18" on="1"/>
        <pt x="77" y="18" on="1"/>
        <pt x="91" y="18" on="0"/>
      </contour>
    </TTGlyph>
    <TTGlyph name="less" xMin="70" yMin="88" xMax="462" yMax="505">
      <contour>
        <pt x="462" y="450" on="1"/>
        <pt x="127" y="296" on="1"/>
        <pt x="462" y="143" on="1"/>
        <pt x="462" y="88" on="1"/>
        <pt x="70" y="270" on="1"/>
        <pt x="70" y="323" on="1"/>
        <pt x="462" y="505" on="1"/>
      </contour>
    </TTGlyph>
    <TTGlyph name="lessequal" xMin="70" yMin="-79" xMax="462" yMax="505">
      <contour>
        <pt x="462" y="450" on="1"/>
        <pt x="127" y="296" on="1"/>
        <pt x="462" y="143" on="1"/>
        <pt x="462" y="88" on="1"/>
        <pt x="70" y="270" on="1"/>
        <pt x="70" y="323" on="1"/>
        <pt x="462" y="505" on="1"/>
      </contour>
      <contour>
        <pt x="462" y="-79" on="1"/>
        <pt x="70" y="-79" on="1"/>
        <pt x="70" y="-26" on="1"/>
        <pt x="462" y="-26" on="1"/>
      </contour>
    </TTGlyph>
    <TTGlyph name="logicalnot" xMin="70" yMin="44" xMax="462" yMax="223">
      <contour>
        <pt x="462" y="44" on="1"/>
        <pt x="409" y="44" on="1"/>
        <pt x="409" y="170" on="1"/>
        <pt x="70" y="170" on="1"/>
        <pt x="70" y="223" on="1"/>
        <pt x="462" y="223" on="1"/>
      </contour>
    </TTGlyph>
    <TTGlyph name="lozenge" xMin="28" yMin="-79" xMax="510" yMax="700">
      <contour>
        <pt x="299" y="-79" on="1"/>
        <pt x="238" y="-79" on="1"/>
        <pt x="28" y="310" on="1"/>
        <pt x="238" y="700" on="1"/>
        <pt x="299" y="700" on="1"/>
        <pt x="510" y="310" on="1"/>
      </contour>
      <contour>
        <pt x="247" y="640" on="1"/>
        <pt x="74" y="310" on="1"/>
        <pt x="247" y="-19" on="1"/>
        <pt x="427" y="310" on="1"/>
      </contour>
    </TTGlyph>
    <TTGlyph name="lslash" xMin="12" yMin="0" xMax="244" yMax="654">
      <contour>
        <pt x="30" y="244" on="1"/>
        <pt x="12" y="279" on="1"/>
        <pt x="226" y="388" on="1"/>
        <pt x="244" y="353" on="1"/>
      </contour>
      <contour>
        <pt x="91" y="32" on="1"/>
        <pt x="91" y="616" on="1"/>
        <pt x="91" y="630" on="0"/>
        <pt x="77" y="630" on="1"/>
        <pt x="30" y="630" on="1"/>
        <pt x="30" y="648" on="1"/>
        <pt x="79" y="648" on="1"/>
        <pt x="139" y="648" on="0"/>
        <pt x="163" y="654" on="1"/>
        <pt x="163" y="32" on="1"/>
        <pt x="163" y="18" on="0"/>
        <pt x="177" y="18" on="1"/>
        <pt x="224" y="18" on="1"/>
        <pt x="224" y="0" on="1"/>
        <pt x="30" y="0" on="1"/>
        <pt x="30" y="18" on="1"/>
        <pt x="77" y="18" on="1"/>
        <pt x="91" y="18" on="0"/>
      </contour>
    </TTGlyph>
    <TTGlyph name="m" xMin="45" yMin="0" xMax="767" yMax="444">
      <contour>
        <pt x="706" y="292" on="1"/>
        <pt x="706" y="30" on="1"/>
        <pt x="706" y="18" on="0"/>
        <pt x="720" y="18" on="1"/>
        <pt x="767" y="18" on="1"/>
        <pt x="767" y="0" on="1"/>
        <pt x="587" y="0" on="1"/>
        <pt x="587" y="18" on="1"/>
        <pt x="620" y="18" on="1"/>
        <pt x="634" y="18" on="0"/>
        <pt x="634" y="30" on="1"/>
        <pt x="634" y="305" on="1"/>
        <pt x="634" y="356" on="0"/>
        <pt x="592" y="405" on="0"/>
        <pt x="556" y="405" on="1"/>
        <pt x="506" y="405" on="0"/>
        <pt x="442" y="276" on="0"/>
        <pt x="442" y="155" on="1"/>
        <pt x="442" y="32" on="1"/>
        <pt x="442" y="18" on="0"/>
        <pt x="456" y="18" on="1"/>
        <pt x="503" y="18" on="1"/>
        <pt x="503" y="0" on="1"/>
        <pt x="323" y="0" on="1"/>
        <pt x="323" y="18" on="1"/>
        <pt x="356" y="18" on="1"/>
        <pt x="370" y="18" on="0"/>
        <pt x="370" y="30" on="1"/>
        <pt x="370" y="305" on="1"/>
        <pt x="370" y="356" on="0"/>
        <pt x="328" y="405" on="0"/>
        <pt x="292" y="405" on="1"/>
        <pt x="242" y="405" on="0"/>
        <pt x="178" y="276" on="0"/>
        <pt x="178" y="155" on="1"/>
        <pt x="178" y="32" on="1"/>
        <pt x="178" y="18" on="0"/>
        <pt x="192" y="18" on="1"/>
        <pt x="225" y="18" on="1"/>
        <pt x="225" y="0" on="1"/>
        <pt x="45" y="0" on="1"/>
        <pt x="45" y="18" on="1"/>
        <pt x="92" y="18" on="1"/>
        <pt x="106" y="18" on="0"/>
        <pt x="106" y="30" on="1"/>
        <pt x="106" y="400" on="1"/>
        <pt x="106" y="414" on="0"/>
        <pt x="92" y="414" on="1"/>
        <pt x="45" y="414" on="1"/>
        <pt x="45" y="432" on="1"/>
        <pt x="94" y="432" on="1"/>
        <pt x="154" y="432" on="0"/>
        <pt x="178" y="438" on="1"/>
        <pt x="178" y="304" on="1"/>
        <pt x="211" y="444" on="0"/>
        <pt x="320" y="444" on="1"/>
        <pt x="368" y="444" on="0"/>
        <pt x="439" y="374" on="0"/>
        <pt x="442" y="303" on="1"/>
        <pt x="475" y="444" on="0"/>
        <pt x="584" y="444" on="1"/>
        <pt x="634" y="444" on="0"/>
        <pt x="706" y="369" on="0"/>
      </contour>
    </TTGlyph>
    <TTGlyph name="macron" xMin="35" yMin="534" xMax="277" yMax="588">
      <contour>
        <pt x="35" y="534" on="1"/>
        <pt x="35" y="588" on="1"/>
        <pt x="277" y="588" on="1"/>
        <pt x="277" y="534" on="1"/>
      </contour>
    </TTGlyph>
    <TTGlyph name="minus" xMin="70" yMin="170" xMax="462" yMax="223">
      <contour>
        <pt x="462" y="170" on="1"/>
        <pt x="70" y="170" on="1"/>
        <pt x="70" y="223" on="1"/>
        <pt x="462" y="223" on="1"/>
      </contour>
    </TTGlyph>
    <TTGlyph name="mu" xMin="54" yMin="-216" xMax="474" yMax="438">
      <contour>
        <pt x="355" y="-6" on="1"/>
        <pt x="355" y="129" on="1"/>
        <pt x="321" y="-12" on="0"/>
        <pt x="205" y="-12" on="1"/>
        <pt x="155" y="-12" on="0"/>
        <pt x="122" y="20" on="1"/>
        <pt x="122" y="-14" on="1"/>
        <pt x="122" y="-131" on="0"/>
        <pt x="193" y="-179" on="1"/>
        <pt x="183" y="-195" on="0"/>
        <pt x="144" y="-216" on="0"/>
        <pt x="130" y="-216" on="1"/>
        <pt x="102" y="-216" on="0"/>
        <pt x="81" y="-139" on="0"/>
        <pt x="81" y="-62" on="1"/>
        <pt x="81" y="362" on="1"/>
        <pt x="81" y="414" on="0"/>
        <pt x="54" y="414" on="1"/>
        <pt x="54" y="432" on="1"/>
        <pt x="69" y="432" on="1"/>
        <pt x="129" y="432" on="0"/>
        <pt x="153" y="438" on="1"/>
        <pt x="153" y="127" on="1"/>
        <pt x="153" y="76" on="0"/>
        <pt x="198" y="27" on="0"/>
        <pt x="235" y="27" on="1"/>
        <pt x="288" y="27" on="0"/>
        <pt x="355" y="156" on="0"/>
        <pt x="355" y="277" on="1"/>
        <pt x="355" y="362" on="1"/>
        <pt x="355" y="414" on="0"/>
        <pt x="328" y="414" on="1"/>
        <pt x="328" y="432" on="1"/>
        <pt x="343" y="432" on="1"/>
        <pt x="403" y="432" on="0"/>
        <pt x="427" y="438" on="1"/>
        <pt x="427" y="70" on="1"/>
        <pt x="427" y="38" on="0"/>
        <pt x="445" y="18" on="0"/>
        <pt x="474" y="18" on="1"/>
        <pt x="474" y="0" on="1"/>
        <pt x="439" y="0" on="1"/>
        <pt x="379" y="0" on="0"/>
      </contour>
    </TTGlyph>
    <TTGlyph name="multiply" xMin="98" yMin="28" xMax="433" yMax="364">
      <contour>
        <pt x="136" y="363" on="1"/>
        <pt x="265" y="233" on="1"/>
        <pt x="396" y="364" on="1"/>
        <pt x="433" y="326" on="1"/>
        <pt x="303" y="196" on="1"/>
        <pt x="433" y="66" on="1"/>
        <pt x="396" y="28" on="1"/>
        <pt x="265" y="158" on="1"/>
        <pt x="136" y="29" on="1"/>
        <pt x="98" y="66" on="1"/>
        <pt x="228" y="196" on="1"/>
        <pt x="98" y="326" on="1"/>
      </contour>
    </TTGlyph>
    <TTGlyph name="n" xMin="45" yMin="0" xMax="513" yMax="444">
      <contour>
        <pt x="452" y="292" on="1"/>
        <pt x="452" y="30" on="1"/>
        <pt x="452" y="18" on="0"/>
        <pt x="466" y="18" on="1"/>
        <pt x="513" y="18" on="1"/>
        <pt x="513" y="0" on="1"/>
        <pt x="333" y="0" on="1"/>
        <pt x="333" y="18" on="1"/>
        <pt x="366" y="18" on="1"/>
        <pt x="380" y="18" on="0"/>
        <pt x="380" y="30" on="1"/>
        <pt x="380" y="305" on="1"/>
        <pt x="380" y="356" on="0"/>
        <pt x="335" y="405" on="0"/>
        <pt x="298" y="405" on="1"/>
        <pt x="246" y="405" on="0"/>
        <pt x="178" y="282" on="0"/>
        <pt x="178" y="167" on="1"/>
        <pt x="178" y="32" on="1"/>
        <pt x="178" y="18" on="0"/>
        <pt x="192" y="18" on="1"/>
        <pt x="225" y="18" on="1"/>
        <pt x="225" y="0" on="1"/>
        <pt x="45" y="0" on="1"/>
        <pt x="45" y="18" on="1"/>
        <pt x="92" y="18" on="1"/>
        <pt x="106" y="18" on="0"/>
        <pt x="106" y="30" on="1"/>
        <pt x="106" y="400" on="1"/>
        <pt x="106" y="414" on="0"/>
        <pt x="92" y="414" on="1"/>
        <pt x="45" y="414" on="1"/>
        <pt x="45" y="432" on="1"/>
        <pt x="94" y="432" on="1"/>
        <pt x="154" y="432" on="0"/>
        <pt x="178" y="438" on="1"/>
        <pt x="178" y="302" on="1"/>
        <pt x="212" y="444" on="0"/>
        <pt x="328" y="444" on="1"/>
        <pt x="380" y="444" on="0"/>
        <pt x="452" y="369" on="0"/>
      </contour>
    </TTGlyph>
    <TTGlyph name="nine" xMin="55" yMin="-12" xMax="419" yMax="579">
      <contour>
        <pt x="120" y="-12" on="1"/>
        <pt x="112" y="11" on="1"/>
        <pt x="167" y="29" on="0"/>
        <pt x="230" y="86" on="1"/>
        <pt x="263" y="117" on="0"/>
        <pt x="318" y="215" on="0"/>
        <pt x="331" y="274" on="1"/>
        <pt x="294" y="217" on="0"/>
        <pt x="160" y="217" on="0"/>
        <pt x="55" y="318" on="0"/>
        <pt x="55" y="483" on="0"/>
        <pt x="151" y="579" on="0"/>
        <pt x="321" y="579" on="0"/>
        <pt x="419" y="466" on="0"/>
        <pt x="419" y="304" on="0"/>
        <pt x="357" y="153" on="0"/>
        <pt x="218" y="19" on="0"/>
      </contour>
      <contour>
        <pt x="283" y="246" on="0"/>
        <pt x="340" y="322" on="0"/>
        <pt x="340" y="466" on="0"/>
        <pt x="278" y="557" on="0"/>
        <pt x="190" y="557" on="0"/>
        <pt x="132" y="476" on="0"/>
        <pt x="132" y="332" on="0"/>
        <pt x="196" y="246" on="0"/>
      </contour>
    </TTGlyph>
    <TTGlyph name="notequal" xMin="70" yMin="-96" xMax="462" yMax="492">
      <contour>
        <pt x="183" y="-96" on="1"/>
        <pt x="148" y="-96" on="1"/>
        <pt x="349" y="492" on="1"/>
        <pt x="385" y="492" on="1"/>
      </contour>
      <contour>
        <pt x="462" y="255" on="1"/>
        <pt x="70" y="255" on="1"/>
        <pt x="70" y="308" on="1"/>
        <pt x="462" y="308" on="1"/>
      </contour>
      <contour>
        <pt x="462" y="85" on="1"/>
        <pt x="70" y="85" on="1"/>
        <pt x="70" y="138" on="1"/>
        <pt x="462" y="138" on="1"/>
      </contour>
    </TTGlyph>
    <TTGlyph name="ntilde" xMin="45" yMin="0" xMax="513" yMax="624">
      <component glyphName="n" x="0" y="0" flags="0x1004"/>
      <component glyphName="tilde" x="155" y="0" flags="0x1004"/>
    </TTGlyph>
    <TTGlyph name="numbersign" xMin="-48" yMin="-101" xMax="486" yMax="667">
      <contour>
        <pt x="14" y="-101" on="1"/>
        <pt x="-19" y="-101" on="1"/>
        <pt x="70" y="202" on="1"/>
        <pt x="-48" y="202" on="1"/>
        <pt x="-38" y="233" on="1"/>
        <pt x="79" y="233" on="1"/>
        <pt x="119" y="369" on="1"/>
        <pt x="1" y="369" on="1"/>
        <pt x="11" y="400" on="1"/>
        <pt x="128" y="400" on="1"/>
        <pt x="206" y="667" on="1"/>
        <pt x="239" y="667" on="1"/>
        <pt x="161" y="400" on="1"/>
        <pt x="333" y="400" on="1"/>
        <pt x="411" y="667" on="1"/>
        <pt x="444" y="667" on="1"/>
        <pt x="366" y="400" on="1"/>
        <pt x="486" y="400" on="1"/>
        <pt x="476" y="369" on="1"/>
        <pt x="357" y="369" on="1"/>
        <pt x="317" y="233" on="1"/>
        <pt x="437" y="233" on="1"/>
        <pt x="427" y="202" on="1"/>
        <pt x="308" y="202" on="1"/>
        <pt x="219" y="-101" on="1"/>
        <pt x="186" y="-101" on="1"/>
        <pt x="275" y="202" on="1"/>
        <pt x="103" y="202" on="1"/>
      </contour>
      <contour>
        <pt x="152" y="369" on="1"/>
        <pt x="112" y="233" on="1"/>
        <pt x="284" y="233" on="1"/>
        <pt x="324" y="369" on="1"/>
      </contour>
    </TTGlyph>
    <TTGlyph name="o" xMin="40" yMin="-12" xMax="445" yMax="444">
      <contour>
        <pt x="40" y="110" on="0"/>
        <pt x="40" y="322" on="0"/>
        <pt x="152" y="444" on="0"/>
        <pt x="332" y="444" on="0"/>
        <pt x="445" y="322" on="0"/>
        <pt x="445" y="110" on="0"/>
        <pt x="332" y="-12" on="0"/>
        <pt x="152" y="-12" on="0"/>
      </contour>
      <contour>
        <pt x="116" y="311" on="0"/>
        <pt x="116" y="121" on="0"/>
        <pt x="188" y="10" on="0"/>
        <pt x="296" y="10" on="0"/>
        <pt x="369" y="121" on="0"/>
        <pt x="369" y="311" on="0"/>
        <pt x="296" y="422" on="0"/>
        <pt x="188" y="422" on="0"/>
      </contour>
    </TTGlyph>
    <TTGlyph name="oacute" xMin="40" yMin="-12" xMax="445" yMax="648">
      <component glyphName="o" x="0" y="0" flags="0x1004"/>
      <component glyphName="acute" x="194" y="0" flags="0x1004"/>
    </TTGlyph>
    <TTGlyph name="ocircumflex" xMin="40" yMin="-12" xMax="445" yMax="648">
      <contour>
        <pt x="40" y="110" on="0"/>
        <pt x="40" y="322" on="0"/>
        <pt x="152" y="444" on="0"/>
        <pt x="332" y="444" on="0"/>
        <pt x="445" y="322" on="0"/>
        <pt x="445" y="110" on="0"/>
        <pt x="332" y="-12" on="0"/>
        <pt x="152" y="-12" on="0"/>
      </contour>
      <contour>
        <pt x="116" y="311" on="0"/>
        <pt x="116" y="121" on="0"/>
        <pt x="188" y="10" on="0"/>
        <pt x="296" y="10" on="0"/>
        <pt x="369" y="121" on="0"/>
        <pt x="369" y="311" on="0"/>
        <pt x="296" y="422" on="0"/>
        <pt x="188" y="422" on="0"/>
      </contour>
      <contour>
        <pt x="199" y="614" on="1"/>
        <pt x="215" y="648" on="0"/>
        <pt x="269" y="648" on="0"/>
        <pt x="285" y="614" on="1"/>
        <pt x="346" y="480" on="1"/>
        <pt x="330" y="468" on="1"/>
        <pt x="241" y="583" on="1"/>
        <pt x="154" y="468" on="1"/>
        <pt x="138" y="480" on="1"/>
      </contour>
    </TTGlyph>
    <TTGlyph name="odieresis" xMin="40" yMin="-12" xMax="445" yMax="623">
      <component glyphName="o" x="0" y="0" flags="0x1004"/>
      <component glyphName="dieresis" x="108" y="0" flags="0x1004"/>
    </TTGlyph>
    <TTGlyph name="oe" xMin="40" yMin="-12" xMax="725" yMax="444">
      <contour>
        <pt x="40" y="110" on="0"/>
        <pt x="40" y="322" on="0"/>
        <pt x="152" y="444" on="0"/>
        <pt x="332" y="444" on="0"/>
        <pt x="445" y="322" on="0"/>
        <pt x="445" y="110" on="0"/>
        <pt x="332" y="-12" on="0"/>
        <pt x="152" y="-12" on="0"/>
      </contour>
      <contour>
        <pt x="116" y="311" on="0"/>
        <pt x="116" y="121" on="0"/>
        <pt x="188" y="10" on="0"/>
        <pt x="296" y="10" on="0"/>
        <pt x="369" y="121" on="0"/>
        <pt x="369" y="311" on="0"/>
        <pt x="296" y="422" on="0"/>
        <pt x="188" y="422" on="0"/>
      </contour>
      <contour>
        <pt x="571" y="444" on="1"/>
        <pt x="640" y="444" on="0"/>
        <pt x="720" y="352" on="0"/>
        <pt x="720" y="263" on="1"/>
        <pt x="720" y="245" on="0"/>
        <pt x="718" y="223" on="1"/>
        <pt x="445" y="223" on="1"/>
        <pt x="445" y="216" on="1"/>
        <pt x="445" y="121" on="0"/>
        <pt x="514" y="12" on="0"/>
        <pt x="623" y="12" on="0"/>
        <pt x="693" y="68" on="0"/>
        <pt x="706" y="120" on="1"/>
        <pt x="725" y="116" on="1"/>
        <pt x="713" y="55" on="0"/>
        <pt x="627" y="-12" on="0"/>
        <pt x="571" y="-12" on="1"/>
        <pt x="484" y="-12" on="0"/>
        <pt x="369" y="110" on="0"/>
        <pt x="369" y="321" on="0"/>
        <pt x="485" y="444" on="0"/>
      </contour>
      <contour>
        <pt x="651" y="297" on="1"/>
        <pt x="651" y="420" on="0"/>
        <pt x="560" y="420" on="1"/>
        <pt x="513" y="420" on="0"/>
        <pt x="448" y="320" on="0"/>
        <pt x="446" y="243" on="1"/>
        <pt x="647" y="243" on="1"/>
        <pt x="651" y="277" on="0"/>
      </contour>
    </TTGlyph>
    <TTGlyph name="ogonek" xMin="30" yMin="-186" xMax="212" yMax="12">
      <contour>
        <pt x="199" y="-127" on="1"/>
        <pt x="212" y="-138" on="1"/>
        <pt x="176" y="-186" on="0"/>
        <pt x="122" y="-186" on="1"/>
        <pt x="81" y="-186" on="0"/>
        <pt x="30" y="-141" on="0"/>
        <pt x="30" y="-72" on="0"/>
        <pt x="93" y="-6" on="0"/>
        <pt x="155" y="12" on="1"/>
        <pt x="161" y="0" on="1"/>
        <pt x="120" y="-14" on="0"/>
        <pt x="79" y="-66" on="0"/>
        <pt x="79" y="-125" on="0"/>
        <pt x="110" y="-157" on="0"/>
        <pt x="167" y="-157" on="0"/>
      </contour>
    </TTGlyph>
    <TTGlyph name="ograve" xMin="40" yMin="-12" xMax="445" yMax="648">
      <component glyphName="o" x="0" y="0" flags="0x1004"/>
      <component glyphName="grave" x="147" y="0" flags="0x1004"/>
    </TTGlyph>
    <TTGlyph name="one" xMin="61" yMin="0" xMax="387" yMax="579">
      <contour>
        <pt x="73" y="0" on="1"/>
        <pt x="73" y="19" on="1"/>
        <pt x="190" y="19" on="1"/>
        <pt x="202" y="19" on="0"/>
        <pt x="204" y="31" on="1"/>
        <pt x="204" y="491" on="1"/>
        <pt x="204" y="516" on="0"/>
        <pt x="174" y="516" on="1"/>
        <pt x="63" y="510" on="1"/>
        <pt x="61" y="534" on="1"/>
        <pt x="152" y="547" on="1"/>
        <pt x="238" y="560" on="0"/>
        <pt x="288" y="579" on="1"/>
        <pt x="278" y="541" on="0"/>
        <pt x="278" y="465" on="1"/>
        <pt x="278" y="33" on="1"/>
        <pt x="278" y="19" on="0"/>
        <pt x="293" y="19" on="1"/>
        <pt x="387" y="19" on="1"/>
        <pt x="387" y="0" on="1"/>
      </contour>
    </TTGlyph>
    <TTGlyph name="onehalf" xMin="50" yMin="-74" xMax="715" yMax="648">
      <contour>
        <pt x="139" y="245" on="1"/>
        <pt x="139" y="522" on="1"/>
        <pt x="139" y="535" on="0"/>
        <pt x="126" y="535" on="1"/>
        <pt x="51" y="531" on="1"/>
        <pt x="50" y="550" on="1"/>
        <pt x="112" y="559" on="1"/>
        <pt x="171" y="568" on="0"/>
        <pt x="205" y="583" on="1"/>
        <pt x="197" y="553" on="0"/>
        <pt x="197" y="505" on="1"/>
        <pt x="197" y="245" on="1"/>
        <pt x="197" y="231" on="0"/>
        <pt x="211" y="231" on="1"/>
        <pt x="269" y="231" on="1"/>
        <pt x="269" y="213" on="1"/>
        <pt x="61" y="213" on="1"/>
        <pt x="61" y="231" on="1"/>
        <pt x="125" y="231" on="1"/>
        <pt x="139" y="231" on="0"/>
      </contour>
      <contour>
        <pt x="646" y="307" on="0"/>
        <pt x="614" y="347" on="0"/>
        <pt x="564" y="347" on="0"/>
        <pt x="538" y="319" on="0"/>
        <pt x="538" y="277" on="0"/>
        <pt x="547" y="259" on="1"/>
        <pt x="535" y="249" on="0"/>
        <pt x="512" y="249" on="1"/>
        <pt x="483" y="249" on="0"/>
        <pt x="483" y="320" on="0"/>
        <pt x="536" y="366" on="0"/>
        <pt x="644" y="366" on="0"/>
        <pt x="701" y="317" on="0"/>
        <pt x="701" y="259" on="0"/>
        <pt x="676" y="208" on="0"/>
        <pt x="650" y="176" on="0"/>
        <pt x="620" y="140" on="1"/>
        <pt x="538" y="45" on="1"/>
        <pt x="668" y="45" on="1"/>
        <pt x="680" y="45" on="0"/>
        <pt x="681" y="56" on="1"/>
        <pt x="688" y="113" on="1"/>
        <pt x="708" y="113" on="1"/>
        <pt x="708" y="80" on="1"/>
        <pt x="708" y="41" on="0"/>
        <pt x="715" y="-8" on="1"/>
        <pt x="685" y="0" on="0"/>
        <pt x="637" y="0" on="1"/>
        <pt x="465" y="0" on="1"/>
        <pt x="601" y="161" on="1"/>
        <pt x="646" y="215" on="0"/>
        <pt x="646" y="273" on="1"/>
      </contour>
      <contour>
        <pt x="280" y="-74" on="1"/>
        <pt x="245" y="-74" on="1"/>
        <pt x="494" y="648" on="1"/>
        <pt x="530" y="648" on="1"/>
      </contour>
    </TTGlyph>
    <TTGlyph name="onequarter" xMin="50" yMin="-74" xMax="725" yMax="648">
      <contour>
        <pt x="139" y="245" on="1"/>
        <pt x="139" y="522" on="1"/>
        <pt x="139" y="535" on="0"/>
        <pt x="126" y="535" on="1"/>
        <pt x="51" y="531" on="1"/>
        <pt x="50" y="550" on="1"/>
        <pt x="112" y="559" on="1"/>
        <pt x="171" y="568" on="0"/>
        <pt x="205" y="583" on="1"/>
        <pt x="197" y="553" on="0"/>
        <pt x="197" y="505" on="1"/>
        <pt x="197" y="245" on="1"/>
        <pt x="197" y="231" on="0"/>
        <pt x="211" y="231" on="1"/>
        <pt x="269" y="231" on="1"/>
        <pt x="269" y="213" on="1"/>
        <pt x="61" y="213" on="1"/>
        <pt x="61" y="231" on="1"/>
        <pt x="125" y="231" on="1"/>
        <pt x="139" y="231" on="0"/>
      </contour>
      <contour>
        <pt x="613" y="32" on="1"/>
        <pt x="613" y="88" on="1"/>
        <pt x="450" y="88" on="1"/>
        <pt x="622" y="358" on="1"/>
        <pt x="670" y="358" on="1"/>
        <pt x="670" y="112" on="1"/>
        <pt x="725" y="112" on="1"/>
        <pt x="725" y="88" on="1"/>
        <pt x="670" y="88" on="1"/>
        <pt x="670" y="32" on="1"/>
        <pt x="670" y="18" on="0"/>
        <pt x="684" y="18" on="1"/>
        <pt x="725" y="18" on="1"/>
        <pt x="725" y="0" on="1"/>
        <pt x="559" y="0" on="1"/>
        <pt x="559" y="18" on="1"/>
        <pt x="599" y="18" on="1"/>
        <pt x="613" y="18" on="0"/>
      </contour>
      <contour>
        <pt x="497" y="112" on="1"/>
        <pt x="613" y="112" on="1"/>
        <pt x="613" y="294" on="1"/>
      </contour>
      <contour>
        <pt x="280" y="-74" on="1"/>
        <pt x="245" y="-74" on="1"/>
        <pt x="494" y="648" on="1"/>
        <pt x="530" y="648" on="1"/>
      </contour>
    </TTGlyph>
    <TTGlyph name="onesuperior" xMin="29" yMin="213" xMax="248" yMax="583">
      <contour>
        <pt x="118" y="245" on="1"/>
        <pt x="118" y="522" on="1"/>
        <pt x="118" y="535" on="0"/>
        <pt x="105" y="535" on="1"/>
        <pt x="30" y="531" on="1"/>
        <pt x="29" y="550" on="1"/>
        <pt x="91" y="559" on="1"/>
        <pt x="150" y="568" on="0"/>
        <pt x="184" y="583" on="1"/>
        <pt x="176" y="553" on="0"/>
        <pt x="176" y="505" on="1"/>
        <pt x="176" y="245" on="1"/>
        <pt x="176" y="231" on="0"/>
        <pt x="190" y="231" on="1"/>
        <pt x="248" y="231" on="1"/>
        <pt x="248" y="213" on="1"/>
        <pt x="40" y="213" on="1"/>
        <pt x="40" y="231" on="1"/>
        <pt x="104" y="231" on="1"/>
        <pt x="118" y="231" on="0"/>
      </contour>
    </TTGlyph>
    <TTGlyph name="ordfeminine" xMin="20" yMin="375" xMax="270" yMax="648">
      <contour>
        <pt x="85" y="593" on="1"/>
        <pt x="85" y="577" on="0"/>
        <pt x="93" y="559" on="1"/>
        <pt x="83" y="549" on="0"/>
        <pt x="62" y="549" on="1"/>
        <pt x="37" y="549" on="0"/>
        <pt x="37" y="612" on="0"/>
        <pt x="79" y="648" on="0"/>
        <pt x="167" y="648" on="0"/>
        <pt x="219" y="596" on="0"/>
        <pt x="219" y="550" on="1"/>
        <pt x="219" y="422" on="1"/>
        <pt x="219" y="395" on="0"/>
        <pt x="233" y="395" on="1"/>
        <pt x="252" y="395" on="0"/>
        <pt x="252" y="423" on="1"/>
        <pt x="252" y="430" on="0"/>
        <pt x="250" y="440" on="1"/>
        <pt x="268" y="441" on="1"/>
        <pt x="270" y="429" on="0"/>
        <pt x="270" y="403" on="0"/>
        <pt x="245" y="375" on="0"/>
        <pt x="222" y="375" on="1"/>
        <pt x="174" y="375" on="0"/>
        <pt x="168" y="435" on="1"/>
        <pt x="157" y="406" on="0"/>
        <pt x="111" y="376" on="0"/>
        <pt x="58" y="376" on="0"/>
        <pt x="20" y="409" on="0"/>
        <pt x="20" y="470" on="0"/>
        <pt x="78" y="519" on="0"/>
        <pt x="133" y="519" on="1"/>
        <pt x="154" y="519" on="0"/>
        <pt x="168" y="517" on="1"/>
        <pt x="168" y="564" on="1"/>
        <pt x="168" y="634" on="0"/>
        <pt x="122" y="634" on="1"/>
        <pt x="85" y="634" on="0"/>
      </contour>
      <contour>
        <pt x="102" y="398" on="1"/>
        <pt x="127" y="398" on="0"/>
        <pt x="165" y="453" on="0"/>
        <pt x="167" y="504" on="1"/>
        <pt x="160" y="505" on="0"/>
        <pt x="149" y="505" on="1"/>
        <pt x="117" y="505" on="0"/>
        <pt x="71" y="471" on="0"/>
        <pt x="71" y="423" on="0"/>
        <pt x="88" y="398" on="0"/>
      </contour>
    </TTGlyph>
    <TTGlyph name="ordmasculine" xMin="20" yMin="375" xMax="271" yMax="648">
      <contour>
        <pt x="20" y="448" on="0"/>
        <pt x="20" y="576" on="0"/>
        <pt x="90" y="648" on="0"/>
        <pt x="201" y="648" on="0"/>
        <pt x="271" y="576" on="0"/>
        <pt x="271" y="448" on="0"/>
        <pt x="200" y="375" on="0"/>
        <pt x="90" y="375" on="0"/>
      </contour>
      <contour>
        <pt x="114" y="635" on="0"/>
        <pt x="74" y="569" on="0"/>
        <pt x="74" y="454" on="0"/>
        <pt x="114" y="388" on="0"/>
        <pt x="176" y="388" on="0"/>
        <pt x="217" y="454" on="0"/>
        <pt x="217" y="569" on="0"/>
        <pt x="176" y="635" on="0"/>
      </contour>
    </TTGlyph>
    <TTGlyph name="oslash" xMin="40" yMin="-143" xMax="445" yMax="579">
      <component glyphName="o" x="0" y="0" flags="0x1004"/>
      <component glyphName="slash" x="83" y="-69" flags="0x1004"/>
    </TTGlyph>
    <TTGlyph name="otilde" xMin="40" yMin="-12" xMax="445" yMax="624">
      <component glyphName="o" x="0" y="0" flags="0x1004"/>
      <component glyphName="tilde" x="103" y="0" flags="0x1004"/>
    </TTGlyph>
    <TTGlyph name="p" xMin="30" yMin="-216" xMax="460" yMax="444">
      <contour>
        <pt x="91" y="-184" on="1"/>
        <pt x="91" y="400" on="1"/>
        <pt x="91" y="414" on="0"/>
        <pt x="77" y="414" on="1"/>
        <pt x="30" y="414" on="1"/>
        <pt x="30" y="432" on="1"/>
        <pt x="79" y="432" on="1"/>
        <pt x="139" y="432" on="0"/>
        <pt x="163" y="438" on="1"/>
        <pt x="163" y="298" on="1"/>
        <pt x="180" y="370" on="0"/>
        <pt x="255" y="444" on="0"/>
        <pt x="301" y="444" on="1"/>
        <pt x="364" y="444" on="0"/>
        <pt x="460" y="318" on="0"/>
        <pt x="460" y="110" on="0"/>
        <pt x="351" y="-12" on="0"/>
        <pt x="263" y="-12" on="1"/>
        <pt x="208" y="-12" on="0"/>
        <pt x="163" y="15" on="1"/>
        <pt x="163" y="-184" on="1"/>
        <pt x="163" y="-198" on="0"/>
        <pt x="177" y="-198" on="1"/>
        <pt x="244" y="-198" on="1"/>
        <pt x="244" y="-216" on="1"/>
        <pt x="30" y="-216" on="1"/>
        <pt x="30" y="-198" on="1"/>
        <pt x="77" y="-198" on="1"/>
        <pt x="91" y="-198" on="0"/>
      </contour>
      <contour>
        <pt x="384" y="305" on="0"/>
        <pt x="326" y="406" on="0"/>
        <pt x="237" y="406" on="0"/>
        <pt x="163" y="288" on="0"/>
        <pt x="163" y="177" on="1"/>
        <pt x="163" y="42" on="1"/>
        <pt x="207" y="13" on="0"/>
        <pt x="312" y="13" on="0"/>
        <pt x="384" y="119" on="0"/>
      </contour>
    </TTGlyph>
    <TTGlyph name="paragraph" xMin="20" yMin="-92" xMax="421" yMax="630">
      <contour>
        <pt x="274" y="-92" on="1"/>
        <pt x="240" y="-92" on="1"/>
        <pt x="240" y="262" on="1"/>
        <pt x="144" y="262" on="0"/>
        <pt x="20" y="358" on="0"/>
        <pt x="20" y="534" on="0"/>
        <pt x="144" y="630" on="0"/>
        <pt x="240" y="630" on="1"/>
        <pt x="421" y="630" on="1"/>
        <pt x="421" y="612" on="1"/>
        <pt x="374" y="612" on="1"/>
        <pt x="360" y="612" on="0"/>
        <pt x="360" y="598" on="1"/>
        <pt x="360" y="-92" on="1"/>
        <pt x="326" y="-92" on="1"/>
        <pt x="326" y="612" on="1"/>
        <pt x="274" y="612" on="1"/>
      </contour>
    </TTGlyph>
    <TTGlyph name="parenleft" xMin="50" yMin="-113" xMax="267" yMax="635">
      <contour>
        <pt x="132" y="370" on="0"/>
        <pt x="132" y="152" on="0"/>
        <pt x="202" y="-45" on="0"/>
        <pt x="267" y="-98" on="1"/>
        <pt x="257" y="-113" on="1"/>
        <pt x="158" y="-61" on="0"/>
        <pt x="50" y="142" on="0"/>
        <pt x="50" y="380" on="0"/>
        <pt x="158" y="583" on="0"/>
        <pt x="257" y="635" on="1"/>
        <pt x="267" y="620" on="1"/>
        <pt x="202" y="567" on="0"/>
      </contour>
    </TTGlyph>
    <TTGlyph name="parenright" xMin="20" yMin="-113" xMax="237" yMax="635">
      <contour>
        <pt x="155" y="152" on="0"/>
        <pt x="155" y="370" on="0"/>
        <pt x="85" y="567" on="0"/>
        <pt x="20" y="620" on="1"/>
        <pt x="30" y="635" on="1"/>
        <pt x="129" y="583" on="0"/>
        <pt x="237" y="380" on="0"/>
        <pt x="237" y="142" on="0"/>
        <pt x="129" y="-61" on="0"/>
        <pt x="30" y="-113" on="1"/>
        <pt x="20" y="-98" on="1"/>
        <pt x="85" y="-45" on="0"/>
      </contour>
    </TTGlyph>
    <TTGlyph name="partialdiff" xMin="40" yMin="-12" xMax="457" yMax="712">
      <contour>
        <pt x="141" y="712" on="1"/>
        <pt x="283" y="671" on="0"/>
        <pt x="457" y="394" on="0"/>
        <pt x="457" y="247" on="1"/>
        <pt x="457" y="134" on="0"/>
        <pt x="344" y="-12" on="0"/>
        <pt x="234" y="-12" on="1"/>
        <pt x="149" y="-12" on="0"/>
        <pt x="40" y="102" on="0"/>
        <pt x="40" y="297" on="0"/>
        <pt x="166" y="433" on="0"/>
        <pt x="247" y="433" on="1"/>
        <pt x="311" y="433" on="0"/>
        <pt x="361" y="389" on="1"/>
        <pt x="372" y="398" on="1"/>
        <pt x="305" y="610" on="0"/>
        <pt x="128" y="681" on="1"/>
      </contour>
      <contour>
        <pt x="119" y="114" on="0"/>
        <pt x="189" y="16" on="0"/>
        <pt x="309" y="16" on="0"/>
        <pt x="383" y="144" on="0"/>
        <pt x="383" y="305" on="0"/>
        <pt x="313" y="404" on="0"/>
        <pt x="198" y="404" on="0"/>
        <pt x="119" y="288" on="0"/>
      </contour>
    </TTGlyph>
</ttFont>
